<svg width="39" height="28" viewBox="0 0 39 28" fill="none" xmlns="http://www.w3.org/2000/svg">
<path d="M8.98 27.54C7.384 27.54 5.944 27.168 4.66 26.424C3.388 25.68 2.38 24.672 1.636 23.4C0.892 22.116 0.52 20.676 0.52 19.08V9C0.52 7.404 0.892 5.97 1.636 4.698C2.38 3.414 3.388 2.4 4.66 1.656C5.944 0.911999 7.384 0.539999 8.98 0.539999C10.576 0.539999 12.01 0.911999 13.282 1.656C14.566 2.4 15.58 3.414 16.324 4.698C17.068 5.97 17.44 7.404 17.44 9V19.08C17.44 20.676 17.068 22.116 16.324 23.4C15.58 24.672 14.566 25.68 13.282 26.424C12.01 27.168 10.576 27.54 8.98 27.54ZM8.98 24.984C10.048 24.984 11.02 24.726 11.896 24.21C12.772 23.682 13.468 22.98 13.984 22.104C14.5 21.228 14.758 20.262 14.758 19.206V8.874C14.758 7.806 14.5 6.834 13.984 5.958C13.468 5.082 12.772 4.386 11.896 3.87C11.02 3.342 10.048 3.078 8.98 3.078C7.912 3.078 6.94 3.342 6.064 3.87C5.188 4.386 4.492 5.082 3.976 5.958C3.46 6.834 3.202 7.806 3.202 8.874V19.206C3.202 20.262 3.46 21.228 3.976 22.104C4.492 22.98 5.188 23.682 6.064 24.21C6.94 24.726 7.912 24.984 8.98 24.984ZM21.7727 26.982L21.7907 24.57L33.5087 13.986C34.5167 13.074 35.1827 12.21 35.5067 11.394C35.8427 10.566 36.0107 9.702 36.0107 8.802C36.0107 7.734 35.7587 6.768 35.2547 5.904C34.7507 5.04 34.0727 4.356 33.2207 3.852C32.3687 3.336 31.4147 3.078 30.3587 3.078C29.2547 3.078 28.2707 3.342 27.4067 3.87C26.5427 4.398 25.8587 5.094 25.3547 5.958C24.8627 6.822 24.6227 7.764 24.6347 8.784H21.9347C21.9347 7.212 22.3067 5.802 23.0507 4.554C23.7947 3.306 24.8027 2.328 26.0747 1.62C27.3467 0.899999 28.7867 0.539999 30.3947 0.539999C31.9667 0.539999 33.3767 0.911999 34.6247 1.656C35.8847 2.388 36.8747 3.384 37.5947 4.644C38.3267 5.892 38.6927 7.284 38.6927 8.82C38.6927 9.9 38.5607 10.854 38.2967 11.682C38.0447 12.498 37.6427 13.26 37.0907 13.968C36.5507 14.664 35.8607 15.384 35.0207 16.128L24.6167 25.524L24.2027 24.444H38.6927V26.982H21.7727Z" fill="white"/>
</svg>
