<svg width="38" height="28" viewBox="0 0 38 28" fill="none" xmlns="http://www.w3.org/2000/svg">
<path d="M8.98 27.54C7.384 27.54 5.944 27.168 4.66 26.424C3.388 25.68 2.38 24.672 1.636 23.4C0.892 22.116 0.52 20.676 0.52 19.08V9C0.52 7.404 0.892 5.97 1.636 4.698C2.38 3.414 3.388 2.4 4.66 1.656C5.944 0.911999 7.384 0.539999 8.98 0.539999C10.576 0.539999 12.01 0.911999 13.282 1.656C14.566 2.4 15.58 3.414 16.324 4.698C17.068 5.97 17.44 7.404 17.44 9V19.08C17.44 20.676 17.068 22.116 16.324 23.4C15.58 24.672 14.566 25.68 13.282 26.424C12.01 27.168 10.576 27.54 8.98 27.54ZM8.98 24.984C10.048 24.984 11.02 24.726 11.896 24.21C12.772 23.682 13.468 22.98 13.984 22.104C14.5 21.228 14.758 20.262 14.758 19.206V8.874C14.758 7.806 14.5 6.834 13.984 5.958C13.468 5.082 12.772 4.386 11.896 3.87C11.02 3.342 10.048 3.078 8.98 3.078C7.912 3.078 6.94 3.342 6.064 3.87C5.188 4.386 4.492 5.082 3.976 5.958C3.46 6.834 3.202 7.806 3.202 8.874V19.206C3.202 20.262 3.46 21.228 3.976 22.104C4.492 22.98 5.188 23.682 6.064 24.21C6.94 24.726 7.912 24.984 8.98 24.984ZM29.4587 27.522C28.1747 27.522 26.9927 27.294 25.9127 26.838C24.8327 26.382 23.9027 25.734 23.1227 24.894C22.3427 24.042 21.7727 23.028 21.4127 21.852L23.9327 21.096C24.3647 22.38 25.0727 23.352 26.0567 24.012C27.0527 24.672 28.1747 24.99 29.4227 24.966C30.5747 24.942 31.5647 24.684 32.3927 24.192C33.2327 23.7 33.8747 23.016 34.3187 22.14C34.7627 21.264 34.9847 20.25 34.9847 19.098C34.9847 17.334 34.4687 15.918 33.4367 14.85C32.4167 13.77 31.0667 13.23 29.3867 13.23C28.9187 13.23 28.4267 13.296 27.9107 13.428C27.3947 13.548 26.9147 13.722 26.4707 13.95L25.1387 11.844L35.2187 2.538L35.6507 3.618H22.4387V1.08H37.4147V3.654L28.6307 12.042L28.5947 10.998C30.3947 10.77 31.9787 10.974 33.3467 11.61C34.7147 12.246 35.7827 13.218 36.5507 14.526C37.3307 15.822 37.7207 17.346 37.7207 19.098C37.7207 20.754 37.3607 22.218 36.6407 23.49C35.9327 24.75 34.9547 25.74 33.7067 26.46C32.4587 27.168 31.0427 27.522 29.4587 27.522Z" fill="white"/>
</svg>
