<svg width="40" height="28" viewBox="0 0 40 28" fill="none" xmlns="http://www.w3.org/2000/svg">
<path d="M8.98 27.54C7.384 27.54 5.944 27.168 4.66 26.424C3.388 25.68 2.38 24.672 1.636 23.4C0.892 22.116 0.52 20.676 0.52 19.08V9C0.52 7.404 0.892 5.97 1.636 4.698C2.38 3.414 3.388 2.4 4.66 1.656C5.944 0.911999 7.384 0.539999 8.98 0.539999C10.576 0.539999 12.01 0.911999 13.282 1.656C14.566 2.4 15.58 3.414 16.324 4.698C17.068 5.97 17.44 7.404 17.44 9V19.08C17.44 20.676 17.068 22.116 16.324 23.4C15.58 24.672 14.566 25.68 13.282 26.424C12.01 27.168 10.576 27.54 8.98 27.54ZM8.98 24.984C10.048 24.984 11.02 24.726 11.896 24.21C12.772 23.682 13.468 22.98 13.984 22.104C14.5 21.228 14.758 20.262 14.758 19.206V8.874C14.758 7.806 14.5 6.834 13.984 5.958C13.468 5.082 12.772 4.386 11.896 3.87C11.02 3.342 10.048 3.078 8.98 3.078C7.912 3.078 6.94 3.342 6.064 3.87C5.188 4.386 4.492 5.082 3.976 5.958C3.46 6.834 3.202 7.806 3.202 8.874V19.206C3.202 20.262 3.46 21.228 3.976 22.104C4.492 22.98 5.188 23.682 6.064 24.21C6.94 24.726 7.912 24.984 8.98 24.984ZM33.9047 27V21.978H21.7727V19.458L30.4487 1.08H33.4187L24.7427 19.458H33.9047V11.898H36.5687V19.458H39.3947V21.978H36.5687V27H33.9047Z" fill="white"/>
</svg>
