<svg width="39" height="28" viewBox="0 0 39 28" fill="none" xmlns="http://www.w3.org/2000/svg">
<path d="M8.98 27.54C7.384 27.54 5.944 27.168 4.66 26.424C3.388 25.68 2.38 24.672 1.636 23.4C0.892 22.116 0.52 20.676 0.52 19.08V9C0.52 7.404 0.892 5.97 1.636 4.698C2.38 3.414 3.388 2.4 4.66 1.656C5.944 0.911999 7.384 0.539999 8.98 0.539999C10.576 0.539999 12.01 0.911999 13.282 1.656C14.566 2.4 15.58 3.414 16.324 4.698C17.068 5.97 17.44 7.404 17.44 9V19.08C17.44 20.676 17.068 22.116 16.324 23.4C15.58 24.672 14.566 25.68 13.282 26.424C12.01 27.168 10.576 27.54 8.98 27.54ZM8.98 24.984C10.048 24.984 11.02 24.726 11.896 24.21C12.772 23.682 13.468 22.98 13.984 22.104C14.5 21.228 14.758 20.262 14.758 19.206V8.874C14.758 7.806 14.5 6.834 13.984 5.958C13.468 5.082 12.772 4.386 11.896 3.87C11.02 3.342 10.048 3.078 8.98 3.078C7.912 3.078 6.94 3.342 6.064 3.87C5.188 4.386 4.492 5.082 3.976 5.958C3.46 6.834 3.202 7.806 3.202 8.874V19.206C3.202 20.262 3.46 21.228 3.976 22.104C4.492 22.98 5.188 23.682 6.064 24.21C6.94 24.726 7.912 24.984 8.98 24.984ZM30.1427 27.54C28.7987 27.54 27.5567 27.264 26.4167 26.712C25.2767 26.16 24.3047 25.398 23.5007 24.426C22.6967 23.454 22.1207 22.338 21.7727 21.078L24.3107 20.394C24.5387 21.33 24.9527 22.14 25.5527 22.824C26.1527 23.496 26.8547 24.018 27.6587 24.39C28.4747 24.762 29.3267 24.948 30.2147 24.948C31.3667 24.948 32.3987 24.672 33.3107 24.12C34.2347 23.556 34.9667 22.812 35.5067 21.888C36.0467 20.964 36.3167 19.95 36.3167 18.846C36.3167 17.706 36.0347 16.68 35.4707 15.768C34.9067 14.844 34.1627 14.112 33.2387 13.572C32.3147 13.032 31.3067 12.762 30.2147 12.762C28.9907 12.762 27.9347 13.032 27.0467 13.572C26.1587 14.1 25.4507 14.766 24.9227 15.57L22.5107 14.562L23.3027 1.08H37.1447V3.618H24.4727L25.7867 2.376L25.0847 13.878L24.4187 12.996C25.1627 12.144 26.0627 11.478 27.1187 10.998C28.1747 10.518 29.2847 10.278 30.4487 10.278C32.0447 10.278 33.4847 10.662 34.7687 11.43C36.0527 12.186 37.0727 13.212 37.8287 14.508C38.5847 15.804 38.9627 17.25 38.9627 18.846C38.9627 20.43 38.5607 21.882 37.7567 23.202C36.9527 24.51 35.8847 25.56 34.5527 26.352C33.2207 27.144 31.7507 27.54 30.1427 27.54Z" fill="white"/>
</svg>
