<svg width="18" height="259" viewBox="0 0 18 259" fill="none" xmlns="http://www.w3.org/2000/svg">
<path d="M5.606 15.21C4.892 15.21 4.262 15.0583 3.716 14.755C3.17 14.447 2.743 14.02 2.435 13.474C2.13167 12.928 1.98 12.298 1.98 11.584V8.336C1.98 7.622 2.13167 6.992 2.435 6.446C2.743 5.9 3.17 5.47533 3.716 5.172C4.262 4.864 4.892 4.71 5.606 4.71C6.32 4.71 6.94767 4.864 7.489 5.172C8.035 5.47533 8.462 5.9 8.77 6.446C9.078 6.992 9.232 7.622 9.232 8.336V11.584C9.232 12.298 9.078 12.928 8.77 13.474C8.462 14.02 8.035 14.447 7.489 14.755C6.94767 15.0583 6.32 15.21 5.606 15.21ZM5.606 13.607C5.96067 13.607 6.28267 13.523 6.572 13.355C6.86133 13.1823 7.09 12.9537 7.258 12.669C7.426 12.3797 7.51 12.0577 7.51 11.703V8.21C7.51 7.85067 7.426 7.52867 7.258 7.244C7.09 6.95467 6.86133 6.726 6.572 6.558C6.28267 6.38533 5.96067 6.299 5.606 6.299C5.25133 6.299 4.92933 6.38533 4.64 6.558C4.35067 6.726 4.122 6.95467 3.954 7.244C3.786 7.52867 3.702 7.85067 3.702 8.21V11.703C3.702 12.0577 3.786 12.3797 3.954 12.669C4.122 12.9537 4.35067 13.1823 4.64 13.355C4.92933 13.523 5.25133 13.607 5.606 13.607ZM12.9448 15V6.761L11.0548 7.916V6.054L12.9448 4.92H14.6668V15H12.9448Z" fill="white"/>
<path d="M4.606 104.21C3.892 104.21 3.262 104.058 2.716 103.755C2.17 103.447 1.743 103.02 1.435 102.474C1.13167 101.928 0.98 101.298 0.98 100.584V97.336C0.98 96.622 1.13167 95.992 1.435 95.446C1.743 94.9 2.17 94.4753 2.716 94.172C3.262 93.864 3.892 93.71 4.606 93.71C5.32 93.71 5.94767 93.864 6.489 94.172C7.035 94.4753 7.462 94.9 7.77 95.446C8.078 95.992 8.232 96.622 8.232 97.336V100.584C8.232 101.298 8.078 101.928 7.77 102.474C7.462 103.02 7.035 103.447 6.489 103.755C5.94767 104.058 5.32 104.21 4.606 104.21ZM4.606 102.607C4.96067 102.607 5.28267 102.523 5.572 102.355C5.86133 102.182 6.09 101.954 6.258 101.669C6.426 101.38 6.51 101.058 6.51 100.703V97.21C6.51 96.8507 6.426 96.5287 6.258 96.244C6.09 95.9547 5.86133 95.726 5.572 95.558C5.28267 95.3853 4.96067 95.299 4.606 95.299C4.25133 95.299 3.92933 95.3853 3.64 95.558C3.35067 95.726 3.122 95.9547 2.954 96.244C2.786 96.5287 2.702 96.8507 2.702 97.21V100.703C2.702 101.058 2.786 101.38 2.954 101.669C3.122 101.954 3.35067 102.182 3.64 102.355C3.92933 102.523 4.25133 102.607 4.606 102.607ZM9.91484 103.986V102.516L14.2268 98.673C14.5628 98.3743 14.7962 98.092 14.9268 97.826C15.0575 97.56 15.1228 97.3033 15.1228 97.056C15.1228 96.72 15.0505 96.4213 14.9058 96.16C14.7612 95.894 14.5605 95.684 14.3038 95.53C14.0518 95.376 13.7602 95.299 13.4288 95.299C13.0788 95.299 12.7685 95.3807 12.4978 95.544C12.2318 95.7027 12.0242 95.915 11.8748 96.181C11.7255 96.447 11.6555 96.734 11.6648 97.042H9.92884C9.92884 96.37 10.0782 95.7843 10.3768 95.285C10.6802 94.7857 11.0955 94.3983 11.6228 94.123C12.1548 93.8477 12.7685 93.71 13.4638 93.71C14.1078 93.71 14.6865 93.8547 15.1998 94.144C15.7132 94.4287 16.1168 94.8253 16.4108 95.334C16.7048 95.838 16.8518 96.419 16.8518 97.077C16.8518 97.5577 16.7865 97.9613 16.6558 98.288C16.5252 98.6147 16.3292 98.9157 16.0678 99.191C15.8112 99.4663 15.4915 99.772 15.1088 100.108L12.0498 102.817L11.8958 102.397H16.8518V103.986H9.91484Z" fill="white"/>
<path d="M4.606 193.21C3.892 193.21 3.262 193.058 2.716 192.755C2.17 192.447 1.743 192.02 1.435 191.474C1.13167 190.928 0.98 190.298 0.98 189.584V186.336C0.98 185.622 1.13167 184.992 1.435 184.446C1.743 183.9 2.17 183.475 2.716 183.172C3.262 182.864 3.892 182.71 4.606 182.71C5.32 182.71 5.94767 182.864 6.489 183.172C7.035 183.475 7.462 183.9 7.77 184.446C8.078 184.992 8.232 185.622 8.232 186.336V189.584C8.232 190.298 8.078 190.928 7.77 191.474C7.462 192.02 7.035 192.447 6.489 192.755C5.94767 193.058 5.32 193.21 4.606 193.21ZM4.606 191.607C4.96067 191.607 5.28267 191.523 5.572 191.355C5.86133 191.182 6.09 190.954 6.258 190.669C6.426 190.38 6.51 190.058 6.51 189.703V186.21C6.51 185.851 6.426 185.529 6.258 185.244C6.09 184.955 5.86133 184.726 5.572 184.558C5.28267 184.385 4.96067 184.299 4.606 184.299C4.25133 184.299 3.92933 184.385 3.64 184.558C3.35067 184.726 3.122 184.955 2.954 185.244C2.786 185.529 2.702 185.851 2.702 186.21V189.703C2.702 190.058 2.786 190.38 2.954 190.669C3.122 190.954 3.35067 191.182 3.64 191.355C3.92933 191.523 4.25133 191.607 4.606 191.607ZM13.0788 193.189C12.5748 193.189 12.0988 193.091 11.6508 192.895C11.2028 192.699 10.8132 192.421 10.4818 192.062C10.1552 191.703 9.91951 191.278 9.77484 190.788L11.4058 190.347C11.5225 190.748 11.7348 191.059 12.0428 191.278C12.3555 191.493 12.6985 191.598 13.0718 191.593C13.4032 191.593 13.6995 191.516 13.9608 191.362C14.2222 191.208 14.4275 191 14.5768 190.739C14.7262 190.473 14.8008 190.177 14.8008 189.85C14.8008 189.351 14.6398 188.933 14.3178 188.597C13.9958 188.261 13.5805 188.093 13.0718 188.093C12.9178 188.093 12.7662 188.114 12.6168 188.156C12.4722 188.198 12.3322 188.256 12.1968 188.331L11.4268 187.001L14.8148 184.103L14.9618 184.509H10.1668V182.92H16.3478V184.516L13.6248 187.134L13.6108 186.637C14.2222 186.679 14.7425 186.849 15.1718 187.148C15.6058 187.447 15.9372 187.832 16.1658 188.303C16.3992 188.774 16.5158 189.29 16.5158 189.85C16.5158 190.485 16.3595 191.054 16.0468 191.558C15.7388 192.062 15.3235 192.461 14.8008 192.755C14.2828 193.044 13.7088 193.189 13.0788 193.189Z" fill="white"/>
<path d="M8 26.5V81" stroke="#046BAD" stroke-width="2"/>
<path d="M9 115.5V170" stroke="white" stroke-width="2"/>
<path d="M9 115L9 143" stroke="#046BAD" stroke-width="2"/>
<path d="M9 204.5V259" stroke="white" stroke-width="2"/>
</svg>
