<svg width="96" height="48" viewBox="0 0 96 48" fill="none" xmlns="http://www.w3.org/2000/svg">
<path d="M91.7761 31.4697H4.22386C1.89483 31.4697 0 33.3648 0 35.6938V43.4894C0 45.8184 1.89483 47.7133 4.22386 47.7133H91.7759C94.105 47.7133 96 45.8186 96 43.4894V35.6938C96 33.3648 94.1052 31.4697 91.7761 31.4697ZM12.6454 33.9205H74.6595V45.2623H12.6454V33.9205ZM10.1947 45.2625H7.54809V33.9207H10.1945L10.1947 45.2625ZM2.45095 43.4894V35.6938C2.45095 34.7161 3.24642 33.9205 4.22406 33.9205H5.09755V45.2623H4.22406C3.24622 45.2625 2.45095 44.467 2.45095 43.4894ZM93.5492 43.4894C93.5492 44.467 92.7536 45.2625 91.7759 45.2625H77.1101V33.9207H91.7759C92.7536 33.9207 93.5492 34.7163 93.5492 35.694V43.4894Z" fill="url(#paint0_linear_51_1939)"/>
<path d="M6.02292 30.9224C6.69953 30.9224 7.24829 30.3737 7.24829 29.6971V26.2489C7.24829 25.0646 8.91745 24.0263 10.8203 24.0263H19.2157C22.5367 24.0263 25.2384 21.3245 25.2384 18.0035V15.0051C25.2384 13.0355 26.8408 11.4331 28.8104 11.4331H40.5039C43.8249 11.4331 46.5266 8.93313 46.5266 5.8601V1.51248C46.5266 0.835872 45.978 0.287109 45.3012 0.287109C44.6246 0.287109 44.0759 0.835872 44.0759 1.51248V5.8601C44.0759 7.58175 42.4735 8.98236 40.5039 8.98236H28.8104C25.4894 8.98236 22.7877 11.6841 22.7877 15.0051V18.0035C22.7877 19.9731 21.1853 21.5755 19.2157 21.5755H10.8203C7.49929 21.5755 4.79755 23.6721 4.79755 26.2489V29.6971C4.79755 30.3737 5.3461 30.9224 6.02292 30.9224Z" fill="url(#paint1_linear_51_1939)"/>
<defs>
<linearGradient id="paint0_linear_51_1939" x1="96" y1="39.5641" x2="6.02181e-07" y2="39.5642" gradientUnits="userSpaceOnUse">
<stop stop-color="#267ABE"/>
<stop offset="1" stop-color="#195697"/>
</linearGradient>
<linearGradient id="paint1_linear_51_1939" x1="46.5266" y1="15.5532" x2="4.79755" y2="15.5532" gradientUnits="userSpaceOnUse">
<stop stop-color="#267ABE"/>
<stop offset="1" stop-color="#195697"/>
</linearGradient>
</defs>
</svg>
