<svg width="62" height="64" viewBox="0 0 62 64" fill="none" xmlns="http://www.w3.org/2000/svg">
<path d="M20.0217 0.576142C19.3937 -0.192485 18.2177 -0.19161 17.5904 0.576142C12.5948 6.6954 0.703125 22.7413 0.703125 30.9341C0.703125 40.916 8.82414 49.0369 18.8062 49.0369C28.7881 49.0369 36.909 40.9158 36.909 30.9341C36.909 22.7354 24.9604 6.62565 20.0217 0.576142ZM18.8059 45.8972C10.5551 45.8972 3.84276 39.1848 3.84276 30.9343C3.84276 24.4723 13.718 10.5627 18.8059 4.08327C23.8938 10.5627 33.7688 24.4724 33.7688 30.9343C33.7691 39.1848 27.0567 45.8972 18.8059 45.8972Z" fill="url(#paint0_linear_51_1836)"/>
<path d="M16.6352 15.0051C15.9137 14.5241 14.9392 14.719 14.4581 15.4405C11.2131 20.3077 8.97389 24.3761 7.80201 27.533C7.50038 28.3458 7.91464 29.2495 8.72739 29.5511C9.54014 29.8528 10.4436 29.4385 10.7455 28.6258C11.4928 26.6125 13.1966 22.9929 17.0704 17.1824C17.5517 16.4607 17.3568 15.4861 16.6352 15.0051Z" fill="url(#paint1_linear_51_1836)"/>
<path d="M15.8919 39.1149C13.924 38.4115 12.2717 37.0177 11.239 35.19C10.8124 34.435 9.8544 34.1689 9.0999 34.5955C8.34502 35.0222 8.07877 35.9798 8.50539 36.7347C9.90915 39.2187 12.1569 41.1142 14.8349 42.0716C15.6534 42.3636 16.5503 41.9366 16.8417 41.1217C17.1337 40.3053 16.7083 39.4067 15.8919 39.1149Z" fill="url(#paint2_linear_51_1836)"/>
<path d="M50.163 31.5108C49.5352 30.7422 48.3588 30.7428 47.7317 31.5108C46.5922 32.9056 36.5977 45.3197 36.5977 51.6503C36.5977 58.4601 42.1378 64.0001 48.9475 64.0001C55.757 64.0001 61.297 58.4601 61.297 51.6503C61.2969 45.32 51.3027 32.9054 50.163 31.5108ZM48.9473 60.8601C43.869 60.8601 39.7374 56.7287 39.7374 51.6502C39.7374 47.4721 46.421 38.3219 48.9473 35.0416C51.488 38.3397 58.157 47.4773 58.157 51.6502C58.157 56.7287 54.0254 60.8601 48.9473 60.8601Z" fill="url(#paint3_linear_51_1836)"/>
<path d="M47.1187 43.9239C46.3765 43.4753 45.4112 43.7133 44.9628 44.4554C42.9581 47.7724 42.2245 49.7377 41.962 50.8026C41.7546 51.6443 42.2688 52.4949 43.1106 52.7026C43.953 52.9099 44.8032 52.3954 45.0106 51.5541C45.1492 50.9918 45.6837 49.3327 47.65 46.0796C48.0987 45.3376 47.8607 44.3726 47.1187 43.9239Z" fill="url(#paint4_linear_51_1836)"/>
<defs>
<linearGradient id="paint0_linear_51_1836" x1="36.909" y1="24.4359" x2="0.703125" y2="24.4359" gradientUnits="userSpaceOnUse">
<stop stop-color="#267ABE"/>
<stop offset="1" stop-color="#195697"/>
</linearGradient>
<linearGradient id="paint1_linear_51_1836" x1="17.3345" y1="22.1703" x2="7.7035" y2="22.1703" gradientUnits="userSpaceOnUse">
<stop stop-color="#267ABE"/>
<stop offset="1" stop-color="#195697"/>
</linearGradient>
<linearGradient id="paint2_linear_51_1836" x1="16.9338" y1="38.2647" x2="8.30197" y2="38.2647" gradientUnits="userSpaceOnUse">
<stop stop-color="#267ABE"/>
<stop offset="1" stop-color="#195697"/>
</linearGradient>
<linearGradient id="paint3_linear_51_1836" x1="61.297" y1="47.4117" x2="36.5977" y2="47.4117" gradientUnits="userSpaceOnUse">
<stop stop-color="#267ABE"/>
<stop offset="1" stop-color="#195697"/>
</linearGradient>
<linearGradient id="paint4_linear_51_1836" x1="47.8767" y1="48.2076" x2="41.916" y2="48.2076" gradientUnits="userSpaceOnUse">
<stop stop-color="#267ABE"/>
<stop offset="1" stop-color="#195697"/>
</linearGradient>
</defs>
</svg>
