<svg width="95" height="73" viewBox="0 0 95 73" fill="none" xmlns="http://www.w3.org/2000/svg">
<path d="M59.0231 0.648926C39.254 0.648926 23.1723 16.7427 23.1723 36.4998C23.1723 56.2569 39.252 72.3506 59.0231 72.3506C78.7943 72.3506 94.872 56.2669 94.872 36.4998C94.872 16.7326 78.7903 0.648926 59.0231 0.648926ZM59.0231 69.1319C41.0283 69.1319 26.391 54.4926 26.391 36.4998C26.391 18.507 41.0283 3.86768 59.0231 3.86768C77.018 3.86768 91.6532 18.507 91.6532 36.4998C91.6532 54.4926 77.0159 69.1319 59.0231 69.1319ZM86.3543 36.4998C86.3591 32.3399 85.4086 28.2344 83.5762 24.4999C83.5367 24.3971 83.4868 24.2987 83.4273 24.2062C82.1025 21.5817 80.3643 19.1874 78.2793 17.1148C78.1944 17.0078 78.0964 16.9118 77.9876 16.8292C72.9028 11.9118 66.1048 9.1646 59.0312 9.16855C57.7226 9.1688 56.4157 9.26225 55.1204 9.44818L55.0339 9.46025C52.054 9.89732 49.1679 10.8281 46.4941 12.2143C46.3979 12.2537 46.3056 12.3022 46.2185 12.3591C42.5337 14.3191 39.3452 17.0948 36.8963 20.4745C34.4474 23.8543 32.8029 27.7487 32.0882 31.8607C32.0757 31.9152 32.0663 31.9702 32.0601 32.0257C31.5692 34.9875 31.5692 38.01 32.0601 40.9718C32.0663 41.028 32.0757 41.0837 32.0882 41.1388C32.8028 45.2503 34.4468 49.1444 36.8949 52.5241C39.343 55.9038 42.5306 58.6798 46.2145 60.6404C46.3024 60.6994 46.3961 60.7493 46.4941 60.7893C49.157 62.168 52.0296 63.0966 54.9957 63.5373H55.06C59.189 64.1422 63.4016 63.7927 67.3744 62.5156C71.3473 61.2386 74.9745 59.0679 77.9775 56.1703C78.0881 56.0876 78.1875 55.9909 78.2733 55.8827C80.3598 53.8116 82.1 51.4186 83.4273 48.7954C83.4868 48.7014 83.5367 48.6017 83.5762 48.4977C85.4087 44.7639 86.3592 40.659 86.3543 36.4998ZM76.8228 52.7484L62.2258 42.1426C62.0114 41.9871 61.7619 41.8869 61.4996 41.8509C62.4119 41.4279 63.2013 40.7791 63.793 39.9659C64.3848 39.1528 64.7593 38.2021 64.8813 37.2039C64.9958 37.4427 65.1671 37.6499 65.3802 37.8074L79.9832 48.4152C79.0936 49.9722 78.0336 51.4256 76.8228 52.7484ZM49.0611 58.4617L54.6416 41.2897C54.7223 41.0355 54.7396 40.7655 54.6919 40.5031C55.3754 41.2463 56.239 41.8007 57.1992 42.1129C58.1594 42.4251 59.1839 42.4846 60.1738 42.2855C59.9835 42.4687 59.8411 42.696 59.7594 42.9473L54.1809 60.1234C52.4195 59.7627 50.7041 59.2053 49.0671 58.4617H49.0611ZM34.9087 36.4998C34.909 35.6031 34.9594 34.7072 35.0595 33.8161H53.1167C53.3807 33.8154 53.6405 33.7498 53.8731 33.625C53.3812 34.5037 53.1228 35.4938 53.1228 36.5008C53.1228 37.5078 53.3812 38.4979 53.8731 39.3765C53.6402 39.2476 53.3789 39.1785 53.1127 39.1753H35.0595C34.9597 38.287 34.9093 37.3937 34.9087 36.4998ZM54.1729 12.8762L59.7514 30.0623C59.83 30.3104 59.9682 30.5355 60.1537 30.7181C59.1669 30.524 58.1468 30.5859 57.1907 30.8979C56.2346 31.2099 55.3743 31.7617 54.6919 32.5005C54.7396 32.2401 54.7223 31.972 54.6416 31.7199L49.0611 14.5479C50.6971 13.8011 52.4118 13.2404 54.1729 12.8762ZM76.8228 20.2511C78.034 21.5759 79.0939 23.0312 79.9832 24.5904L65.3802 35.1982C65.1671 35.3556 64.9958 35.5628 64.8813 35.8017C64.7603 34.804 64.387 33.8535 63.7967 33.0401C63.2064 32.2267 62.4186 31.5771 61.5076 31.1526C61.7679 31.1168 62.0152 31.0173 62.2278 30.8629L76.8228 20.2511ZM59.0251 39.1794C58.4947 39.1794 57.9761 39.022 57.5351 38.7273C57.0941 38.4325 56.7504 38.0136 56.5475 37.5235C56.3445 37.0334 56.2916 36.4941 56.3952 35.9739C56.4988 35.4536 56.7544 34.9758 57.1297 34.6008C57.5049 34.2259 57.9829 33.9707 58.5032 33.8674C59.0235 33.7642 59.5628 33.8176 60.0527 34.0208C60.5427 34.2241 60.9614 34.5681 61.2558 35.0094C61.5502 35.4506 61.7072 35.9693 61.7068 36.4998C61.7052 37.2103 61.4221 37.8912 60.9194 38.3935C60.4168 38.8957 59.7357 39.1783 59.0251 39.1794ZM69.0656 36.4998L81.4055 27.5335C83.7124 33.2885 83.7124 39.7111 81.4055 45.466L69.0656 36.4998ZM74.457 17.992L62.1252 26.9521L57.4138 12.4436C57.9502 12.4074 58.4867 12.3893 59.0231 12.3893C64.6664 12.3847 70.1309 14.3684 74.457 17.992ZM46.1863 16.0969L50.8998 30.5994H35.6409C37.1691 24.592 40.9445 19.4003 46.1884 16.0949L46.1863 16.0969ZM35.6409 42.4021H50.9018L46.1884 56.9046C40.9445 53.6002 37.169 48.409 35.6409 42.4021ZM57.4138 60.5579L62.1252 46.0494L74.457 55.0076C70.1303 58.6316 64.6651 60.6153 59.0211 60.6102C58.482 60.6116 57.9462 60.5941 57.4138 60.5579ZM79.0578 16.4107C78.7607 16.1042 78.5974 15.6922 78.604 15.2653C78.6106 14.8384 78.7865 14.4317 79.093 14.1345C79.3996 13.8373 79.8116 13.6741 80.2385 13.6807C80.6653 13.6873 81.0721 13.8632 81.3693 14.1697C83.32 16.1189 85.0074 18.3149 86.3885 20.7017C86.4943 20.8848 86.5629 21.0869 86.5905 21.2965C86.618 21.5061 86.6041 21.7191 86.5493 21.9233C86.4946 22.1274 86.4002 22.3188 86.2714 22.4865C86.1427 22.6542 85.9822 22.7949 85.7991 22.9005C85.616 23.0063 85.4139 23.0749 85.2043 23.1025C84.9948 23.1301 84.7818 23.1161 84.5776 23.0613C84.3734 23.0066 84.182 22.9122 84.0143 22.7835C83.8466 22.6547 83.7059 22.4942 83.6003 22.3111C82.3582 20.1646 80.8398 18.1904 79.084 16.4389L79.0578 16.4107ZM42.6457 11.3372C42.4317 10.9693 42.372 10.5317 42.4799 10.12C42.5877 9.70831 42.8542 9.35608 43.2211 9.14039C50.4861 4.97397 59.1006 3.83916 67.1967 5.98199C67.6064 6.09441 67.9549 6.3642 68.1665 6.73256C68.378 7.10092 68.4353 7.53796 68.3259 7.94841C68.2165 8.35886 67.9493 8.70942 67.5826 8.92366C67.2158 9.1379 66.7792 9.19845 66.3679 9.09211C59.0995 7.1686 51.3659 8.18626 44.8425 11.9246C44.4733 12.1384 44.0342 12.1969 43.6219 12.0871C43.2096 11.9773 42.8577 11.7083 42.6437 11.3392L42.6457 11.3372ZM5.91174 19.3358C5.91174 18.9089 6.08129 18.4996 6.38311 18.1978C6.68493 17.896 7.09428 17.7264 7.52111 17.7264H24.7817C25.2085 17.7264 25.6178 17.896 25.9197 18.1978C26.2215 18.4996 26.391 18.9089 26.391 19.3358C26.391 19.7626 26.2215 20.172 25.9197 20.4738C25.6178 20.7756 25.2085 20.9452 24.7817 20.9452H7.52111C7.09428 20.9452 6.68493 20.7756 6.38311 20.4738C6.08129 20.172 5.91174 19.7626 5.91174 19.3358ZM26.391 53.6316C26.391 54.0584 26.2215 54.4677 25.9197 54.7696C25.6178 55.0714 25.2085 55.2409 24.7817 55.2409H7.52111C7.09428 55.2409 6.68493 55.0714 6.38311 54.7696C6.08129 54.4677 5.91174 54.0584 5.91174 53.6316C5.91174 53.2047 6.08129 52.7954 6.38311 52.4936C6.68493 52.1917 7.09428 52.0222 7.52111 52.0222H24.7817C24.993 52.0222 25.2023 52.0638 25.3975 52.1447C25.5928 52.2256 25.7702 52.3441 25.9197 52.4936C26.0691 52.643 26.1876 52.8204 26.2685 53.0157C26.3494 53.2109 26.391 53.4202 26.391 53.6316ZM18.998 38.1091H1.73742C1.31059 38.1091 0.901235 37.9396 0.599419 37.6378C0.297603 37.3359 0.128044 36.9266 0.128044 36.4998C0.128044 36.0729 0.297603 35.6636 0.599419 35.3618C0.901235 35.0599 1.31059 34.8904 1.73742 34.8904H18.998C19.4248 34.8904 19.8342 35.0599 20.136 35.3618C20.4378 35.6636 20.6073 36.0729 20.6073 36.4998C20.6073 36.9266 20.4378 37.3359 20.136 37.6378C19.8342 37.9396 19.4248 38.1091 18.998 38.1091Z" fill="url(#paint0_linear_51_2081)"/>
<defs>
<linearGradient id="paint0_linear_51_2081" x1="94.872" y1="36.3791" x2="0.128045" y2="36.3791" gradientUnits="userSpaceOnUse">
<stop stop-color="#267ABE"/>
<stop offset="1" stop-color="#195697"/>
</linearGradient>
</defs>
</svg>
