<svg width="86" height="80" viewBox="0 0 86 80" fill="none" xmlns="http://www.w3.org/2000/svg">
<path d="M75.1927 40.226C74.5942 16.4972 60.5225 4.69722 32.25 4.21347V2.37522C32.25 1.38622 31.4473 0.583496 30.4583 0.583496H19.7083C18.7193 0.583496 17.9166 1.38622 17.9166 2.37522V5.9585C17.9166 6.9475 18.7193 7.75022 19.7083 7.75022H21.5V11.3335H19.7083C18.7193 11.3335 17.9166 12.1362 17.9166 13.1252V27.2112C7.30278 30.9667 0 41.197 0 52.5419C0 62.5 5.45747 71.1897 13.5235 75.8337H12.5417C11.5527 75.8335 10.75 76.6362 10.75 77.6252C10.75 78.6142 11.5527 79.4169 12.5417 79.4169H41.2084C42.1974 79.4169 43.0002 78.6142 43.0002 77.6252C43.0002 76.6362 42.1974 75.8335 41.2084 75.8335H40.2267C48.2925 71.1895 53.75 62.5 53.75 52.5419C53.75 41.1972 46.4472 30.9702 35.8333 27.2114V13.1252C35.8333 12.1362 35.0306 11.3335 34.0416 11.3335H32.25V7.79322C58.4692 8.24825 71.0325 18.6042 71.6093 40.2402C65.575 41.4012 60.9166 48.0483 60.9166 56.1252C60.9166 65.0155 66.5423 72.2502 73.4583 72.2502C80.3742 72.2502 86 65.0155 86 56.1252C86 47.9982 81.2807 41.3225 75.1927 40.226ZM28.6667 4.16694V11.3337H25.0834V5.95866C25.0834 4.96966 24.2807 4.16694 23.2917 4.16694H28.6667ZM33.5293 30.2285C43.326 33.1452 50.1667 42.3187 50.1667 52.5419C50.1667 65.3847 39.7177 75.8337 26.875 75.8337C14.0323 75.8337 3.58328 65.3845 3.58328 52.5419C3.58328 42.3187 10.4238 33.1454 20.2208 30.2285C20.9768 30.0027 21.5 29.3075 21.5 28.512V14.9168H32.25V28.512C32.25 29.304 32.7695 30.0027 33.5293 30.2285ZM73.4583 68.6669C68.5205 68.6669 64.5 63.041 64.5 56.1252C64.5 49.2094 68.5205 43.5835 73.4583 43.5835C78.3961 43.5835 82.4165 49.2093 82.4165 56.1252C82.4165 63.0412 78.3962 68.6669 73.4583 68.6669Z" fill="url(#paint0_linear_51_2054)"/>
<defs>
<linearGradient id="paint0_linear_51_2054" x1="86" y1="39.8675" x2="5.39453e-07" y2="39.8675" gradientUnits="userSpaceOnUse">
<stop stop-color="#267ABE"/>
<stop offset="1" stop-color="#195697"/>
</linearGradient>
</defs>
</svg>
