<svg width="88" height="70" viewBox="0 0 88 70" fill="none" xmlns="http://www.w3.org/2000/svg">
<path d="M87.1037 19.8848L70.6447 3.42584C68.8074 1.58849 66.3645 0.57666 63.7657 0.57666H24.2339C21.6355 0.57666 19.1923 1.58866 17.3551 3.42584L0.896317 19.8848C-0.298732 21.0802 -0.298732 23.025 0.896317 24.2202L9.7711 33.095C10.3503 33.6742 11.12 33.993 11.939 33.993C12.7579 33.993 13.5276 33.6742 14.1068 33.095L19.3908 27.811V65.5541C19.3908 67.6874 21.1264 69.423 23.2597 69.423H64.7406C66.8739 69.423 68.6095 67.6874 68.6095 65.5541V27.811L73.8935 33.095C74.4727 33.6742 75.2424 33.993 76.0613 33.993C76.8802 33.993 77.65 33.6742 78.2292 33.095L87.104 24.22C88.2987 23.0248 88.2987 21.08 87.1037 19.8848ZM50.1003 3.35554C49.4664 6.13906 46.973 8.22339 44.0002 8.22339C41.0277 8.22339 38.5343 6.13906 37.9004 3.35554H50.1003ZM35.0711 3.35554C35.7416 7.68078 39.4902 11.0024 44.0006 11.0024C48.5109 11.0024 52.2595 7.68095 52.93 3.35554H55.0874C54.4008 8.86432 49.6924 13.1425 44.0008 13.1425C38.3091 13.1425 33.6006 8.86466 32.9141 3.35554H35.0711ZM65.8303 65.5541C65.8303 66.1552 65.3413 66.644 64.7404 66.644H23.2595C22.6585 66.644 22.1697 66.155 22.1697 65.5541V56.7986H65.8303V65.5541ZM65.8303 54.0196H22.1697V48.4084H65.8303V54.0196ZM65.8303 45.6293H22.1697V41.3945H65.8303V45.6293ZM65.8303 38.6152H22.1697V33.004H65.8303V38.6152ZM85.1386 22.2551L76.2638 31.1299C76.1946 31.1992 76.1152 31.2138 76.0612 31.2138C76.0072 31.2138 75.9278 31.1992 75.8585 31.1299L69.9043 25.1756C69.219 24.4907 68.1982 24.2875 67.3034 24.6583C66.4087 25.0288 65.8303 25.8944 65.8303 26.8629V30.2248H22.1697V26.8629C22.1697 25.8944 21.5915 25.029 20.6965 24.6583C20.3994 24.5352 20.0886 24.4754 19.7808 24.4754C19.161 24.4754 18.5536 24.7179 18.0957 25.1755L12.1414 31.1297C12.0722 31.199 11.9928 31.2136 11.9388 31.2136C11.8848 31.2136 11.8054 31.199 11.7361 31.1297L2.86137 22.255C2.74948 22.1431 2.74948 21.9612 2.86137 21.8495L19.3203 5.39072C20.6328 4.07828 22.3778 3.35537 24.2339 3.35537H30.1146C30.8143 10.4004 36.7743 15.9213 44.0004 15.9213C51.2266 15.9213 57.1867 10.4005 57.8862 3.35537H63.7659C65.6222 3.35537 67.3672 4.0781 68.6796 5.39072L85.1386 21.8495C85.2503 21.9614 85.2503 22.1434 85.1386 22.2551Z" fill="url(#paint0_linear_51_1967)"/>
<defs>
<linearGradient id="paint0_linear_51_1967" x1="88" y1="34.884" x2="3.10696e-05" y2="34.884" gradientUnits="userSpaceOnUse">
<stop stop-color="#267ABE"/>
<stop offset="1" stop-color="#195697"/>
</linearGradient>
</defs>
</svg>
