<svg width="37" height="83" viewBox="0 0 37 83" fill="none" xmlns="http://www.w3.org/2000/svg">
<path d="M32.0889 20.6989C30.2882 16.7448 28.5989 13.0134 28.5989 9.50481V8.7808C29.23 8.65085 29.7127 8.09393 29.7127 7.42563V1.39231C29.7127 0.631178 29.0815 0 28.3204 0H8.66104C7.89991 0 7.26873 0.631178 7.26873 1.39231V7.42563C7.26873 8.09393 7.7514 8.65085 8.38257 8.7808V9.50481C8.38257 13.0134 6.69324 16.7448 4.89253 20.6989C2.86904 25.1729 0.771301 29.7953 0.771301 34.7705V71.8615C0.771301 74.5719 1.51386 76.7996 2.99899 78.4889C4.27991 80.5866 6.78606 83 9.77488 83H27.2251C29.5828 83 32.4045 80.7351 34.001 78.4889C35.4119 76.6139 36.2287 74.2006 36.2287 71.8801V34.7891C36.2101 29.7953 34.1124 25.1729 32.0889 20.6989ZM10.0533 2.78461H26.9281V6.03332H10.0533V2.78461ZM33.4255 71.8615C33.4255 73.588 32.8129 75.3887 31.7362 76.7996C31.7362 76.8181 31.7176 76.8181 31.7176 76.8367C30.3253 78.8045 28.2276 80.1968 27.2066 80.1968H9.75631C8.27119 80.1968 6.43334 78.8602 5.30094 76.9481C5.24524 76.8738 5.18955 76.781 5.13386 76.7253C4.07571 75.5558 3.53735 73.9221 3.53735 71.8615V64.4545H33.4255V71.8615ZM33.4255 61.6513H3.53735V39.8756H33.4255V61.6513ZM33.4255 37.091H3.53735V34.7705C3.53735 30.3894 5.50514 26.0454 7.41724 21.8499C9.34791 17.6173 11.1486 13.6075 11.1486 9.50481V8.81793H25.8142V9.50481C25.8142 13.6075 27.6335 17.6173 29.5456 21.8499C31.4577 26.0454 33.4255 30.4079 33.4255 34.7705V37.091Z" fill="url(#paint0_linear_51_1766)"/>
<defs>
<linearGradient id="paint0_linear_51_1766" x1="36.2287" y1="41.3603" x2="0.771301" y2="41.3603" gradientUnits="userSpaceOnUse">
<stop stop-color="#267ABE"/>
<stop offset="1" stop-color="#195697"/>
</linearGradient>
</defs>
</svg>
