<svg width="102" height="54" viewBox="0 0 102 54" fill="none" xmlns="http://www.w3.org/2000/svg">
<path d="M99.5369 40.8669C98.5967 32.9958 91.8747 26.954 83.8476 26.954C77.1429 26.954 59.8529 22.1704 50.7081 13.0259C49.052 11.3698 47.4866 10.2762 46.0092 9.60229C44.4228 5.84323 41.9646 0.714934 35.9994 0.715332C32.3983 0.715332 29.6059 2.16744 28.5297 4.5999C27.7583 6.34406 27.598 9.19827 30.6833 13.2637C30.2063 13.4133 29.7406 13.5018 29.2885 13.5018C26.8067 13.5018 24.4589 12.59 21.7399 11.5341C18.5349 10.2894 14.9018 8.87872 10.4181 8.87872C6.2232 8.87872 3.44589 11.4678 2.16312 16.5741C1.16503 20.5482 1.16842 25.599 1.17161 30.0547L1.1718 37.83C0.439676 38.7111 0 39.8692 0 41.1554V48.2523C0 51.0741 2.11152 53.2844 4.80695 53.2844H96.2918C99.4392 53.2844 102 50.7236 102 47.5764V45.5591C102 43.6167 101.024 41.8984 99.5369 40.8669ZM73.5103 28.5838C77.6891 29.6995 81.3737 30.2587 83.8478 30.2587C89.708 30.2587 94.6871 34.3297 96.0041 39.8509H88.4053C81.5679 39.8509 68.0683 39.0153 54.4614 38.142C54.2005 34.7387 54.9208 32.2333 56.5389 31.0153C58.0129 29.9053 60.2605 29.8553 62.5505 30.882C65.4226 32.1696 68.5197 32.1268 71.0486 30.7645C72.1042 30.1955 72.9531 29.4327 73.5103 28.5838ZM31.5517 5.93706C32.0748 4.75449 33.7791 4.01978 35.9996 4.01978C38.9018 4.01958 40.552 5.91355 41.9589 8.69703C38.9411 8.71098 36.3783 10.2199 34.2419 11.4787C34.0682 11.5811 33.8955 11.6825 33.7236 11.7829C31.7533 9.36581 30.9626 7.26863 31.5517 5.93706ZM10.4183 12.1836C14.283 12.1836 17.4659 13.4197 20.5438 14.615C23.4463 15.742 26.1877 16.8066 29.2885 16.8066C31.7092 16.8066 33.8495 15.5454 35.9191 14.326C38.9777 12.5234 41.7064 10.9203 45.336 12.9675C42.0348 13.7942 38.9503 15.442 36.1337 16.9473C33.3355 18.4428 30.6924 19.8557 28.6871 19.9423C22.9673 20.192 17.8723 17.8043 13.3779 15.6996C11.3535 14.7515 9.40811 13.8413 7.50238 13.2002C8.44907 12.3507 9.49118 12.1836 10.4183 12.1836ZM5.36835 17.3798C5.48489 16.916 5.61179 16.4949 5.74706 16.1092C7.68207 16.6803 9.78005 17.6625 11.977 18.6916C16.5686 20.8422 21.7413 23.2649 27.8388 23.2649C28.1665 23.2649 28.4974 23.2579 28.8307 23.2436C31.5875 23.1243 34.5527 21.5395 37.692 19.8615C41.1056 18.037 44.9499 15.9833 48.7745 15.7571C54.4495 21.2365 62.631 25.1667 69.9796 27.5417C69.8296 27.6499 69.6668 27.7561 69.4815 27.8559C68.7163 28.2683 66.6407 29.0948 63.9028 27.8673C60.4976 26.3408 57.0019 26.5309 54.5519 28.3759C52.7589 29.7258 50.8239 32.4612 51.1347 37.9284C51.1333 37.9284 51.1323 37.9282 51.1311 37.9282C41.2259 37.2907 31.6981 36.6773 24.5748 36.356C18.9883 28.1944 9.83483 24.4212 4.59498 23.282C4.70854 21.1576 4.93126 19.1196 5.36835 17.3798ZM4.48999 26.6431C8.76244 27.6738 15.4833 30.5171 20.2958 36.1906C18.8686 36.1472 17.6002 36.1233 16.5242 36.1233H4.80675C4.69559 36.1233 4.58562 36.1283 4.47625 36.1358L4.47605 30.0533C4.47545 28.9442 4.47505 27.7967 4.48999 26.6431ZM52.4591 49.9801H4.80695C3.7746 49.9801 3.30424 49.0847 3.30424 48.2523V41.1554C3.30424 40.323 3.7744 39.4273 4.80695 39.4273H16.5244C22.9839 39.4273 36.5529 40.3005 50.9185 41.2253C53.1175 41.3669 55.3272 41.509 57.5212 41.6486C57.9203 43.3059 57.7226 43.9291 57.6702 44.0514C57.5194 44.4016 56.7018 45.8424 52.4591 49.9801ZM83.3611 49.9801H57.1094C60.0441 46.8915 60.524 45.7796 60.7057 45.3563C61.0954 44.4498 61.1717 43.296 60.9356 41.8646C69.8837 42.4252 78.3137 42.9109 84.306 43.0858C84.3847 45.1808 84.0687 47.4899 83.3611 49.9801ZM98.6956 47.5764C98.6956 48.902 97.617 49.98 96.2918 49.98H86.7833C87.3959 47.5638 87.6746 45.2794 87.6156 43.1517C87.8869 43.1539 88.1515 43.1553 88.4053 43.1553H96.2918C97.6172 43.1553 98.6956 44.2337 98.6956 45.5591V47.5764Z" fill="url(#paint0_linear_51_1993)"/>
<defs>
<linearGradient id="paint0_linear_51_1993" x1="102" y1="26.9114" x2="6.39817e-07" y2="26.9114" gradientUnits="userSpaceOnUse">
<stop stop-color="#267ABE"/>
<stop offset="1" stop-color="#195697"/>
</linearGradient>
</defs>
</svg>
