<svg width="85" height="77" viewBox="0 0 85 77" fill="none" xmlns="http://www.w3.org/2000/svg">
<path d="M84.9084 59.2055L68.2777 7.48406C68.1114 6.94824 67.7048 6.52311 67.169 6.31991L52.497 0.813243H52.4785L52.3862 0.739271C52.3676 0.739271 52.3493 0.739271 52.3307 0.720735C52.1644 0.665299 51.9981 0.6284 51.8318 0.6284C51.7949 0.6284 51.7395 0.609863 51.7395 0.609863H33.2609C33.2609 0.609863 33.2054 0.6284 33.1685 0.6284C33.0022 0.6284 32.8359 0.665299 32.6696 0.720735C32.6511 0.720735 32.6327 0.720735 32.5956 0.739271L32.5217 0.813243H32.5031L17.8312 6.28284C17.2954 6.48604 16.8888 6.91116 16.7225 7.44698L0.091824 59.187C-0.222254 60.1479 0.29503 61.1827 1.25597 61.4967L12.3431 65.1924C13.304 65.5065 14.3573 64.9892 14.6899 64.0282C14.6899 64.0097 14.7085 63.9913 14.7085 63.9728L20.326 44.866V74.5426C20.326 75.559 21.1575 76.3906 22.1739 76.3906H62.8268C63.8432 76.3906 64.6747 75.559 64.6747 74.5426V44.8846L70.2922 63.973C70.588 64.9523 71.6042 65.5066 72.5836 65.2295C72.6022 65.2295 72.6205 65.2109 72.6391 65.2109L83.7262 61.5153C84.7052 61.2012 85.2224 60.1663 84.9084 59.2055ZM52.1644 6.24594L58.5581 15.208L54.1232 19.6428C53.5689 20.2157 53.4211 21.0656 53.7721 21.7863L55.084 24.4287L44.348 37.8626V25.0201L52.1644 6.24594ZM40.6522 72.6947H24.0215V32.042C24.0215 31.1182 23.3563 30.3421 22.4324 30.2127C21.5269 30.0833 20.6585 30.6376 20.3998 31.5246L11.6964 61.0903L4.15716 58.5772L19.9378 9.4243L28.2162 6.31991L22.5064 14.3212C21.9889 15.0604 22.0629 16.0582 22.7096 16.7049L27.3107 21.3061L26.0726 23.8007C25.7585 24.4474 25.8323 25.2235 26.2758 25.7778L40.6522 43.7575V72.6947ZM40.6522 37.8628L29.8977 24.4288L31.2096 21.7865C31.5791 21.0658 31.4313 20.2157 30.8584 19.643L26.4236 15.2081L32.8172 6.24611L40.6522 25.0203V37.8628ZM36.0327 4.32422H48.9677L42.5003 19.8462L36.0327 4.32422ZM73.3038 61.0903L64.6004 31.5062C64.3047 30.5269 63.2885 29.9726 62.309 30.2497C61.5329 30.49 60.9785 31.1922 60.9785 32.0237V72.6764H44.3478V43.7759L58.7242 25.7962C59.1677 25.2418 59.26 24.4657 58.9274 23.819L57.6709 21.3059L62.2721 16.7047C62.9188 16.058 62.9927 15.0602 62.4753 14.321L56.7654 6.31973L65.0439 9.44267L80.843 58.5955L73.3038 61.0903Z" fill="url(#paint0_linear_51_2027)"/>
<defs>
<linearGradient id="paint0_linear_51_2027" x1="85" y1="38.3726" x2="3.10508e-05" y2="38.3726" gradientUnits="userSpaceOnUse">
<stop stop-color="#267ABE"/>
<stop offset="1" stop-color="#195697"/>
</linearGradient>
</defs>
</svg>
