<svg width="70" height="70" viewBox="0 0 70 70" fill="none" xmlns="http://www.w3.org/2000/svg">
<path d="M64.1955 5.80426C60.4522 2.06145 55.4754 0 50.1818 0C44.8879 0 39.9107 2.06158 36.1669 5.80508L20.9874 20.9848C20.9869 20.9852 20.9863 20.9856 20.9859 20.9861C20.9855 20.9865 20.9851 20.987 20.9847 20.9874L5.80508 36.1673C-1.92226 43.8948 -1.9224 56.4683 5.80453 64.1959C9.54762 67.9387 14.5245 70 19.8179 70C25.1118 70 30.0891 67.9384 33.8327 64.1949L64.1948 33.8327C71.9221 26.1056 71.9225 13.532 64.1955 5.80426ZM31.8864 62.2486C28.6627 65.4721 24.3767 67.2474 19.8181 67.2474C15.2597 67.2474 10.9741 65.4724 7.75086 62.2495C1.09703 55.5953 1.09731 44.7679 7.75141 38.1136L21.9591 23.9057L46.0939 48.0405L31.8864 62.2486ZM62.2485 31.8864L48.0406 46.0943L23.9057 21.9594L38.1135 7.75154C41.3372 4.52799 45.6232 2.7527 50.1818 2.7527C54.7403 2.7527 59.0259 4.52772 62.2493 7.75072C68.903 14.4051 68.9027 25.2324 62.2485 31.8864Z" fill="url(#paint0_linear_51_1871)"/>
<defs>
<linearGradient id="paint0_linear_51_1871" x1="69.9905" y1="34.8822" x2="0.00945326" y2="34.8822" gradientUnits="userSpaceOnUse">
<stop stop-color="#267ABE"/>
<stop offset="1" stop-color="#195697"/>
</linearGradient>
</defs>
</svg>
