<svg width="74" height="74" viewBox="0 0 74 74" fill="none" xmlns="http://www.w3.org/2000/svg">
<g clip-path="url(#clip0_51_2088)">
<path d="M16.9898 4.74854C9.7034 4.74854 3.77545 10.6763 3.77545 17.9629C3.77545 24.075 7.94662 29.2303 13.5917 30.7337V43.4576C13.5917 45.3312 15.1161 46.8556 16.9897 46.8556C18.8632 46.8556 20.3876 45.3312 20.3876 43.4576V30.7337C26.0327 29.2303 30.2039 24.075 30.2039 17.9629C30.2041 10.6763 24.2762 4.74854 16.9898 4.74854ZM18.1225 43.4575C18.1225 44.0821 17.6145 44.5902 16.9898 44.5902C16.3651 44.5902 15.8571 44.0821 15.8571 43.4575V31.128C16.2306 31.1597 16.6081 31.1771 16.9898 31.1771C17.3715 31.1771 17.749 31.1599 18.1225 31.128V43.4575ZM16.9898 28.9117C10.9524 28.9117 6.04083 24.0001 6.04083 17.9627C6.04083 11.9255 10.9524 7.01377 16.9898 7.01377C23.0272 7.01377 27.9388 11.9254 27.9388 17.9627C27.9388 24.0001 23.0272 28.9117 16.9898 28.9117Z" fill="url(#paint0_linear_51_2088)"/>
<path d="M16.9898 8.14648C11.5771 8.14648 7.17352 12.5501 7.17352 17.9628C7.17352 23.3755 11.5771 27.779 16.9898 27.779C22.4025 27.779 26.8061 23.3755 26.8061 17.9628C26.8061 12.5501 22.4025 8.14648 16.9898 8.14648ZM16.9898 25.5138C12.8261 25.5138 9.43876 22.1264 9.43876 17.9628C9.43876 13.7991 12.8261 10.4117 16.9898 10.4117C21.1535 10.4117 24.5408 13.7991 24.5408 17.9628C24.5408 22.1264 21.1535 25.5138 16.9898 25.5138Z" fill="url(#paint1_linear_51_2088)"/>
<path d="M16.9898 13.8101C14.6999 13.8101 12.8367 15.6732 12.8367 17.9632C12.8367 20.2531 14.6999 22.1163 16.9898 22.1163C19.2798 22.1163 21.1429 20.2531 21.1429 17.9632C21.1429 15.6732 19.2798 13.8101 16.9898 13.8101ZM16.9898 19.8509C15.9489 19.8509 15.1021 19.0041 15.1021 17.9632C15.1021 16.9224 15.9489 16.0754 16.9898 16.0754C18.0309 16.0754 18.8775 16.9224 18.8775 17.9632C18.8775 19.0041 18.0309 19.8509 16.9898 19.8509Z" fill="url(#paint2_linear_51_2088)"/>
<path d="M16.9898 54.3003C14.0753 54.3003 11.7041 56.6715 11.7041 59.5859C11.7041 62.5006 14.0753 64.8716 16.9898 64.8716C19.9043 64.8716 22.2754 62.5004 22.2754 59.5859C22.2754 56.6715 19.9043 54.3003 16.9898 54.3003ZM16.9898 62.6065C15.3244 62.6065 13.9694 61.2515 13.9694 59.5861C13.9694 57.9207 15.3244 56.5657 16.9898 56.5657C18.6552 56.5657 20.0102 57.9205 20.0102 59.5861C20.0102 61.2515 18.6552 62.6065 16.9898 62.6065Z" fill="url(#paint3_linear_51_2088)"/>
<path d="M69.8469 30.8203H27.9388V34.8223H26.4286V29.7578H24.1632V59.8124C24.1632 63.7677 20.945 66.9859 16.9896 66.9859C13.0343 66.9859 9.81613 63.7677 9.81613 59.8124V29.7578H7.55103V32.3305H4.15311C1.86315 32.3305 0 34.1936 0 36.4834V56.1161C0 58.4061 1.86315 60.2692 4.15311 60.2692H7.56274C7.80194 65.2623 11.9386 69.2511 16.9899 69.2511C22.1945 69.2511 26.4287 65.0169 26.4287 59.8124V57.7774H27.9389V61.7794H69.847C72.137 61.7794 74.0001 59.9163 74.0001 57.6263V34.9732C74 32.6834 72.1368 30.8203 69.8469 30.8203ZM4.07752 57.9999C3.07172 57.9599 2.26524 57.1316 2.26524 56.1161V36.4834C2.26524 35.468 3.07172 34.6396 4.07752 34.5995V57.9999ZM7.55103 58.0038H6.3429V34.5957H7.55103V58.0038ZM27.9388 55.5121H26.4286V37.0876H27.9388V55.5121ZM32.4694 59.514H30.2041V33.0855H32.4694V59.514ZM71.7348 48.9427H53.9898C52.5326 48.9427 51.3469 47.757 51.3469 46.2998C51.3469 44.8427 52.5325 43.6569 53.9898 43.6569H71.7348V48.9427ZM71.7348 41.3917H53.9898C51.2833 41.3917 49.0817 43.5935 49.0817 46.2998C49.0817 49.0063 51.2834 51.208 53.9898 51.208H71.7348V57.6263C71.7348 58.6674 70.888 59.514 69.847 59.514H34.7348V33.0855H69.847C70.888 33.0855 71.7348 33.9323 71.7348 34.9732V41.3917Z" fill="url(#paint4_linear_51_2088)"/>
</g>
<defs>
<linearGradient id="paint0_linear_51_2088" x1="30.2039" y1="25.7312" x2="3.77545" y2="25.7312" gradientUnits="userSpaceOnUse">
<stop stop-color="#267ABE"/>
<stop offset="1" stop-color="#195697"/>
</linearGradient>
<linearGradient id="paint1_linear_51_2088" x1="26.8061" y1="17.9297" x2="7.17352" y2="17.9297" gradientUnits="userSpaceOnUse">
<stop stop-color="#267ABE"/>
<stop offset="1" stop-color="#195697"/>
</linearGradient>
<linearGradient id="paint2_linear_51_2088" x1="21.1429" y1="17.9492" x2="12.8367" y2="17.9492" gradientUnits="userSpaceOnUse">
<stop stop-color="#267ABE"/>
<stop offset="1" stop-color="#195697"/>
</linearGradient>
<linearGradient id="paint3_linear_51_2088" x1="22.2754" y1="59.5681" x2="11.7041" y2="59.5681" gradientUnits="userSpaceOnUse">
<stop stop-color="#267ABE"/>
<stop offset="1" stop-color="#195697"/>
</linearGradient>
<linearGradient id="paint4_linear_51_2088" x1="74.0001" y1="49.438" x2="4.64181e-07" y2="49.438" gradientUnits="userSpaceOnUse">
<stop stop-color="#267ABE"/>
<stop offset="1" stop-color="#195697"/>
</linearGradient>
<clipPath id="clip0_51_2088">
<rect width="74" height="74" fill="white"/>
</clipPath>
</defs>
</svg>
