<svg width="14" height="12" viewBox="0 0 14 12" fill="none" xmlns="http://www.w3.org/2000/svg">
<path d="M4.606 11.21C3.892 11.21 3.262 11.0583 2.716 10.755C2.17 10.447 1.743 10.02 1.435 9.474C1.13167 8.928 0.98 8.298 0.98 7.584V4.336C0.98 3.622 1.13167 2.992 1.435 2.446C1.743 1.9 2.17 1.47533 2.716 1.172C3.262 0.864 3.892 0.71 4.606 0.71C5.32 0.71 5.94767 0.864 6.489 1.172C7.035 1.47533 7.462 1.9 7.77 2.446C8.078 2.992 8.232 3.622 8.232 4.336V7.584C8.232 8.298 8.078 8.928 7.77 9.474C7.462 10.02 7.035 10.447 6.489 10.755C5.94767 11.0583 5.32 11.21 4.606 11.21ZM4.606 9.607C4.96067 9.607 5.28267 9.523 5.572 9.355C5.86133 9.18233 6.09 8.95367 6.258 8.669C6.426 8.37967 6.51 8.05767 6.51 7.703V4.21C6.51 3.85067 6.426 3.52867 6.258 3.244C6.09 2.95467 5.86133 2.726 5.572 2.558C5.28267 2.38533 4.96067 2.299 4.606 2.299C4.25133 2.299 3.92933 2.38533 3.64 2.558C3.35067 2.726 3.122 2.95467 2.954 3.244C2.786 3.52867 2.702 3.85067 2.702 4.21V7.703C2.702 8.05767 2.786 8.37967 2.954 8.669C3.122 8.95367 3.35067 9.18233 3.64 9.355C3.92933 9.523 4.25133 9.607 4.606 9.607ZM11.9448 11V2.761L10.0548 3.916V2.054L11.9448 0.92H13.6668V11H11.9448Z" fill="white"/>
</svg>
