<svg width="17" height="12" viewBox="0 0 17 12" fill="none" xmlns="http://www.w3.org/2000/svg">
<path d="M4.606 11.21C3.892 11.21 3.262 11.0583 2.716 10.755C2.17 10.447 1.743 10.02 1.435 9.474C1.13167 8.928 0.98 8.298 0.98 7.584V4.336C0.98 3.622 1.13167 2.992 1.435 2.446C1.743 1.9 2.17 1.47533 2.716 1.172C3.262 0.864 3.892 0.71 4.606 0.71C5.32 0.71 5.94767 0.864 6.489 1.172C7.035 1.47533 7.462 1.9 7.77 2.446C8.078 2.992 8.232 3.622 8.232 4.336V7.584C8.232 8.298 8.078 8.928 7.77 9.474C7.462 10.02 7.035 10.447 6.489 10.755C5.94767 11.0583 5.32 11.21 4.606 11.21ZM4.606 9.607C4.96067 9.607 5.28267 9.523 5.572 9.355C5.86133 9.18233 6.09 8.95367 6.258 8.669C6.426 8.37967 6.51 8.05767 6.51 7.703V4.21C6.51 3.85067 6.426 3.52867 6.258 3.244C6.09 2.95467 5.86133 2.726 5.572 2.558C5.28267 2.38533 4.96067 2.299 4.606 2.299C4.25133 2.299 3.92933 2.38533 3.64 2.558C3.35067 2.726 3.122 2.95467 2.954 3.244C2.786 3.52867 2.702 3.85067 2.702 4.21V7.703C2.702 8.05767 2.786 8.37967 2.954 8.669C3.122 8.95367 3.35067 9.18233 3.64 9.355C3.92933 9.523 4.25133 9.607 4.606 9.607ZM13.0788 11.189C12.5748 11.189 12.0988 11.091 11.6508 10.895C11.2028 10.699 10.8132 10.4213 10.4818 10.062C10.1552 9.70267 9.91951 9.278 9.77484 8.788L11.4058 8.347C11.5225 8.74833 11.7348 9.05867 12.0428 9.278C12.3555 9.49267 12.6985 9.59767 13.0718 9.593C13.4032 9.593 13.6995 9.516 13.9608 9.362C14.2222 9.208 14.4275 9.00033 14.5768 8.739C14.7262 8.473 14.8008 8.17667 14.8008 7.85C14.8008 7.35067 14.6398 6.933 14.3178 6.597C13.9958 6.261 13.5805 6.093 13.0718 6.093C12.9178 6.093 12.7662 6.114 12.6168 6.156C12.4722 6.198 12.3322 6.25633 12.1968 6.331L11.4268 5.001L14.8148 2.103L14.9618 2.509H10.1668V0.92H16.3478V2.516L13.6248 5.134L13.6108 4.637C14.2222 4.679 14.7425 4.84933 15.1718 5.148C15.6058 5.44667 15.9372 5.83167 16.1658 6.303C16.3992 6.77433 16.5158 7.29 16.5158 7.85C16.5158 8.48467 16.3595 9.054 16.0468 9.558C15.7388 10.062 15.3235 10.461 14.8008 10.755C14.2828 11.0443 13.7088 11.189 13.0788 11.189Z" fill="white"/>
</svg>
