<svg width="564" height="162" viewBox="0 0 564 162" fill="none" xmlns="http://www.w3.org/2000/svg">
<g filter="url(#filter0_d_49_51)">
<rect x="81" y="21" width="470" height="120" rx="16" fill="white"/>
<path d="M220.146 87.255C218.927 87.255 217.899 86.9858 217.06 86.4475C216.221 85.9035 215.587 85.1527 215.156 84.195C214.725 83.2373 214.51 82.1323 214.51 80.88C214.51 79.6277 214.725 78.5227 215.156 77.565C215.587 76.6073 216.221 75.8593 217.06 75.321C217.899 74.777 218.927 74.505 220.146 74.505C221.568 74.505 222.73 74.8705 223.631 75.6015C224.532 76.3268 225.149 77.3015 225.484 78.5255L224.209 78.857C223.948 77.888 223.48 77.1202 222.806 76.5535C222.132 75.9868 221.245 75.7035 220.146 75.7035C219.188 75.7035 218.392 75.9217 217.757 76.358C217.122 76.7943 216.644 77.4035 216.321 78.1855C216.003 78.9618 215.839 79.86 215.828 80.88C215.822 81.9 215.978 82.7982 216.295 83.5745C216.618 84.3508 217.1 84.96 217.74 85.402C218.386 85.8383 219.188 86.0565 220.146 86.0565C221.245 86.0565 222.132 85.7732 222.806 85.2065C223.48 84.6342 223.948 83.8663 224.209 82.903L225.484 83.2345C225.149 84.4585 224.532 85.436 223.631 86.167C222.73 86.8923 221.568 87.255 220.146 87.255ZM231.243 87.255C230.348 87.255 229.572 87.0567 228.914 86.66C228.263 86.2633 227.756 85.7052 227.393 84.9855C227.03 84.2658 226.849 83.4215 226.849 82.4525C226.849 81.4495 227.027 80.5825 227.384 79.8515C227.741 79.1205 228.243 78.5567 228.889 78.16C229.541 77.7633 230.308 77.565 231.192 77.565C232.099 77.565 232.873 77.7747 233.513 78.194C234.153 78.6077 234.638 79.2027 234.966 79.979C235.295 80.7553 235.445 81.6818 235.417 82.7585H234.142V82.3165C234.119 81.1265 233.861 80.2283 233.368 79.622C232.881 79.0157 232.167 78.7125 231.226 78.7125C230.24 78.7125 229.484 79.0327 228.957 79.673C228.436 80.3133 228.175 81.2257 228.175 82.41C228.175 83.566 228.436 84.4642 228.957 85.1045C229.484 85.7392 230.229 86.0565 231.192 86.0565C231.85 86.0565 232.422 85.9063 232.909 85.606C233.402 85.3 233.791 84.8608 234.074 84.2885L235.238 84.739C234.876 85.538 234.34 86.1585 233.632 86.6005C232.929 87.0368 232.133 87.255 231.243 87.255ZM227.733 82.7585V81.713H234.745V82.7585H227.733ZM241.426 87.255C240.581 87.255 239.867 87.0425 239.284 86.6175C238.7 86.1868 238.258 85.606 237.958 84.875C237.657 84.1383 237.507 83.3138 237.507 82.4015C237.507 81.4722 237.657 80.6448 237.958 79.9195C238.264 79.1885 238.711 78.6133 239.301 78.194C239.89 77.7747 240.615 77.565 241.477 77.565C242.315 77.565 243.035 77.7775 243.636 78.2025C244.236 78.6275 244.695 79.2055 245.013 79.9365C245.336 80.6675 245.497 81.4892 245.497 82.4015C245.497 83.3195 245.336 84.144 245.013 84.875C244.69 85.606 244.225 86.1868 243.619 86.6175C243.012 87.0425 242.281 87.255 241.426 87.255ZM237.295 91.08V77.82H238.417V84.7305H238.553V91.08H237.295ZM241.298 86.0905C241.939 86.0905 242.471 85.929 242.896 85.606C243.321 85.283 243.639 84.8438 243.848 84.2885C244.064 83.7275 244.171 83.0985 244.171 82.4015C244.171 81.7102 244.066 81.0868 243.857 80.5315C243.647 79.9762 243.327 79.537 242.896 79.214C242.471 78.891 241.93 78.7295 241.273 78.7295C240.632 78.7295 240.1 78.8853 239.675 79.197C239.255 79.5087 238.941 79.9422 238.731 80.4975C238.522 81.0472 238.417 81.6818 238.417 82.4015C238.417 83.1098 238.522 83.7445 238.731 84.3055C238.941 84.8608 239.258 85.2972 239.683 85.6145C240.108 85.9318 240.647 86.0905 241.298 86.0905ZM254.657 77.82V87H253.441V79.8515L248.409 87H247.355V77.82H248.571V84.909L253.611 77.82H254.657ZM259.669 87.255C258.978 87.255 258.397 87.1303 257.927 86.881C257.462 86.6317 257.113 86.3002 256.881 85.8865C256.649 85.4728 256.533 85.0223 256.533 84.535C256.533 84.0363 256.632 83.6113 256.83 83.26C257.034 82.903 257.309 82.6112 257.655 82.3845C258.006 82.1578 258.411 81.985 258.87 81.866C259.335 81.7527 259.848 81.6535 260.409 81.5685C260.975 81.4778 261.528 81.4013 262.066 81.339C262.61 81.271 263.086 81.2058 263.494 81.1435L263.052 81.4155C263.069 80.5088 262.893 79.8373 262.525 79.401C262.157 78.9647 261.516 78.7465 260.604 78.7465C259.975 78.7465 259.442 78.8882 259.006 79.1715C258.575 79.4548 258.272 79.9025 258.097 80.5145L256.881 80.1575C257.091 79.3358 257.513 78.6983 258.148 78.245C258.782 77.7917 259.607 77.565 260.621 77.565C261.46 77.565 262.171 77.7237 262.755 78.041C263.344 78.3527 263.76 78.806 264.004 79.401C264.117 79.6673 264.191 79.9648 264.225 80.2935C264.259 80.6222 264.276 80.9565 264.276 81.2965V87H263.163V84.6965L263.486 84.8325C263.174 85.6202 262.689 86.2208 262.032 86.6345C261.375 87.0482 260.587 87.255 259.669 87.255ZM259.814 86.1755C260.397 86.1755 260.907 86.0707 261.344 85.861C261.78 85.6513 262.131 85.3652 262.398 85.0025C262.664 84.6342 262.837 84.2205 262.916 83.7615C262.984 83.4668 263.021 83.1438 263.027 82.7925C263.032 82.4355 263.035 82.1692 263.035 81.9935L263.511 82.24C263.086 82.2967 262.624 82.3533 262.126 82.41C261.633 82.4667 261.145 82.5318 260.664 82.6055C260.188 82.6792 259.757 82.767 259.372 82.869C259.111 82.9427 258.859 83.0475 258.615 83.1835C258.371 83.3138 258.17 83.4895 258.012 83.7105C257.859 83.9315 257.782 84.2063 257.782 84.535C257.782 84.8013 257.847 85.0592 257.978 85.3085C258.114 85.5578 258.329 85.7647 258.624 85.929C258.924 86.0933 259.321 86.1755 259.814 86.1755ZM265.639 87V85.9035C265.979 85.9658 266.237 85.9517 266.412 85.861C266.594 85.7647 266.727 85.606 266.812 85.385C266.897 85.1583 266.968 84.8778 267.024 84.5435C267.115 83.9882 267.197 83.3762 267.271 82.7075C267.344 82.0388 267.41 81.3022 267.466 80.4975C267.529 79.6872 267.591 78.7947 267.653 77.82H273.892V87H272.651V79.0185H268.809C268.77 79.6192 268.724 80.217 268.673 80.812C268.622 81.407 268.568 81.9793 268.512 82.529C268.461 83.073 268.404 83.5745 268.342 84.0335C268.279 84.4925 268.214 84.8892 268.146 85.2235C268.044 85.7278 267.908 86.1302 267.738 86.4305C267.574 86.7308 267.327 86.9292 266.999 87.0255C266.67 87.1218 266.217 87.1133 265.639 87ZM283.56 77.82V87H282.345V79.8515L277.313 87H276.259V77.82H277.474V84.909L282.515 77.82H283.56ZM289.252 87.255C288.329 87.255 287.521 87.0538 286.83 86.6515C286.144 86.2435 285.603 85.6797 285.206 84.96L286.209 84.3225C286.544 84.8892 286.96 85.3198 287.459 85.6145C287.958 85.9092 288.53 86.0565 289.176 86.0565C289.85 86.0565 290.391 85.9007 290.799 85.589C291.207 85.2773 291.411 84.8495 291.411 84.3055C291.411 83.9315 291.324 83.634 291.148 83.413C290.978 83.192 290.717 83.0333 290.366 82.937C290.02 82.8407 289.587 82.7925 289.065 82.7925H287.977V81.7215H289.048C289.683 81.7215 290.193 81.6082 290.578 81.3815C290.969 81.1492 291.165 80.7865 291.165 80.2935C291.165 79.7722 290.969 79.3868 290.578 79.1375C290.193 78.8825 289.731 78.755 289.193 78.755C288.649 78.755 288.133 78.8683 287.646 79.095C287.164 79.316 286.759 79.6022 286.43 79.9535L285.631 79.112C286.09 78.6077 286.626 78.2252 287.238 77.9645C287.856 77.6982 288.538 77.565 289.286 77.565C289.876 77.565 290.408 77.6698 290.884 77.8795C291.366 78.0835 291.746 78.3838 292.023 78.7805C292.307 79.1772 292.448 79.6532 292.448 80.2085C292.448 80.7298 292.321 81.1803 292.066 81.56C291.817 81.9397 291.462 82.2542 291.003 82.5035L290.935 82.036C291.332 82.1097 291.661 82.2683 291.921 82.512C292.182 82.7557 292.375 83.0475 292.499 83.3875C292.624 83.7275 292.686 84.0732 292.686 84.4245C292.686 85.0082 292.533 85.5125 292.227 85.9375C291.927 86.3568 291.516 86.6827 290.995 86.915C290.479 87.1417 289.898 87.255 289.252 87.255ZM297.189 87.255C296.497 87.255 295.916 87.1303 295.446 86.881C294.981 86.6317 294.633 86.3002 294.401 85.8865C294.168 85.4728 294.052 85.0223 294.052 84.535C294.052 84.0363 294.151 83.6113 294.35 83.26C294.554 82.903 294.828 82.6112 295.174 82.3845C295.525 82.1578 295.931 81.985 296.39 81.866C296.854 81.7527 297.367 81.6535 297.928 81.5685C298.495 81.4778 299.047 81.4013 299.586 81.339C300.13 81.271 300.606 81.2058 301.014 81.1435L300.572 81.4155C300.589 80.5088 300.413 79.8373 300.045 79.401C299.676 78.9647 299.036 78.7465 298.124 78.7465C297.495 78.7465 296.962 78.8882 296.526 79.1715C296.095 79.4548 295.792 79.9025 295.616 80.5145L294.401 80.1575C294.61 79.3358 295.032 78.6983 295.667 78.245C296.302 77.7917 297.126 77.565 298.141 77.565C298.979 77.565 299.69 77.7237 300.274 78.041C300.863 78.3527 301.28 78.806 301.524 79.401C301.637 79.6673 301.711 79.9648 301.745 80.2935C301.779 80.6222 301.796 80.9565 301.796 81.2965V87H300.682V84.6965L301.005 84.8325C300.693 85.6202 300.209 86.2208 299.552 86.6345C298.894 87.0482 298.107 87.255 297.189 87.255ZM297.333 86.1755C297.917 86.1755 298.427 86.0707 298.863 85.861C299.299 85.6513 299.651 85.3652 299.917 85.0025C300.183 84.6342 300.356 84.2205 300.436 83.7615C300.504 83.4668 300.54 83.1438 300.546 82.7925C300.552 82.4355 300.555 82.1692 300.555 81.9935L301.031 82.24C300.606 82.2967 300.144 82.3533 299.645 82.41C299.152 82.4667 298.665 82.5318 298.183 82.6055C297.707 82.6792 297.276 82.767 296.891 82.869C296.63 82.9427 296.378 83.0475 296.135 83.1835C295.891 83.3138 295.69 83.4895 295.531 83.7105C295.378 83.9315 295.302 84.2063 295.302 84.535C295.302 84.8013 295.367 85.0592 295.497 85.3085C295.633 85.5578 295.848 85.7647 296.143 85.929C296.443 86.0933 296.84 86.1755 297.333 86.1755ZM311.896 88.5895V87H304V77.82H305.249V85.8015H310.052V77.82H311.301V85.844H313.146V88.5895H311.896ZM321.794 77.82V87H320.578V79.8515L315.546 87H314.492V77.82H315.708V84.909L320.748 77.82H321.794ZM329.934 87V83.5405H327.792C327.542 83.5405 327.285 83.532 327.018 83.515C326.758 83.4923 326.514 83.4612 326.287 83.4215C325.641 83.2968 325.092 83.0135 324.638 82.5715C324.191 82.1238 323.967 81.5062 323.967 80.7185C323.967 79.9478 324.176 79.3302 324.596 78.8655C325.015 78.3952 325.522 78.0892 326.117 77.9475C326.389 77.8852 326.664 77.8483 326.942 77.837C327.225 77.8257 327.469 77.82 327.673 77.82H331.183L331.192 87H329.934ZM323.669 87L326.228 83.1495H327.613L325.038 87H323.669ZM327.724 82.4695H329.934V78.891H327.724C327.588 78.891 327.398 78.8967 327.154 78.908C326.911 78.9193 326.681 78.9562 326.466 79.0185C326.279 79.0752 326.092 79.1743 325.905 79.316C325.723 79.452 325.57 79.6362 325.446 79.8685C325.321 80.0952 325.259 80.3728 325.259 80.7015C325.259 81.1605 325.383 81.5288 325.633 81.8065C325.888 82.0785 326.205 82.2655 326.585 82.3675C326.789 82.4128 326.993 82.4412 327.197 82.4525C327.401 82.4638 327.576 82.4695 327.724 82.4695ZM338.288 91.08L340.065 86.2605L340.09 87.6885L336.07 77.82H337.396L340.694 86.0735H340.15L343.193 77.82H344.468L339.538 91.08H338.288ZM345.935 87V77.82H353.237V87H351.987V79.0185H347.185V87H345.935ZM358.249 87.255C357.558 87.255 356.977 87.1303 356.507 86.881C356.042 86.6317 355.693 86.3002 355.461 85.8865C355.229 85.4728 355.113 85.0223 355.113 84.535C355.113 84.0363 355.212 83.6113 355.41 83.26C355.614 82.903 355.889 82.6112 356.235 82.3845C356.586 82.1578 356.991 81.985 357.45 81.866C357.915 81.7527 358.428 81.6535 358.989 81.5685C359.555 81.4778 360.108 81.4013 360.646 81.339C361.19 81.271 361.666 81.2058 362.074 81.1435L361.632 81.4155C361.649 80.5088 361.473 79.8373 361.105 79.401C360.737 78.9647 360.096 78.7465 359.184 78.7465C358.555 78.7465 358.022 78.8882 357.586 79.1715C357.155 79.4548 356.852 79.9025 356.677 80.5145L355.461 80.1575C355.671 79.3358 356.093 78.6983 356.728 78.245C357.362 77.7917 358.187 77.565 359.201 77.565C360.04 77.565 360.751 77.7237 361.335 78.041C361.924 78.3527 362.34 78.806 362.584 79.401C362.697 79.6673 362.771 79.9648 362.805 80.2935C362.839 80.6222 362.856 80.9565 362.856 81.2965V87H361.743V84.6965L362.066 84.8325C361.754 85.6202 361.269 86.2208 360.612 86.6345C359.955 87.0482 359.167 87.255 358.249 87.255ZM358.394 86.1755C358.977 86.1755 359.487 86.0707 359.924 85.861C360.36 85.6513 360.711 85.3652 360.978 85.0025C361.244 84.6342 361.417 84.2205 361.496 83.7615C361.564 83.4668 361.601 83.1438 361.607 82.7925C361.612 82.4355 361.615 82.1692 361.615 81.9935L362.091 82.24C361.666 82.2967 361.204 82.3533 360.706 82.41C360.213 82.4667 359.725 82.5318 359.244 82.6055C358.768 82.6792 358.337 82.767 357.952 82.869C357.691 82.9427 357.439 83.0475 357.195 83.1835C356.951 83.3138 356.75 83.4895 356.592 83.7105C356.439 83.9315 356.362 84.2063 356.362 84.535C356.362 84.8013 356.427 85.0592 356.558 85.3085C356.694 85.5578 356.909 85.7647 357.204 85.929C357.504 86.0933 357.901 86.1755 358.394 86.1755ZM365.06 87L365.069 77.82H366.327V82.24L370.424 77.82H372.09L367.789 82.41L372.651 87H370.832L366.327 82.58V87H365.06ZM377.17 87.255C376.258 87.255 375.478 87.0482 374.832 86.6345C374.186 86.2208 373.691 85.6485 373.345 84.9175C372.999 84.1865 372.826 83.3478 372.826 82.4015C372.826 81.4382 373.002 80.5938 373.353 79.8685C373.705 79.1432 374.203 78.5793 374.849 78.177C375.501 77.769 376.275 77.565 377.17 77.565C378.088 77.565 378.87 77.7718 379.516 78.1855C380.168 78.5935 380.663 79.163 381.003 79.894C381.349 80.6193 381.522 81.4552 381.522 82.4015C381.522 83.3648 381.349 84.212 381.003 84.943C380.658 85.6683 380.159 86.235 379.507 86.643C378.856 87.051 378.077 87.255 377.17 87.255ZM377.17 86.0565C378.19 86.0565 378.949 85.7193 379.448 85.045C379.947 84.365 380.196 83.4838 380.196 82.4015C380.196 81.2908 379.944 80.4068 379.439 79.7495C378.941 79.0922 378.184 78.7635 377.17 78.7635C376.484 78.7635 375.918 78.9193 375.47 79.231C375.028 79.537 374.696 79.9648 374.475 80.5145C374.26 81.0585 374.152 81.6875 374.152 82.4015C374.152 83.5065 374.407 84.3933 374.917 85.062C375.427 85.725 376.178 86.0565 377.17 86.0565ZM383.389 87V77.82H387.171C387.364 77.82 387.596 77.8313 387.868 77.854C388.146 77.8767 388.404 77.9192 388.642 77.9815C389.157 78.1175 389.571 78.3952 389.883 78.8145C390.2 79.2338 390.359 79.7382 390.359 80.3275C390.359 80.6562 390.308 80.9508 390.206 81.2115C390.109 81.4665 389.97 81.6875 389.789 81.8745C389.704 81.9708 389.611 82.0558 389.509 82.1295C389.407 82.1975 389.307 82.2542 389.211 82.2995C389.392 82.3335 389.588 82.4128 389.798 82.5375C390.126 82.7302 390.376 82.9908 390.546 83.3195C390.716 83.6425 390.801 84.0363 390.801 84.501C390.801 85.13 390.65 85.6428 390.35 86.0395C390.05 86.4362 389.647 86.7082 389.143 86.8555C388.916 86.9178 388.67 86.9575 388.404 86.9745C388.143 86.9915 387.896 87 387.664 87H383.389ZM384.647 85.9375H387.605C387.724 85.9375 387.874 85.929 388.055 85.912C388.236 85.8893 388.398 85.861 388.54 85.827C388.874 85.742 389.118 85.572 389.271 85.317C389.429 85.0563 389.509 84.773 389.509 84.467C389.509 84.0647 389.39 83.736 389.152 83.481C388.919 83.2203 388.608 83.0617 388.217 83.005C388.086 82.9767 387.95 82.9597 387.809 82.954C387.667 82.9483 387.539 82.9455 387.426 82.9455H384.647V85.9375ZM384.647 81.8745H387.214C387.361 81.8745 387.525 81.866 387.707 81.849C387.894 81.8263 388.055 81.7895 388.191 81.7385C388.486 81.6365 388.701 81.4608 388.837 81.2115C388.979 80.9622 389.05 80.6902 389.05 80.3955C389.05 80.0725 388.973 79.7892 388.82 79.5455C388.673 79.3018 388.449 79.1318 388.149 79.0355C387.945 78.9618 387.724 78.9193 387.486 78.908C387.253 78.8967 387.106 78.891 387.044 78.891H384.647V81.8745ZM392.486 87L392.495 77.82H393.753V82.24L397.85 77.82H399.516L395.215 82.41L400.077 87H398.258L393.753 82.58V87H392.486ZM408.221 77.82V87H407.006V79.8515L401.974 87H400.92V77.82H402.135V84.909L407.176 77.82H408.221Z" fill="#6B7DA1"/>
</g>
<circle opacity="0.5" cx="81" cy="81" r="81" fill="url(#paint0_linear_49_51)"/>
<circle opacity="0.4" cx="81" cy="81" r="67" fill="url(#paint1_linear_49_51)"/>
<circle cx="80.5" cy="80.5" r="49.5" fill="url(#paint2_linear_49_51)"/>
<path d="M69.98 94.54C68.384 94.54 66.944 94.168 65.66 93.424C64.388 92.68 63.38 91.672 62.636 90.4C61.892 89.116 61.52 87.676 61.52 86.08V76C61.52 74.404 61.892 72.97 62.636 71.698C63.38 70.414 64.388 69.4 65.66 68.656C66.944 67.912 68.384 67.54 69.98 67.54C71.576 67.54 73.01 67.912 74.282 68.656C75.566 69.4 76.58 70.414 77.324 71.698C78.068 72.97 78.44 74.404 78.44 76V86.08C78.44 87.676 78.068 89.116 77.324 90.4C76.58 91.672 75.566 92.68 74.282 93.424C73.01 94.168 71.576 94.54 69.98 94.54ZM69.98 91.984C71.048 91.984 72.02 91.726 72.896 91.21C73.772 90.682 74.468 89.98 74.984 89.104C75.5 88.228 75.758 87.262 75.758 86.206V75.874C75.758 74.806 75.5 73.834 74.984 72.958C74.468 72.082 73.772 71.386 72.896 70.87C72.02 70.342 71.048 70.078 69.98 70.078C68.912 70.078 67.94 70.342 67.064 70.87C66.188 71.386 65.492 72.082 64.976 72.958C64.46 73.834 64.202 74.806 64.202 75.874V86.206C64.202 87.262 64.46 88.228 64.976 89.104C65.492 89.98 66.188 90.682 67.064 91.21C67.94 91.726 68.912 91.984 69.98 91.984ZM90.4587 94.522C89.1747 94.522 87.9927 94.294 86.9127 93.838C85.8327 93.382 84.9027 92.734 84.1227 91.894C83.3427 91.042 82.7727 90.028 82.4127 88.852L84.9327 88.096C85.3647 89.38 86.0727 90.352 87.0567 91.012C88.0527 91.672 89.1747 91.99 90.4227 91.966C91.5747 91.942 92.5647 91.684 93.3927 91.192C94.2327 90.7 94.8747 90.016 95.3187 89.14C95.7627 88.264 95.9847 87.25 95.9847 86.098C95.9847 84.334 95.4687 82.918 94.4367 81.85C93.4167 80.77 92.0667 80.23 90.3867 80.23C89.9187 80.23 89.4267 80.296 88.9107 80.428C88.3947 80.548 87.9147 80.722 87.4707 80.95L86.1387 78.844L96.2187 69.538L96.6507 70.618H83.4387V68.08H98.4147V70.654L89.6307 79.042L89.5947 77.998C91.3947 77.77 92.9787 77.974 94.3467 78.61C95.7147 79.246 96.7827 80.218 97.5507 81.526C98.3307 82.822 98.7207 84.346 98.7207 86.098C98.7207 87.754 98.3607 89.218 97.6407 90.49C96.9327 91.75 95.9547 92.74 94.7067 93.46C93.4587 94.168 92.0427 94.522 90.4587 94.522Z" fill="white"/>
<defs>
<filter id="filter0_d_49_51" x="74" y="11" width="490" height="140" filterUnits="userSpaceOnUse" color-interpolation-filters="sRGB">
<feFlood flood-opacity="0" result="BackgroundImageFix"/>
<feColorMatrix in="SourceAlpha" type="matrix" values="0 0 0 0 0 0 0 0 0 0 0 0 0 0 0 0 0 0 127 0" result="hardAlpha"/>
<feOffset dx="3"/>
<feGaussianBlur stdDeviation="5"/>
<feComposite in2="hardAlpha" operator="out"/>
<feColorMatrix type="matrix" values="0 0 0 0 0.420833 0 0 0 0 0.420833 0 0 0 0 0.420833 0 0 0 0.25 0"/>
<feBlend mode="normal" in2="BackgroundImageFix" result="effect1_dropShadow_49_51"/>
<feBlend mode="normal" in="SourceGraphic" in2="effect1_dropShadow_49_51" result="shape"/>
</filter>
<linearGradient id="paint0_linear_49_51" x1="162" y1="80.7273" x2="1.01618e-06" y2="80.7273" gradientUnits="userSpaceOnUse">
<stop stop-color="#267ABE"/>
<stop offset="1" stop-color="#195697"/>
</linearGradient>
<linearGradient id="paint1_linear_49_51" x1="148" y1="80.7744" x2="14" y2="80.7744" gradientUnits="userSpaceOnUse">
<stop stop-color="#267ABE"/>
<stop offset="1" stop-color="#195697"/>
</linearGradient>
<linearGradient id="paint2_linear_49_51" x1="130" y1="80.3333" x2="31" y2="80.3333" gradientUnits="userSpaceOnUse">
<stop stop-color="#267ABE"/>
<stop offset="1" stop-color="#195697"/>
</linearGradient>
</defs>
</svg>
