<svg width="561" height="156" viewBox="0 0 561 156" fill="none" xmlns="http://www.w3.org/2000/svg">
<g filter="url(#filter0_d_49_58)">
<rect x="78" y="18" width="470" height="120" rx="16" fill="white"/>
<path d="M211.34 84L215.556 71.76H217.214L221.43 84H220.129L216.126 72.457H216.619L212.641 84H211.34ZM213.219 81.0335V79.8605H219.542V81.0335H213.219ZM222.964 84V74.82H229.254V76.0185H224.214V84H222.964ZM234.989 84.255C234.145 84.255 233.431 84.0425 232.847 83.6175C232.264 83.1868 231.822 82.606 231.521 81.875C231.221 81.1383 231.071 80.3138 231.071 79.4015C231.071 78.4722 231.221 77.6448 231.521 76.9195C231.827 76.1885 232.275 75.6133 232.864 75.194C233.454 74.7747 234.179 74.565 235.04 74.565C235.879 74.565 236.599 74.7775 237.199 75.2025C237.8 75.6275 238.259 76.2055 238.576 76.9365C238.899 77.6675 239.061 78.4892 239.061 79.4015C239.061 80.3195 238.899 81.144 238.576 81.875C238.253 82.606 237.789 83.1868 237.182 83.6175C236.576 84.0425 235.845 84.255 234.989 84.255ZM230.858 88.08V74.82H231.98V81.7305H232.116V88.08H230.858ZM234.862 83.0905C235.502 83.0905 236.035 82.929 236.46 82.606C236.885 82.283 237.202 81.8438 237.412 81.2885C237.627 80.7275 237.735 80.0985 237.735 79.4015C237.735 78.7102 237.63 78.0868 237.42 77.5315C237.211 76.9762 236.89 76.537 236.46 76.214C236.035 75.891 235.494 75.7295 234.836 75.7295C234.196 75.7295 233.663 75.8853 233.238 76.197C232.819 76.5087 232.504 76.9422 232.295 77.4975C232.085 78.0472 231.98 78.6818 231.98 79.4015C231.98 80.1098 232.085 80.7445 232.295 81.3055C232.504 81.8608 232.822 82.2972 233.247 82.6145C233.672 82.9318 234.21 83.0905 234.862 83.0905ZM244.812 84.255C243.916 84.255 243.14 84.0567 242.483 83.66C241.831 83.2633 241.324 82.7052 240.961 81.9855C240.599 81.2658 240.417 80.4215 240.417 79.4525C240.417 78.4495 240.596 77.5825 240.953 76.8515C241.31 76.1205 241.811 75.5567 242.457 75.16C243.109 74.7633 243.877 74.565 244.761 74.565C245.667 74.565 246.441 74.7747 247.081 75.194C247.722 75.6077 248.206 76.2027 248.535 76.979C248.863 77.7553 249.014 78.6818 248.985 79.7585H247.71V79.3165C247.688 78.1265 247.43 77.2283 246.937 76.622C246.449 76.0157 245.735 75.7125 244.795 75.7125C243.809 75.7125 243.052 76.0327 242.525 76.673C242.004 77.3133 241.743 78.2257 241.743 79.41C241.743 80.566 242.004 81.4642 242.525 82.1045C243.052 82.7392 243.797 83.0565 244.761 83.0565C245.418 83.0565 245.99 82.9063 246.478 82.606C246.971 82.3 247.359 81.8608 247.642 81.2885L248.807 81.739C248.444 82.538 247.909 83.1585 247.2 83.6005C246.498 84.0368 245.701 84.255 244.812 84.255ZM241.301 79.7585V78.713H248.314V79.7585H241.301ZM250.872 84V74.82H257.162V76.0185H252.121V84H250.872ZM261.068 84.255C260.377 84.255 259.796 84.1303 259.326 83.881C258.861 83.6317 258.513 83.3002 258.28 82.8865C258.048 82.4728 257.932 82.0223 257.932 81.535C257.932 81.0363 258.031 80.6113 258.229 80.26C258.433 79.903 258.708 79.6112 259.054 79.3845C259.405 79.1578 259.81 78.985 260.269 78.866C260.734 78.7527 261.247 78.6535 261.808 78.5685C262.375 78.4778 262.927 78.4013 263.465 78.339C264.009 78.271 264.485 78.2058 264.893 78.1435L264.451 78.4155C264.468 77.5088 264.293 76.8373 263.924 76.401C263.556 75.9647 262.916 75.7465 262.003 75.7465C261.374 75.7465 260.842 75.8882 260.405 76.1715C259.975 76.4548 259.672 76.9025 259.496 77.5145L258.28 77.1575C258.49 76.3358 258.912 75.6983 259.547 75.245C260.182 74.7917 261.006 74.565 262.02 74.565C262.859 74.565 263.57 74.7237 264.154 75.041C264.743 75.3527 265.16 75.806 265.403 76.401C265.517 76.6673 265.59 76.9648 265.624 77.2935C265.658 77.6222 265.675 77.9565 265.675 78.2965V84H264.562V81.6965L264.885 81.8325C264.573 82.6202 264.089 83.2208 263.431 83.6345C262.774 84.0482 261.986 84.255 261.068 84.255ZM261.213 83.1755C261.797 83.1755 262.307 83.0707 262.743 82.861C263.179 82.6513 263.531 82.3652 263.797 82.0025C264.063 81.6342 264.236 81.2205 264.315 80.7615C264.383 80.4668 264.42 80.1438 264.426 79.7925C264.432 79.4355 264.434 79.1692 264.434 78.9935L264.91 79.24C264.485 79.2967 264.024 79.3533 263.525 79.41C263.032 79.4667 262.545 79.5318 262.063 79.6055C261.587 79.6792 261.156 79.767 260.771 79.869C260.51 79.9427 260.258 80.0475 260.014 80.1835C259.771 80.3138 259.57 80.4895 259.411 80.7105C259.258 80.9315 259.181 81.2063 259.181 81.535C259.181 81.8013 259.247 82.0592 259.377 82.3085C259.513 82.5578 259.728 82.7647 260.023 82.929C260.323 83.0933 260.72 83.1755 261.213 83.1755ZM275.776 85.5895V84H267.88V74.82H269.129V82.8015H273.932V74.82H275.181V82.844H277.026V85.5895H275.776ZM285.673 74.82V84H284.458V76.8515L279.426 84H278.372V74.82H279.587V81.909L284.628 74.82H285.673ZM293.814 84V80.5405H291.672C291.422 80.5405 291.164 80.532 290.898 80.515C290.637 80.4923 290.394 80.4612 290.167 80.4215C289.521 80.2968 288.971 80.0135 288.518 79.5715C288.07 79.1238 287.847 78.5062 287.847 77.7185C287.847 76.9478 288.056 76.3302 288.476 75.8655C288.895 75.3952 289.402 75.0892 289.997 74.9475C290.269 74.8852 290.544 74.8483 290.822 74.837C291.105 74.8257 291.349 74.82 291.553 74.82H295.063L295.072 84H293.814ZM287.549 84L290.108 80.1495H291.493L288.918 84H287.549ZM291.604 79.4695H293.814V75.891H291.604C291.468 75.891 291.278 75.8967 291.034 75.908C290.79 75.9193 290.561 75.9562 290.346 76.0185C290.159 76.0752 289.972 76.1743 289.785 76.316C289.603 76.452 289.45 76.6362 289.326 76.8685C289.201 77.0952 289.139 77.3728 289.139 77.7015C289.139 78.1605 289.263 78.5288 289.513 78.8065C289.768 79.0785 290.085 79.2655 290.465 79.3675C290.669 79.4128 290.873 79.4412 291.077 79.4525C291.281 79.4638 291.456 79.4695 291.604 79.4695Z" fill="#6B7DA1"/>
</g>
<circle opacity="0.5" cx="78" cy="78" r="78" fill="url(#paint0_linear_49_58)"/>
<circle opacity="0.4" cx="78" cy="78" r="64" fill="url(#paint1_linear_49_58)"/>
<circle cx="78" cy="78" r="48" fill="url(#paint2_linear_49_58)"/>
<path d="M66.98 92.54C65.384 92.54 63.944 92.168 62.66 91.424C61.388 90.68 60.38 89.672 59.636 88.4C58.892 87.116 58.52 85.676 58.52 84.08V74C58.52 72.404 58.892 70.97 59.636 69.698C60.38 68.414 61.388 67.4 62.66 66.656C63.944 65.912 65.384 65.54 66.98 65.54C68.576 65.54 70.01 65.912 71.282 66.656C72.566 67.4 73.58 68.414 74.324 69.698C75.068 70.97 75.44 72.404 75.44 74V84.08C75.44 85.676 75.068 87.116 74.324 88.4C73.58 89.672 72.566 90.68 71.282 91.424C70.01 92.168 68.576 92.54 66.98 92.54ZM66.98 89.984C68.048 89.984 69.02 89.726 69.896 89.21C70.772 88.682 71.468 87.98 71.984 87.104C72.5 86.228 72.758 85.262 72.758 84.206V73.874C72.758 72.806 72.5 71.834 71.984 70.958C71.468 70.082 70.772 69.386 69.896 68.87C69.02 68.342 68.048 68.078 66.98 68.078C65.912 68.078 64.94 68.342 64.064 68.87C63.188 69.386 62.492 70.082 61.976 70.958C61.46 71.834 61.202 72.806 61.202 73.874V84.206C61.202 85.262 61.46 86.228 61.976 87.104C62.492 87.98 63.188 88.682 64.064 89.21C64.94 89.726 65.912 89.984 66.98 89.984ZM91.9047 92V86.978H79.7727V84.458L88.4487 66.08H91.4187L82.7427 84.458H91.9047V76.898H94.5687V84.458H97.3947V86.978H94.5687V92H91.9047Z" fill="white"/>
<defs>
<filter id="filter0_d_49_58" x="71" y="8" width="490" height="140" filterUnits="userSpaceOnUse" color-interpolation-filters="sRGB">
<feFlood flood-opacity="0" result="BackgroundImageFix"/>
<feColorMatrix in="SourceAlpha" type="matrix" values="0 0 0 0 0 0 0 0 0 0 0 0 0 0 0 0 0 0 127 0" result="hardAlpha"/>
<feOffset dx="3"/>
<feGaussianBlur stdDeviation="5"/>
<feComposite in2="hardAlpha" operator="out"/>
<feColorMatrix type="matrix" values="0 0 0 0 0.420833 0 0 0 0 0.420833 0 0 0 0 0.420833 0 0 0 0.25 0"/>
<feBlend mode="normal" in2="BackgroundImageFix" result="effect1_dropShadow_49_58"/>
<feBlend mode="normal" in="SourceGraphic" in2="effect1_dropShadow_49_58" result="shape"/>
</filter>
<linearGradient id="paint0_linear_49_58" x1="156" y1="77.7374" x2="9.78543e-07" y2="77.7374" gradientUnits="userSpaceOnUse">
<stop stop-color="#267ABE"/>
<stop offset="1" stop-color="#195697"/>
</linearGradient>
<linearGradient id="paint1_linear_49_58" x1="142" y1="77.7845" x2="14" y2="77.7845" gradientUnits="userSpaceOnUse">
<stop stop-color="#267ABE"/>
<stop offset="1" stop-color="#195697"/>
</linearGradient>
<linearGradient id="paint2_linear_49_58" x1="126" y1="77.8384" x2="30" y2="77.8384" gradientUnits="userSpaceOnUse">
<stop stop-color="#267ABE"/>
<stop offset="1" stop-color="#195697"/>
</linearGradient>
</defs>
</svg>
