<svg width="561" height="156" viewBox="0 0 561 156" fill="none" xmlns="http://www.w3.org/2000/svg">
<g filter="url(#filter0_d_49_36)">
<rect x="78" y="18" width="470" height="120" rx="16" fill="white"/>
<path d="M216.415 72V70.3765C215.786 70.4842 215.176 70.4558 214.587 70.2915C214.003 70.1215 213.479 69.8297 213.015 69.416C212.556 68.9967 212.19 68.4612 211.918 67.8095C211.646 67.1522 211.51 66.3843 211.51 65.506C211.51 64.6277 211.646 63.8598 211.918 63.2025C212.19 62.5452 212.556 62.0068 213.015 61.5875C213.479 61.1625 214.003 60.8678 214.587 60.7035C215.176 60.5335 215.786 60.5023 216.415 60.61V59.76H217.656V60.61C218.285 60.5023 218.894 60.5335 219.483 60.7035C220.072 60.8678 220.597 61.1625 221.056 61.5875C221.52 62.0068 221.889 62.5452 222.161 63.2025C222.433 63.8598 222.569 64.6277 222.569 65.506C222.569 66.3843 222.433 67.1522 222.161 67.8095C221.889 68.4612 221.52 68.9967 221.056 69.416C220.597 69.8297 220.072 70.1215 219.483 70.2915C218.894 70.4558 218.285 70.4842 217.656 70.3765V72H216.415ZM216.415 69.1865V61.7745C215.876 61.6952 215.383 61.7348 214.936 61.8935C214.494 62.0465 214.114 62.293 213.797 62.633C213.479 62.973 213.233 63.3895 213.057 63.8825C212.887 64.3698 212.802 64.911 212.802 65.506C212.802 66.101 212.887 66.6422 213.057 67.1295C213.233 67.6112 213.479 68.0192 213.797 68.3535C214.114 68.6878 214.494 68.9287 214.936 69.076C215.383 69.2233 215.876 69.2602 216.415 69.1865ZM217.656 69.1865C218.2 69.2602 218.693 69.2233 219.135 69.076C219.577 68.923 219.956 68.6822 220.274 68.3535C220.597 68.0192 220.843 67.6112 221.013 67.1295C221.189 66.6478 221.277 66.1152 221.277 65.5315C221.277 64.9422 221.189 64.4038 221.013 63.9165C220.843 63.4235 220.597 63.0042 220.274 62.6585C219.956 62.3128 219.577 62.0607 219.135 61.902C218.693 61.7377 218.2 61.6952 217.656 61.7745V69.1865ZM228.109 72.255C227.197 72.255 226.418 72.0482 225.772 71.6345C225.126 71.2208 224.63 70.6485 224.284 69.9175C223.939 69.1865 223.766 68.3478 223.766 67.4015C223.766 66.4382 223.942 65.5938 224.293 64.8685C224.644 64.1432 225.143 63.5793 225.789 63.177C226.441 62.769 227.214 62.565 228.109 62.565C229.027 62.565 229.809 62.7718 230.455 63.1855C231.107 63.5935 231.603 64.163 231.943 64.894C232.289 65.6193 232.461 66.4552 232.461 67.4015C232.461 68.3648 232.289 69.212 231.943 69.943C231.597 70.6683 231.099 71.235 230.447 71.643C229.795 72.051 229.016 72.255 228.109 72.255ZM228.109 71.0565C229.129 71.0565 229.889 70.7193 230.387 70.045C230.886 69.365 231.135 68.4838 231.135 67.4015C231.135 66.2908 230.883 65.4068 230.379 64.7495C229.88 64.0922 229.124 63.7635 228.109 63.7635C227.424 63.7635 226.857 63.9193 226.409 64.231C225.967 64.537 225.636 64.9648 225.415 65.5145C225.2 66.0585 225.092 66.6875 225.092 67.4015C225.092 68.5065 225.347 69.3933 225.857 70.062C226.367 70.725 227.118 71.0565 228.109 71.0565ZM238.459 72.255C237.615 72.255 236.901 72.0425 236.317 71.6175C235.733 71.1868 235.291 70.606 234.991 69.875C234.691 69.1383 234.54 68.3138 234.54 67.4015C234.54 66.4722 234.691 65.6448 234.991 64.9195C235.297 64.1885 235.745 63.6133 236.334 63.194C236.923 62.7747 237.649 62.565 238.51 62.565C239.349 62.565 240.068 62.7775 240.669 63.2025C241.27 63.6275 241.729 64.2055 242.046 64.9365C242.369 65.6675 242.53 66.4892 242.53 67.4015C242.53 68.3195 242.369 69.144 242.046 69.875C241.723 70.606 241.258 71.1868 240.652 71.6175C240.046 72.0425 239.315 72.255 238.459 72.255ZM234.328 76.08V62.82H235.45V69.7305H235.586V76.08H234.328ZM238.331 71.0905C238.972 71.0905 239.504 70.929 239.929 70.606C240.354 70.283 240.672 69.8438 240.881 69.2885C241.097 68.7275 241.204 68.0985 241.204 67.4015C241.204 66.7102 241.1 66.0868 240.89 65.5315C240.68 64.9762 240.36 64.537 239.929 64.214C239.504 63.891 238.963 63.7295 238.306 63.7295C237.666 63.7295 237.133 63.8853 236.708 64.197C236.289 64.5087 235.974 64.9422 235.764 65.4975C235.555 66.0472 235.45 66.6818 235.45 67.4015C235.45 68.1098 235.555 68.7445 235.764 69.3055C235.974 69.8608 236.291 70.2972 236.716 70.6145C237.141 70.9318 237.68 71.0905 238.331 71.0905ZM244.389 72V62.82H245.502L249.081 70.334L252.668 62.82H253.773V72H252.566V65.489L249.48 72H248.69L245.604 65.489V72H244.389ZM260.273 72.255C259.429 72.255 258.715 72.0425 258.131 71.6175C257.548 71.1868 257.106 70.606 256.805 69.875C256.505 69.1383 256.355 68.3138 256.355 67.4015C256.355 66.4722 256.505 65.6448 256.805 64.9195C257.111 64.1885 257.559 63.6133 258.148 63.194C258.738 62.7747 259.463 62.565 260.324 62.565C261.163 62.565 261.883 62.7775 262.483 63.2025C263.084 63.6275 263.543 64.2055 263.86 64.9365C264.183 65.6675 264.345 66.4892 264.345 67.4015C264.345 68.3195 264.183 69.144 263.86 69.875C263.537 70.606 263.073 71.1868 262.466 71.6175C261.86 72.0425 261.129 72.255 260.273 72.255ZM256.142 76.08V62.82H257.264V69.7305H257.4V76.08H256.142ZM260.146 71.0905C260.786 71.0905 261.319 70.929 261.744 70.606C262.169 70.283 262.486 69.8438 262.696 69.2885C262.911 68.7275 263.019 68.0985 263.019 67.4015C263.019 66.7102 262.914 66.0868 262.704 65.5315C262.495 64.9762 262.175 64.537 261.744 64.214C261.319 63.891 260.778 63.7295 260.12 63.7295C259.48 63.7295 258.947 63.8853 258.522 64.197C258.103 64.5087 257.789 64.9422 257.579 65.4975C257.369 66.0472 257.264 66.6818 257.264 67.4015C257.264 68.1098 257.369 68.7445 257.579 69.3055C257.789 69.8608 258.106 70.2972 258.531 70.6145C258.956 70.9318 259.494 71.0905 260.146 71.0905ZM270.045 72.255C269.133 72.255 268.353 72.0482 267.707 71.6345C267.061 71.2208 266.566 70.6485 266.22 69.9175C265.874 69.1865 265.701 68.3478 265.701 67.4015C265.701 66.4382 265.877 65.5938 266.228 64.8685C266.58 64.1432 267.078 63.5793 267.724 63.177C268.376 62.769 269.15 62.565 270.045 62.565C270.963 62.565 271.745 62.7718 272.391 63.1855C273.043 63.5935 273.538 64.163 273.878 64.894C274.224 65.6193 274.397 66.4552 274.397 67.4015C274.397 68.3648 274.224 69.212 273.878 69.943C273.533 70.6683 273.034 71.235 272.382 71.643C271.731 72.051 270.952 72.255 270.045 72.255ZM270.045 71.0565C271.065 71.0565 271.824 70.7193 272.323 70.045C272.822 69.365 273.071 68.4838 273.071 67.4015C273.071 66.2908 272.819 65.4068 272.314 64.7495C271.816 64.0922 271.059 63.7635 270.045 63.7635C269.359 63.7635 268.793 63.9193 268.345 64.231C267.903 64.537 267.571 64.9648 267.35 65.5145C267.135 66.0585 267.027 66.6875 267.027 67.4015C267.027 68.5065 267.282 69.3933 267.792 70.062C268.302 70.725 269.053 71.0565 270.045 71.0565ZM276.264 72V62.82H280.046C280.239 62.82 280.471 62.8313 280.743 62.854C281.021 62.8767 281.279 62.9192 281.517 62.9815C282.032 63.1175 282.446 63.3952 282.758 63.8145C283.075 64.2338 283.234 64.7382 283.234 65.3275C283.234 65.6562 283.183 65.9508 283.081 66.2115C282.984 66.4665 282.845 66.6875 282.664 66.8745C282.579 66.9708 282.486 67.0558 282.384 67.1295C282.282 67.1975 282.182 67.2542 282.086 67.2995C282.267 67.3335 282.463 67.4128 282.673 67.5375C283.001 67.7302 283.251 67.9908 283.421 68.3195C283.591 68.6425 283.676 69.0363 283.676 69.501C283.676 70.13 283.525 70.6428 283.225 71.0395C282.925 71.4362 282.522 71.7082 282.018 71.8555C281.791 71.9178 281.545 71.9575 281.279 71.9745C281.018 71.9915 280.771 72 280.539 72H276.264ZM277.522 70.9375H280.48C280.599 70.9375 280.749 70.929 280.93 70.912C281.111 70.8893 281.273 70.861 281.415 70.827C281.749 70.742 281.993 70.572 282.146 70.317C282.304 70.0563 282.384 69.773 282.384 69.467C282.384 69.0647 282.265 68.736 282.027 68.481C281.794 68.2203 281.483 68.0617 281.092 68.005C280.961 67.9767 280.825 67.9597 280.684 67.954C280.542 67.9483 280.414 67.9455 280.301 67.9455H277.522V70.9375ZM277.522 66.8745H280.089C280.236 66.8745 280.4 66.866 280.582 66.849C280.769 66.8263 280.93 66.7895 281.066 66.7385C281.361 66.6365 281.576 66.4608 281.712 66.2115C281.854 65.9622 281.925 65.6902 281.925 65.3955C281.925 65.0725 281.848 64.7892 281.695 64.5455C281.548 64.3018 281.324 64.1318 281.024 64.0355C280.82 63.9618 280.599 63.9193 280.361 63.908C280.128 63.8967 279.981 63.891 279.919 63.891H277.522V66.8745ZM287.996 72.255C287.305 72.255 286.724 72.1303 286.254 71.881C285.789 71.6317 285.441 71.3002 285.208 70.8865C284.976 70.4728 284.86 70.0223 284.86 69.535C284.86 69.0363 284.959 68.6113 285.157 68.26C285.361 67.903 285.636 67.6112 285.982 67.3845C286.333 67.1578 286.738 66.985 287.197 66.866C287.662 66.7527 288.175 66.6535 288.736 66.5685C289.302 66.4778 289.855 66.4013 290.393 66.339C290.937 66.271 291.413 66.2058 291.821 66.1435L291.379 66.4155C291.396 65.5088 291.221 64.8373 290.852 64.401C290.484 63.9647 289.844 63.7465 288.931 63.7465C288.302 63.7465 287.77 63.8882 287.333 64.1715C286.903 64.4548 286.599 64.9025 286.424 65.5145L285.208 65.1575C285.418 64.3358 285.84 63.6983 286.475 63.245C287.109 62.7917 287.934 62.565 288.948 62.565C289.787 62.565 290.498 62.7237 291.082 63.041C291.671 63.3527 292.088 63.806 292.331 64.401C292.445 64.6673 292.518 64.9648 292.552 65.2935C292.586 65.6222 292.603 65.9565 292.603 66.2965V72H291.49V69.6965L291.813 69.8325C291.501 70.6202 291.017 71.2208 290.359 71.6345C289.702 72.0482 288.914 72.255 287.996 72.255ZM288.141 71.1755C288.724 71.1755 289.234 71.0707 289.671 70.861C290.107 70.6513 290.458 70.3652 290.725 70.0025C290.991 69.6342 291.164 69.2205 291.243 68.7615C291.311 68.4668 291.348 68.1438 291.354 67.7925C291.359 67.4355 291.362 67.1692 291.362 66.9935L291.838 67.24C291.413 67.2967 290.951 67.3533 290.453 67.41C289.96 67.4667 289.472 67.5318 288.991 67.6055C288.515 67.6792 288.084 67.767 287.699 67.869C287.438 67.9427 287.186 68.0475 286.942 68.1835C286.699 68.3138 286.497 68.4895 286.339 68.7105C286.186 68.9315 286.109 69.2063 286.109 69.535C286.109 69.8013 286.174 70.0592 286.305 70.3085C286.441 70.5578 286.656 70.7647 286.951 70.929C287.251 71.0933 287.648 71.1755 288.141 71.1755ZM294.807 72V62.82H296.057V66.8065H301.233V62.82H302.483V72H301.233V68.005H296.057V72H294.807ZM312.153 62.82V72H310.937V64.8515L305.905 72H304.851V62.82H306.067V69.909L311.107 62.82H312.153ZM318.423 72.255C317.528 72.255 316.751 72.0567 316.094 71.66C315.442 71.2633 314.935 70.7052 314.573 69.9855C314.21 69.2658 314.029 68.4215 314.029 67.4525C314.029 66.4495 314.207 65.5825 314.564 64.8515C314.921 64.1205 315.423 63.5567 316.069 63.16C316.72 62.7633 317.488 62.565 318.372 62.565C319.279 62.565 320.052 62.7747 320.693 63.194C321.333 63.6077 321.817 64.2027 322.146 64.979C322.475 65.7553 322.625 66.6818 322.597 67.7585H321.322V67.3165C321.299 66.1265 321.041 65.2283 320.548 64.622C320.061 64.0157 319.347 63.7125 318.406 63.7125C317.42 63.7125 316.664 64.0327 316.137 64.673C315.615 65.3133 315.355 66.2257 315.355 67.41C315.355 68.566 315.615 69.4642 316.137 70.1045C316.664 70.7392 317.409 71.0565 318.372 71.0565C319.029 71.0565 319.602 70.9063 320.089 70.606C320.582 70.3 320.97 69.8608 321.254 69.2885L322.418 69.739C322.055 70.538 321.52 71.1585 320.812 71.6005C320.109 72.0368 319.313 72.255 318.423 72.255ZM314.913 67.7585V66.713H321.925V67.7585H314.913ZM331.193 72.255C330.269 72.255 329.462 72.0538 328.77 71.6515C328.085 71.2435 327.543 70.6797 327.147 69.96L328.15 69.3225C328.484 69.8892 328.901 70.3198 329.399 70.6145C329.898 70.9092 330.47 71.0565 331.116 71.0565C331.791 71.0565 332.332 70.9007 332.74 70.589C333.148 70.2773 333.352 69.8495 333.352 69.3055C333.352 68.9315 333.264 68.634 333.088 68.413C332.918 68.192 332.658 68.0333 332.306 67.937C331.961 67.8407 331.527 67.7925 331.006 67.7925H329.918V66.7215H330.989C331.623 66.7215 332.133 66.6082 332.519 66.3815C332.91 66.1492 333.105 65.7865 333.105 65.2935C333.105 64.7722 332.91 64.3868 332.519 64.1375C332.133 63.8825 331.672 63.755 331.133 63.755C330.589 63.755 330.074 63.8683 329.586 64.095C329.105 64.316 328.699 64.6022 328.371 64.9535L327.572 64.112C328.031 63.6077 328.566 63.2252 329.178 62.9645C329.796 62.6982 330.479 62.565 331.227 62.565C331.816 62.565 332.349 62.6698 332.825 62.8795C333.306 63.0835 333.686 63.3838 333.964 63.7805C334.247 64.1772 334.389 64.6532 334.389 65.2085C334.389 65.7298 334.261 66.1803 334.006 66.56C333.757 66.9397 333.403 67.2542 332.944 67.5035L332.876 67.036C333.272 67.1097 333.601 67.2683 333.862 67.512C334.122 67.7557 334.315 68.0475 334.44 68.3875C334.564 68.7275 334.627 69.0732 334.627 69.4245C334.627 70.0082 334.474 70.5125 334.168 70.9375C333.867 71.3568 333.457 71.6827 332.935 71.915C332.42 72.1417 331.839 72.255 331.193 72.255ZM339.129 72.255C338.438 72.255 337.857 72.1303 337.387 71.881C336.922 71.6317 336.573 71.3002 336.341 70.8865C336.109 70.4728 335.993 70.0223 335.993 69.535C335.993 69.0363 336.092 68.6113 336.29 68.26C336.494 67.903 336.769 67.6112 337.115 67.3845C337.466 67.1578 337.871 66.985 338.33 66.866C338.795 66.7527 339.308 66.6535 339.869 66.5685C340.435 66.4778 340.988 66.4013 341.526 66.339C342.07 66.271 342.546 66.2058 342.954 66.1435L342.512 66.4155C342.529 65.5088 342.353 64.8373 341.985 64.401C341.617 63.9647 340.976 63.7465 340.064 63.7465C339.435 63.7465 338.902 63.8882 338.466 64.1715C338.035 64.4548 337.732 64.9025 337.556 65.5145L336.341 65.1575C336.551 64.3358 336.973 63.6983 337.608 63.245C338.242 62.7917 339.067 62.565 340.081 62.565C340.92 62.565 341.631 62.7237 342.215 63.041C342.804 63.3527 343.22 63.806 343.464 64.401C343.577 64.6673 343.651 64.9648 343.685 65.2935C343.719 65.6222 343.736 65.9565 343.736 66.2965V72H342.623V69.6965L342.946 69.8325C342.634 70.6202 342.149 71.2208 341.492 71.6345C340.835 72.0482 340.047 72.255 339.129 72.255ZM339.274 71.1755C339.857 71.1755 340.367 71.0707 340.804 70.861C341.24 70.6513 341.591 70.3652 341.858 70.0025C342.124 69.6342 342.297 69.2205 342.376 68.7615C342.444 68.4668 342.481 68.1438 342.487 67.7925C342.492 67.4355 342.495 67.1692 342.495 66.9935L342.971 67.24C342.546 67.2967 342.084 67.3533 341.586 67.41C341.093 67.4667 340.605 67.5318 340.124 67.6055C339.648 67.6792 339.217 67.767 338.832 67.869C338.571 67.9427 338.319 68.0475 338.075 68.1835C337.831 68.3138 337.63 68.4895 337.472 68.7105C337.319 68.9315 337.242 69.2063 337.242 69.535C337.242 69.8013 337.307 70.0592 337.438 70.3085C337.574 70.5578 337.789 70.7647 338.084 70.929C338.384 71.0933 338.781 71.1755 339.274 71.1755ZM351.703 72V68.5405H349.561C349.312 68.5405 349.054 68.532 348.788 68.515C348.527 68.4923 348.283 68.4612 348.057 68.4215C347.411 68.2968 346.861 68.0135 346.408 67.5715C345.96 67.1238 345.736 66.5062 345.736 65.7185C345.736 64.9478 345.946 64.3302 346.365 63.8655C346.785 63.3952 347.292 63.0892 347.887 62.9475C348.159 62.8852 348.434 62.8483 348.711 62.837C348.995 62.8257 349.238 62.82 349.442 62.82H352.953L352.961 72H351.703ZM345.439 72L347.997 68.1495H349.383L346.807 72H345.439ZM349.493 67.4695H351.703V63.891H349.493C349.357 63.891 349.167 63.8967 348.924 63.908C348.68 63.9193 348.451 63.9562 348.235 64.0185C348.048 64.0752 347.861 64.1743 347.674 64.316C347.493 64.452 347.34 64.6362 347.215 64.8685C347.091 65.0952 347.028 65.3728 347.028 65.7015C347.028 66.1605 347.153 66.5288 347.402 66.8065C347.657 67.0785 347.975 67.2655 348.354 67.3675C348.558 67.4128 348.762 67.4412 348.966 67.4525C349.17 67.4638 349.346 67.4695 349.493 67.4695ZM355.337 72V62.82H359.119C359.312 62.82 359.544 62.8313 359.816 62.854C360.094 62.8767 360.352 62.9192 360.59 62.9815C361.105 63.1175 361.519 63.3952 361.831 63.8145C362.148 64.2338 362.307 64.7382 362.307 65.3275C362.307 65.6562 362.256 65.9508 362.154 66.2115C362.057 66.4665 361.919 66.6875 361.737 66.8745C361.652 66.9708 361.559 67.0558 361.457 67.1295C361.355 67.1975 361.256 67.2542 361.159 67.2995C361.341 67.3335 361.536 67.4128 361.746 67.5375C362.074 67.7302 362.324 67.9908 362.494 68.3195C362.664 68.6425 362.749 69.0363 362.749 69.501C362.749 70.13 362.599 70.6428 362.298 71.0395C361.998 71.4362 361.596 71.7082 361.091 71.8555C360.865 71.9178 360.618 71.9575 360.352 71.9745C360.091 71.9915 359.845 72 359.612 72H355.337ZM356.595 70.9375H359.553C359.672 70.9375 359.822 70.929 360.003 70.912C360.185 70.8893 360.346 70.861 360.488 70.827C360.822 70.742 361.066 70.572 361.219 70.317C361.377 70.0563 361.457 69.773 361.457 69.467C361.457 69.0647 361.338 68.736 361.1 68.481C360.867 68.2203 360.556 68.0617 360.165 68.005C360.034 67.9767 359.898 67.9597 359.757 67.954C359.615 67.9483 359.488 67.9455 359.374 67.9455H356.595V70.9375ZM356.595 66.8745H359.162C359.309 66.8745 359.473 66.866 359.655 66.849C359.842 66.8263 360.003 66.7895 360.139 66.7385C360.434 66.6365 360.649 66.4608 360.785 66.2115C360.927 65.9622 360.998 65.6902 360.998 65.3955C360.998 65.0725 360.921 64.7892 360.768 64.5455C360.621 64.3018 360.397 64.1318 360.097 64.0355C359.893 63.9618 359.672 63.9193 359.434 63.908C359.201 63.8967 359.054 63.891 358.992 63.891H356.595V66.8745ZM364.434 72L364.443 62.82H365.701V67.24L369.798 62.82H371.464L367.163 67.41L372.025 72H370.206L365.701 67.58V72H364.434ZM380.17 62.82V72H378.954V64.8515L373.922 72H372.868V62.82H374.084V69.909L379.124 62.82H380.17ZM385.95 72V62.82H387.2V66.8065H392.376V62.82H393.626V72H392.376V68.005H387.2V72H385.95ZM398.629 72.255C397.938 72.255 397.357 72.1303 396.887 71.881C396.422 71.6317 396.073 71.3002 395.841 70.8865C395.609 70.4728 395.493 70.0223 395.493 69.535C395.493 69.0363 395.592 68.6113 395.79 68.26C395.994 67.903 396.269 67.6112 396.615 67.3845C396.966 67.1578 397.371 66.985 397.83 66.866C398.295 66.7527 398.808 66.6535 399.369 66.5685C399.935 66.4778 400.488 66.4013 401.026 66.339C401.57 66.271 402.046 66.2058 402.454 66.1435L402.012 66.4155C402.029 65.5088 401.853 64.8373 401.485 64.401C401.117 63.9647 400.476 63.7465 399.564 63.7465C398.935 63.7465 398.402 63.8882 397.966 64.1715C397.535 64.4548 397.232 64.9025 397.056 65.5145L395.841 65.1575C396.051 64.3358 396.473 63.6983 397.108 63.245C397.742 62.7917 398.567 62.565 399.581 62.565C400.42 62.565 401.131 62.7237 401.715 63.041C402.304 63.3527 402.72 63.806 402.964 64.401C403.077 64.6673 403.151 64.9648 403.185 65.2935C403.219 65.6222 403.236 65.9565 403.236 66.2965V72H402.123V69.6965L402.446 69.8325C402.134 70.6202 401.649 71.2208 400.992 71.6345C400.335 72.0482 399.547 72.255 398.629 72.255ZM398.774 71.1755C399.357 71.1755 399.867 71.0707 400.304 70.861C400.74 70.6513 401.091 70.3652 401.358 70.0025C401.624 69.6342 401.797 69.2205 401.876 68.7615C401.944 68.4668 401.981 68.1438 401.987 67.7925C401.992 67.4355 401.995 67.1692 401.995 66.9935L402.471 67.24C402.046 67.2967 401.584 67.3533 401.086 67.41C400.593 67.4667 400.105 67.5318 399.624 67.6055C399.148 67.6792 398.717 67.767 398.332 67.869C398.071 67.9427 397.819 68.0475 397.575 68.1835C397.331 68.3138 397.13 68.4895 396.972 68.7105C396.819 68.9315 396.742 69.2063 396.742 69.535C396.742 69.8013 396.807 70.0592 396.938 70.3085C397.074 70.5578 397.289 70.7647 397.584 70.929C397.884 71.0933 398.281 71.1755 398.774 71.1755ZM212.182 91V81.82H219.483V91H218.234V83.0185H213.431V91H212.182ZM225.702 91.255C224.79 91.255 224.011 91.0482 223.365 90.6345C222.719 90.2208 222.223 89.6485 221.877 88.9175C221.532 88.1865 221.359 87.3478 221.359 86.4015C221.359 85.4382 221.534 84.5938 221.886 83.8685C222.237 83.1432 222.736 82.5793 223.382 82.177C224.033 81.769 224.807 81.565 225.702 81.565C226.62 81.565 227.402 81.7718 228.048 82.1855C228.7 82.5935 229.196 83.163 229.536 83.894C229.881 84.6193 230.054 85.4552 230.054 86.4015C230.054 87.3648 229.881 88.212 229.536 88.943C229.19 89.6683 228.691 90.235 228.04 90.643C227.388 91.051 226.609 91.255 225.702 91.255ZM225.702 90.0565C226.722 90.0565 227.482 89.7193 227.98 89.045C228.479 88.365 228.728 87.4838 228.728 86.4015C228.728 85.2908 228.476 84.4068 227.972 83.7495C227.473 83.0922 226.717 82.7635 225.702 82.7635C225.017 82.7635 224.45 82.9193 224.002 83.231C223.56 83.537 223.229 83.9648 223.008 84.5145C222.792 85.0585 222.685 85.6875 222.685 86.4015C222.685 87.5065 222.94 88.3933 223.45 89.062C223.96 89.725 224.711 90.0565 225.702 90.0565ZM231.079 91V89.9035C231.419 89.9658 231.677 89.9517 231.853 89.861C232.034 89.7647 232.167 89.606 232.252 89.385C232.337 89.1583 232.408 88.8778 232.465 88.5435C232.555 87.9882 232.638 87.3762 232.711 86.7075C232.785 86.0388 232.85 85.3022 232.907 84.4975C232.969 83.6872 233.031 82.7947 233.094 81.82H239.333V91H238.092V83.0185H234.25C234.21 83.6192 234.165 84.217 234.114 84.812C234.063 85.407 234.009 85.9793 233.952 86.529C233.901 87.073 233.845 87.5745 233.782 88.0335C233.72 88.4925 233.655 88.8892 233.587 89.2235C233.485 89.7278 233.349 90.1302 233.179 90.4305C233.014 90.7308 232.768 90.9292 232.439 91.0255C232.111 91.1218 231.657 91.1133 231.079 91ZM243.017 95.08L244.793 90.2605L244.819 91.6885L240.798 81.82H242.124L245.422 90.0735H244.878L247.921 81.82H249.196L244.266 95.08H243.017ZM256.291 91V87.583C255.985 87.736 255.608 87.8692 255.16 87.9825C254.713 88.0958 254.231 88.1525 253.715 88.1525C252.786 88.1525 252.032 87.9457 251.454 87.532C250.876 87.1183 250.5 86.5205 250.324 85.7385C250.267 85.5062 250.228 85.2597 250.205 84.999C250.188 84.7383 250.177 84.5032 250.171 84.2935C250.165 84.0838 250.162 83.9337 250.162 83.843V81.82H251.42V83.843C251.42 84.03 251.426 84.2425 251.437 84.4805C251.449 84.7185 251.474 84.9508 251.514 85.1775C251.627 85.7952 251.882 86.2627 252.279 86.58C252.681 86.8973 253.245 87.056 253.97 87.056C254.424 87.056 254.852 86.9993 255.254 86.886C255.662 86.767 256.008 86.6083 256.291 86.41V81.82H257.54V91H256.291ZM263.804 91.255C262.909 91.255 262.132 91.0567 261.475 90.66C260.823 90.2633 260.316 89.7052 259.953 88.9855C259.591 88.2658 259.409 87.4215 259.409 86.4525C259.409 85.4495 259.588 84.5825 259.945 83.8515C260.302 83.1205 260.803 82.5567 261.449 82.16C262.101 81.7633 262.869 81.565 263.753 81.565C264.66 81.565 265.433 81.7747 266.073 82.194C266.714 82.6077 267.198 83.2027 267.527 83.979C267.856 84.7553 268.006 85.6818 267.977 86.7585H266.702V86.3165C266.68 85.1265 266.422 84.2283 265.929 83.622C265.442 83.0157 264.728 82.7125 263.787 82.7125C262.801 82.7125 262.044 83.0327 261.517 83.673C260.996 84.3133 260.735 85.2257 260.735 86.41C260.735 87.566 260.996 88.4642 261.517 89.1045C262.044 89.7392 262.79 90.0565 263.753 90.0565C264.41 90.0565 264.983 89.9063 265.47 89.606C265.963 89.3 266.351 88.8608 266.634 88.2885L267.799 88.739C267.436 89.538 266.901 90.1585 266.192 90.6005C265.49 91.0368 264.694 91.255 263.804 91.255ZM260.293 86.7585V85.713H267.306V86.7585H260.293ZM269.855 91V81.82H271.105V85.8065H276.281V81.82H277.531V91H276.281V87.005H271.105V91H269.855ZM287.201 81.82V91H285.985V83.8515L280.953 91H279.899V81.82H281.115V88.909L286.155 81.82H287.201ZM293.471 91.255C292.576 91.255 291.799 91.0567 291.142 90.66C290.49 90.2633 289.983 89.7052 289.62 88.9855C289.258 88.2658 289.076 87.4215 289.076 86.4525C289.076 85.4495 289.255 84.5825 289.612 83.8515C289.969 83.1205 290.47 82.5567 291.116 82.16C291.768 81.7633 292.536 81.565 293.42 81.565C294.327 81.565 295.1 81.7747 295.74 82.194C296.381 82.6077 296.865 83.2027 297.194 83.979C297.523 84.7553 297.673 85.6818 297.644 86.7585H296.369V86.3165C296.347 85.1265 296.089 84.2283 295.596 83.622C295.109 83.0157 294.395 82.7125 293.454 82.7125C292.468 82.7125 291.711 83.0327 291.184 83.673C290.663 84.3133 290.402 85.2257 290.402 86.41C290.402 87.566 290.663 88.4642 291.184 89.1045C291.711 89.7392 292.457 90.0565 293.42 90.0565C294.077 90.0565 294.65 89.9063 295.137 89.606C295.63 89.3 296.018 88.8608 296.301 88.2885L297.466 88.739C297.103 89.538 296.568 90.1585 295.859 90.6005C295.157 91.0368 294.361 91.255 293.471 91.255ZM289.96 86.7585V85.713H296.973V86.7585H289.96ZM302.926 91L302.934 81.82H304.192V86.24L308.289 81.82H309.955L305.654 86.41L310.516 91H308.697L304.192 86.58V91H302.926ZM315.035 91.255C314.123 91.255 313.344 91.0482 312.698 90.6345C312.052 90.2208 311.556 89.6485 311.21 88.9175C310.865 88.1865 310.692 87.3478 310.692 86.4015C310.692 85.4382 310.867 84.5938 311.219 83.8685C311.57 83.1432 312.069 82.5793 312.715 82.177C313.366 81.769 314.14 81.565 315.035 81.565C315.953 81.565 316.735 81.7718 317.381 82.1855C318.033 82.5935 318.529 83.163 318.869 83.894C319.214 84.6193 319.387 85.4552 319.387 86.4015C319.387 87.3648 319.214 88.212 318.869 88.943C318.523 89.6683 318.024 90.235 317.373 90.643C316.721 91.051 315.942 91.255 315.035 91.255ZM315.035 90.0565C316.055 90.0565 316.815 89.7193 317.313 89.045C317.812 88.365 318.061 87.4838 318.061 86.4015C318.061 85.2908 317.809 84.4068 317.305 83.7495C316.806 83.0922 316.05 82.7635 315.035 82.7635C314.35 82.7635 313.783 82.9193 313.335 83.231C312.893 83.537 312.562 83.9648 312.341 84.5145C312.125 85.0585 312.018 85.6875 312.018 86.4015C312.018 87.5065 312.273 88.3933 312.783 89.062C313.293 89.725 314.044 90.0565 315.035 90.0565ZM320.582 93.04V89.929C321.104 89.929 321.478 89.7618 321.704 89.4275C321.931 89.0875 322.115 88.5463 322.257 87.804C322.353 87.3223 322.432 86.8038 322.495 86.2485C322.557 85.6932 322.611 85.0585 322.656 84.3445C322.702 83.6248 322.744 82.7833 322.784 81.82H328.853V89.929H329.737V93.04H328.53V91H321.781V93.04H320.582ZM322.699 89.929H327.612V82.891H323.94C323.923 83.3217 323.897 83.7778 323.863 84.2595C323.835 84.7412 323.798 85.2228 323.753 85.7045C323.713 86.1862 323.665 86.6395 323.608 87.0645C323.557 87.4838 323.495 87.8522 323.421 88.1695C323.336 88.5775 323.243 88.926 323.141 89.215C323.044 89.504 322.897 89.742 322.699 89.929ZM335.273 91.255C334.36 91.255 333.581 91.0482 332.935 90.6345C332.289 90.2208 331.793 89.6485 331.448 88.9175C331.102 88.1865 330.929 87.3478 330.929 86.4015C330.929 85.4382 331.105 84.5938 331.456 83.8685C331.807 83.1432 332.306 82.5793 332.952 82.177C333.604 81.769 334.377 81.565 335.273 81.565C336.191 81.565 336.973 81.7718 337.619 82.1855C338.27 82.5935 338.766 83.163 339.106 83.894C339.452 84.6193 339.625 85.4552 339.625 86.4015C339.625 87.3648 339.452 88.212 339.106 88.943C338.76 89.6683 338.262 90.235 337.61 90.643C336.958 91.051 336.179 91.255 335.273 91.255ZM335.273 90.0565C336.293 90.0565 337.052 89.7193 337.551 89.045C338.049 88.365 338.299 87.4838 338.299 86.4015C338.299 85.2908 338.046 84.4068 337.542 83.7495C337.043 83.0922 336.287 82.7635 335.273 82.7635C334.587 82.7635 334.02 82.9193 333.573 83.231C333.131 83.537 332.799 83.9648 332.578 84.5145C332.363 85.0585 332.255 85.6875 332.255 86.4015C332.255 87.5065 332.51 88.3933 333.02 89.062C333.53 89.725 334.281 90.0565 335.273 90.0565ZM341.491 91V81.82H345.274C345.466 81.82 345.699 81.8313 345.971 81.854C346.248 81.8767 346.506 81.9192 346.744 81.9815C347.26 82.1175 347.673 82.3952 347.985 82.8145C348.302 83.2338 348.461 83.7382 348.461 84.3275C348.461 84.6562 348.41 84.9508 348.308 85.2115C348.212 85.4665 348.073 85.6875 347.892 85.8745C347.807 85.9708 347.713 86.0558 347.611 86.1295C347.509 86.1975 347.41 86.2542 347.314 86.2995C347.495 86.3335 347.69 86.4128 347.9 86.5375C348.229 86.7302 348.478 86.9908 348.648 87.3195C348.818 87.6425 348.903 88.0363 348.903 88.501C348.903 89.13 348.753 89.6428 348.453 90.0395C348.152 90.4362 347.75 90.7082 347.246 90.8555C347.019 90.9178 346.772 90.9575 346.506 90.9745C346.245 90.9915 345.999 91 345.767 91H341.491ZM342.749 89.9375H345.707C345.826 89.9375 345.976 89.929 346.158 89.912C346.339 89.8893 346.5 89.861 346.642 89.827C346.976 89.742 347.22 89.572 347.373 89.317C347.532 89.0563 347.611 88.773 347.611 88.467C347.611 88.0647 347.492 87.736 347.254 87.481C347.022 87.2203 346.71 87.0617 346.319 87.005C346.189 86.9767 346.053 86.9597 345.911 86.954C345.769 86.9483 345.642 86.9455 345.529 86.9455H342.749V89.9375ZM342.749 85.8745H345.316C345.463 85.8745 345.628 85.866 345.809 85.849C345.996 85.8263 346.158 85.7895 346.294 85.7385C346.588 85.6365 346.804 85.4608 346.94 85.2115C347.081 84.9622 347.152 84.6902 347.152 84.3955C347.152 84.0725 347.076 83.7892 346.923 83.5455C346.775 83.3018 346.551 83.1318 346.251 83.0355C346.047 82.9618 345.826 82.9193 345.588 82.908C345.356 82.8967 345.208 82.891 345.146 82.891H342.749V85.8745Z" fill="#6B7DA1"/>
</g>
<circle opacity="0.5" cx="78" cy="78" r="78" fill="url(#paint0_linear_49_36)"/>
<circle opacity="0.4" cx="78" cy="78" r="64" fill="url(#paint1_linear_49_36)"/>
<circle cx="78" cy="78" r="48" fill="url(#paint2_linear_49_36)"/>
<path d="M68.98 91.54C67.384 91.54 65.944 91.168 64.66 90.424C63.388 89.68 62.38 88.672 61.636 87.4C60.892 86.116 60.52 84.676 60.52 83.08V73C60.52 71.404 60.892 69.97 61.636 68.698C62.38 67.414 63.388 66.4 64.66 65.656C65.944 64.912 67.384 64.54 68.98 64.54C70.576 64.54 72.01 64.912 73.282 65.656C74.566 66.4 75.58 67.414 76.324 68.698C77.068 69.97 77.44 71.404 77.44 73V83.08C77.44 84.676 77.068 86.116 76.324 87.4C75.58 88.672 74.566 89.68 73.282 90.424C72.01 91.168 70.576 91.54 68.98 91.54ZM68.98 88.984C70.048 88.984 71.02 88.726 71.896 88.21C72.772 87.682 73.468 86.98 73.984 86.104C74.5 85.228 74.758 84.262 74.758 83.206V72.874C74.758 71.806 74.5 70.834 73.984 69.958C73.468 69.082 72.772 68.386 71.896 67.87C71.02 67.342 70.048 67.078 68.98 67.078C67.912 67.078 66.94 67.342 66.064 67.87C65.188 68.386 64.492 69.082 63.976 69.958C63.46 70.834 63.202 71.806 63.202 72.874V83.206C63.202 84.262 63.46 85.228 63.976 86.104C64.492 86.98 65.188 87.682 66.064 88.21C66.94 88.726 67.912 88.984 68.98 88.984ZM87.0107 91V68.032L82.1327 70.966V67.996L87.0107 65.08H89.6927V91H87.0107Z" fill="white"/>
<defs>
<filter id="filter0_d_49_36" x="71" y="8" width="490" height="140" filterUnits="userSpaceOnUse" color-interpolation-filters="sRGB">
<feFlood flood-opacity="0" result="BackgroundImageFix"/>
<feColorMatrix in="SourceAlpha" type="matrix" values="0 0 0 0 0 0 0 0 0 0 0 0 0 0 0 0 0 0 127 0" result="hardAlpha"/>
<feOffset dx="3"/>
<feGaussianBlur stdDeviation="5"/>
<feComposite in2="hardAlpha" operator="out"/>
<feColorMatrix type="matrix" values="0 0 0 0 0.420833 0 0 0 0 0.420833 0 0 0 0 0.420833 0 0 0 0.25 0"/>
<feBlend mode="normal" in2="BackgroundImageFix" result="effect1_dropShadow_49_36"/>
<feBlend mode="normal" in="SourceGraphic" in2="effect1_dropShadow_49_36" result="shape"/>
</filter>
<linearGradient id="paint0_linear_49_36" x1="156" y1="77.7374" x2="9.78543e-07" y2="77.7374" gradientUnits="userSpaceOnUse">
<stop stop-color="#267ABE"/>
<stop offset="1" stop-color="#195697"/>
</linearGradient>
<linearGradient id="paint1_linear_49_36" x1="142" y1="77.7845" x2="14" y2="77.7845" gradientUnits="userSpaceOnUse">
<stop stop-color="#267ABE"/>
<stop offset="1" stop-color="#195697"/>
</linearGradient>
<linearGradient id="paint2_linear_49_36" x1="126" y1="77.8384" x2="30" y2="77.8384" gradientUnits="userSpaceOnUse">
<stop stop-color="#267ABE"/>
<stop offset="1" stop-color="#195697"/>
</linearGradient>
</defs>
</svg>
