<svg width="561" height="156" viewBox="0 0 561 156" fill="none" xmlns="http://www.w3.org/2000/svg">
<g filter="url(#filter0_d_49_44)">
<rect x="78" y="18" width="470" height="120" rx="16" fill="white"/>
<path d="M217.146 72.255C215.927 72.255 214.899 71.9858 214.06 71.4475C213.221 70.9035 212.587 70.1527 212.156 69.195C211.725 68.2373 211.51 67.1323 211.51 65.88C211.51 64.6277 211.725 63.5227 212.156 62.565C212.587 61.6073 213.221 60.8593 214.06 60.321C214.899 59.777 215.927 59.505 217.146 59.505C218.37 59.505 219.398 59.777 220.231 60.321C221.07 60.8593 221.704 61.6073 222.135 62.565C222.571 63.5227 222.79 64.6277 222.79 65.88C222.79 67.1323 222.571 68.2373 222.135 69.195C221.704 70.1527 221.07 70.9035 220.231 71.4475C219.398 71.9858 218.37 72.255 217.146 72.255ZM217.146 71.0565C218.103 71.0565 218.902 70.8383 219.542 70.402C220.183 69.9657 220.662 69.3593 220.979 68.583C221.302 67.801 221.464 66.9 221.464 65.88C221.464 64.86 221.302 63.9618 220.979 63.1855C220.662 62.4092 220.183 61.8028 219.542 61.3665C218.902 60.9302 218.103 60.7092 217.146 60.7035C216.188 60.7035 215.392 60.9217 214.757 61.358C214.122 61.7943 213.644 62.4035 213.321 63.1855C213.003 63.9618 212.842 64.86 212.836 65.88C212.83 66.9 212.986 67.7982 213.304 68.5745C213.627 69.3452 214.108 69.9515 214.749 70.3935C215.389 70.8298 216.188 71.0508 217.146 71.0565ZM226.982 72V63.976H223.727V62.82H231.487V63.976H228.232V72H226.982ZM233.099 72V62.82H240.401V72H239.151V64.0185H234.349V72H233.099ZM246.909 72.255C246.065 72.255 245.351 72.0425 244.767 71.6175C244.184 71.1868 243.742 70.606 243.441 69.875C243.141 69.1383 242.991 68.3138 242.991 67.4015C242.991 66.4722 243.141 65.6448 243.441 64.9195C243.747 64.1885 244.195 63.6133 244.784 63.194C245.374 62.7747 246.099 62.565 246.96 62.565C247.799 62.565 248.519 62.7775 249.119 63.2025C249.72 63.6275 250.179 64.2055 250.496 64.9365C250.819 65.6675 250.981 66.4892 250.981 67.4015C250.981 68.3195 250.819 69.144 250.496 69.875C250.173 70.606 249.709 71.1868 249.102 71.6175C248.496 72.0425 247.765 72.255 246.909 72.255ZM242.778 76.08V62.82H243.9V69.7305H244.036V76.08H242.778ZM246.782 71.0905C247.422 71.0905 247.955 70.929 248.38 70.606C248.805 70.283 249.122 69.8438 249.332 69.2885C249.547 68.7275 249.655 68.0985 249.655 67.4015C249.655 66.7102 249.55 66.0868 249.34 65.5315C249.131 64.9762 248.81 64.537 248.38 64.214C247.955 63.891 247.414 63.7295 246.756 63.7295C246.116 63.7295 245.583 63.8853 245.158 64.197C244.739 64.5087 244.424 64.9422 244.215 65.4975C244.005 66.0472 243.9 66.6818 243.9 67.4015C243.9 68.1098 244.005 68.7445 244.215 69.3055C244.424 69.8608 244.742 70.2972 245.167 70.6145C245.592 70.9318 246.13 71.0905 246.782 71.0905ZM255.474 72.255C254.782 72.255 254.202 72.1303 253.731 71.881C253.267 71.6317 252.918 71.3002 252.686 70.8865C252.453 70.4728 252.337 70.0223 252.337 69.535C252.337 69.0363 252.436 68.6113 252.635 68.26C252.839 67.903 253.114 67.6112 253.459 67.3845C253.811 67.1578 254.216 66.985 254.675 66.866C255.139 66.7527 255.652 66.6535 256.213 66.5685C256.78 66.4778 257.332 66.4013 257.871 66.339C258.415 66.271 258.891 66.2058 259.299 66.1435L258.857 66.4155C258.874 65.5088 258.698 64.8373 258.33 64.401C257.961 63.9647 257.321 63.7465 256.409 63.7465C255.78 63.7465 255.247 63.8882 254.811 64.1715C254.38 64.4548 254.077 64.9025 253.901 65.5145L252.686 65.1575C252.895 64.3358 253.318 63.6983 253.952 63.245C254.587 62.7917 255.411 62.565 256.426 62.565C257.264 62.565 257.976 62.7237 258.559 63.041C259.149 63.3527 259.565 63.806 259.809 64.401C259.922 64.6673 259.996 64.9648 260.03 65.2935C260.064 65.6222 260.081 65.9565 260.081 66.2965V72H258.967V69.6965L259.29 69.8325C258.979 70.6202 258.494 71.2208 257.837 71.6345C257.179 72.0482 256.392 72.255 255.474 72.255ZM255.618 71.1755C256.202 71.1755 256.712 71.0707 257.148 70.861C257.585 70.6513 257.936 70.3652 258.202 70.0025C258.469 69.6342 258.641 69.2205 258.721 68.7615C258.789 68.4668 258.826 68.1438 258.831 67.7925C258.837 67.4355 258.84 67.1692 258.84 66.9935L259.316 67.24C258.891 67.2967 258.429 67.3533 257.93 67.41C257.437 67.4667 256.95 67.5318 256.468 67.6055C255.992 67.6792 255.562 67.767 255.176 67.869C254.916 67.9427 254.663 68.0475 254.42 68.1835C254.176 68.3138 253.975 68.4895 253.816 68.7105C253.663 68.9315 253.587 69.2063 253.587 69.535C253.587 69.8013 253.652 70.0592 253.782 70.3085C253.918 70.5578 254.134 70.7647 254.428 70.929C254.729 71.0933 255.125 71.1755 255.618 71.1755ZM262.285 72V62.82H266.068C266.26 62.82 266.493 62.8313 266.765 62.854C267.042 62.8767 267.3 62.9192 267.538 62.9815C268.054 63.1175 268.467 63.3952 268.779 63.8145C269.096 64.2338 269.255 64.7382 269.255 65.3275C269.255 65.6562 269.204 65.9508 269.102 66.2115C269.006 66.4665 268.867 66.6875 268.686 66.8745C268.601 66.9708 268.507 67.0558 268.405 67.1295C268.303 67.1975 268.204 67.2542 268.108 67.2995C268.289 67.3335 268.484 67.4128 268.694 67.5375C269.023 67.7302 269.272 67.9908 269.442 68.3195C269.612 68.6425 269.697 69.0363 269.697 69.501C269.697 70.13 269.547 70.6428 269.247 71.0395C268.946 71.4362 268.544 71.7082 268.04 71.8555C267.813 71.9178 267.566 71.9575 267.3 71.9745C267.039 71.9915 266.793 72 266.561 72H262.285ZM263.543 70.9375H266.501C266.62 70.9375 266.77 70.929 266.952 70.912C267.133 70.8893 267.294 70.861 267.436 70.827C267.77 70.742 268.014 70.572 268.167 70.317C268.326 70.0563 268.405 69.773 268.405 69.467C268.405 69.0647 268.286 68.736 268.048 68.481C267.816 68.2203 267.504 68.0617 267.113 68.005C266.983 67.9767 266.847 67.9597 266.705 67.954C266.563 67.9483 266.436 67.9455 266.323 67.9455H263.543V70.9375ZM263.543 66.8745H266.11C266.257 66.8745 266.422 66.866 266.603 66.849C266.79 66.8263 266.952 66.7895 267.088 66.7385C267.382 66.6365 267.598 66.4608 267.734 66.2115C267.875 65.9622 267.946 65.6902 267.946 65.3955C267.946 65.0725 267.87 64.7892 267.717 64.5455C267.569 64.3018 267.345 64.1318 267.045 64.0355C266.841 63.9618 266.62 63.9193 266.382 63.908C266.15 63.8967 266.002 63.891 265.94 63.891H263.543V66.8745ZM271.383 72L271.391 62.82H272.649V67.24L276.746 62.82H278.412L274.111 67.41L278.973 72H277.154L272.649 67.58V72H271.383ZM282.451 72.255C281.76 72.255 281.179 72.1303 280.709 71.881C280.244 71.6317 279.896 71.3002 279.663 70.8865C279.431 70.4728 279.315 70.0223 279.315 69.535C279.315 69.0363 279.414 68.6113 279.612 68.26C279.816 67.903 280.091 67.6112 280.437 67.3845C280.788 67.1578 281.193 66.985 281.652 66.866C282.117 66.7527 282.63 66.6535 283.191 66.5685C283.757 66.4778 284.31 66.4013 284.848 66.339C285.392 66.271 285.868 66.2058 286.276 66.1435L285.834 66.4155C285.851 65.5088 285.676 64.8373 285.307 64.401C284.939 63.9647 284.299 63.7465 283.386 63.7465C282.757 63.7465 282.225 63.8882 281.788 64.1715C281.358 64.4548 281.054 64.9025 280.879 65.5145L279.663 65.1575C279.873 64.3358 280.295 63.6983 280.93 63.245C281.564 62.7917 282.389 62.565 283.403 62.565C284.242 62.565 284.953 62.7237 285.537 63.041C286.126 63.3527 286.543 63.806 286.786 64.401C286.9 64.6673 286.973 64.9648 287.007 65.2935C287.041 65.6222 287.058 65.9565 287.058 66.2965V72H285.945V69.6965L286.268 69.8325C285.956 70.6202 285.472 71.2208 284.814 71.6345C284.157 72.0482 283.369 72.255 282.451 72.255ZM282.596 71.1755C283.179 71.1755 283.689 71.0707 284.126 70.861C284.562 70.6513 284.913 70.3652 285.18 70.0025C285.446 69.6342 285.619 69.2205 285.698 68.7615C285.766 68.4668 285.803 68.1438 285.809 67.7925C285.814 67.4355 285.817 67.1692 285.817 66.9935L286.293 67.24C285.868 67.2967 285.406 67.3533 284.908 67.41C284.415 67.4667 283.927 67.5318 283.446 67.6055C282.97 67.6792 282.539 67.767 282.154 67.869C281.893 67.9427 281.641 68.0475 281.397 68.1835C281.154 68.3138 280.952 68.4895 280.794 68.7105C280.641 68.9315 280.564 69.2063 280.564 69.535C280.564 69.8013 280.629 70.0592 280.76 70.3085C280.896 70.5578 281.111 70.7647 281.406 70.929C281.706 71.0933 282.103 71.1755 282.596 71.1755ZM292.666 72V62.82H296.448C296.641 62.82 296.873 62.8313 297.145 62.854C297.423 62.8767 297.681 62.9192 297.919 62.9815C298.435 63.1175 298.848 63.3952 299.16 63.8145C299.477 64.2338 299.636 64.7382 299.636 65.3275C299.636 65.6562 299.585 65.9508 299.483 66.2115C299.387 66.4665 299.248 66.6875 299.066 66.8745C298.981 66.9708 298.888 67.0558 298.786 67.1295C298.684 67.1975 298.585 67.2542 298.488 67.2995C298.67 67.3335 298.865 67.4128 299.075 67.5375C299.404 67.7302 299.653 67.9908 299.823 68.3195C299.993 68.6425 300.078 69.0363 300.078 69.501C300.078 70.13 299.928 70.6428 299.627 71.0395C299.327 71.4362 298.925 71.7082 298.42 71.8555C298.194 71.9178 297.947 71.9575 297.681 71.9745C297.42 71.9915 297.174 72 296.941 72H292.666ZM293.924 70.9375H296.882C297.001 70.9375 297.151 70.929 297.332 70.912C297.514 70.8893 297.675 70.861 297.817 70.827C298.151 70.742 298.395 70.572 298.548 70.317C298.707 70.0563 298.786 69.773 298.786 69.467C298.786 69.0647 298.667 68.736 298.429 68.481C298.197 68.2203 297.885 68.0617 297.494 68.005C297.364 67.9767 297.228 67.9597 297.086 67.954C296.944 67.9483 296.817 67.9455 296.703 67.9455H293.924V70.9375ZM293.924 66.8745H296.491C296.638 66.8745 296.803 66.866 296.984 66.849C297.171 66.8263 297.332 66.7895 297.468 66.7385C297.763 66.6365 297.978 66.4608 298.114 66.2115C298.256 65.9622 298.327 65.6902 298.327 65.3955C298.327 65.0725 298.25 64.7892 298.097 64.5455C297.95 64.3018 297.726 64.1318 297.426 64.0355C297.222 63.9618 297.001 63.9193 296.763 63.908C296.531 63.8967 296.383 63.891 296.321 63.891H293.924V66.8745ZM301.781 72L301.764 62.82H303.022V66.2795H304.62C304.886 66.2795 305.147 66.2852 305.402 66.2965C305.657 66.3078 305.886 66.3305 306.09 66.3645C306.543 66.4552 306.946 66.6082 307.297 66.8235C307.648 67.0388 307.926 67.3363 308.13 67.716C308.334 68.09 308.436 68.5632 308.436 69.1355C308.436 69.9232 308.232 70.5437 307.824 70.997C307.416 71.4503 306.903 71.745 306.286 71.881C306.053 71.932 305.801 71.966 305.529 71.983C305.257 71.9943 304.991 72 304.73 72H301.781ZM303.022 70.929H304.679C304.866 70.929 305.079 70.9233 305.317 70.912C305.555 70.9007 305.764 70.8695 305.946 70.8185C306.252 70.7335 306.526 70.5635 306.77 70.3085C307.019 70.0478 307.144 69.6568 307.144 69.1355C307.144 68.6198 307.025 68.2317 306.787 67.971C306.549 67.7047 306.232 67.529 305.835 67.444C305.654 67.4043 305.461 67.3788 305.257 67.3675C305.059 67.3562 304.866 67.3505 304.679 67.3505H303.022V70.929ZM309.533 72V62.82H310.782V72H309.533ZM316.841 72.2635C315.986 72.2578 315.252 72.0708 314.64 71.7025C314.028 71.3342 313.552 70.7845 313.212 70.0535C312.877 69.3225 312.696 68.4102 312.668 67.3165C312.651 66.8348 312.662 66.3107 312.702 65.744C312.741 65.1717 312.804 64.6277 312.889 64.112C312.974 63.5963 313.076 63.177 313.195 62.854C313.342 62.4347 313.552 62.0437 313.824 61.681C314.101 61.3127 314.422 61.0123 314.784 60.78C315.136 60.542 315.532 60.3578 315.974 60.2275C316.422 60.0915 316.887 59.9867 317.368 59.913C317.856 59.8393 318.337 59.7742 318.813 59.7175C319.295 59.6608 319.74 59.59 320.148 59.505L320.284 60.6355C319.972 60.6978 319.604 60.7545 319.179 60.8055C318.754 60.8565 318.309 60.9188 317.844 60.9925C317.38 61.0605 316.935 61.154 316.51 61.273C316.085 61.392 315.722 61.5478 315.422 61.7405C314.963 62.0182 314.609 62.4375 314.359 62.9985C314.116 63.5595 313.965 64.2027 313.909 64.928C314.26 64.3783 314.725 63.9647 315.303 63.687C315.886 63.4093 316.518 63.2705 317.198 63.2705C318.026 63.2705 318.737 63.4603 319.332 63.84C319.932 64.2197 320.394 64.7467 320.717 65.421C321.04 66.0953 321.202 66.8688 321.202 67.7415C321.202 68.6538 321.023 69.45 320.666 70.13C320.315 70.81 319.813 71.337 319.162 71.711C318.51 72.0793 317.737 72.2635 316.841 72.2635ZM316.935 71.065C317.898 71.065 318.629 70.7647 319.128 70.164C319.632 69.5633 319.884 68.7643 319.884 67.767C319.884 66.747 319.624 65.9423 319.102 65.353C318.587 64.7637 317.858 64.469 316.918 64.469C315.977 64.469 315.255 64.7637 314.75 65.353C314.246 65.9423 313.994 66.747 313.994 67.767C313.994 68.787 314.246 69.5917 314.75 70.181C315.255 70.7703 315.983 71.065 316.935 71.065ZM327.194 72.255C326.35 72.255 325.636 72.0425 325.052 71.6175C324.469 71.1868 324.027 70.606 323.726 69.875C323.426 69.1383 323.276 68.3138 323.276 67.4015C323.276 66.4722 323.426 65.6448 323.726 64.9195C324.032 64.1885 324.48 63.6133 325.069 63.194C325.659 62.7747 326.384 62.565 327.245 62.565C328.084 62.565 328.804 62.7775 329.404 63.2025C330.005 63.6275 330.464 64.2055 330.781 64.9365C331.104 65.6675 331.266 66.4892 331.266 67.4015C331.266 68.3195 331.104 69.144 330.781 69.875C330.458 70.606 329.994 71.1868 329.387 71.6175C328.781 72.0425 328.05 72.255 327.194 72.255ZM323.063 76.08V62.82H324.185V69.7305H324.321V76.08H323.063ZM327.067 71.0905C327.707 71.0905 328.24 70.929 328.665 70.606C329.09 70.283 329.407 69.8438 329.617 69.2885C329.832 68.7275 329.94 68.0985 329.94 67.4015C329.94 66.7102 329.835 66.0868 329.625 65.5315C329.416 64.9762 329.096 64.537 328.665 64.214C328.24 63.891 327.699 63.7295 327.041 63.7295C326.401 63.7295 325.868 63.8853 325.443 64.197C325.024 64.5087 324.71 64.9422 324.5 65.4975C324.29 66.0472 324.185 66.6818 324.185 67.4015C324.185 68.1098 324.29 68.7445 324.5 69.3055C324.71 69.8608 325.027 70.2972 325.452 70.6145C325.877 70.9318 326.415 71.0905 327.067 71.0905ZM335.759 72.255C335.068 72.255 334.487 72.1303 334.016 71.881C333.552 71.6317 333.203 71.3002 332.971 70.8865C332.739 70.4728 332.622 70.0223 332.622 69.535C332.622 69.0363 332.722 68.6113 332.92 68.26C333.124 67.903 333.399 67.6112 333.744 67.3845C334.096 67.1578 334.501 66.985 334.96 66.866C335.425 66.7527 335.937 66.6535 336.498 66.5685C337.065 66.4778 337.618 66.4013 338.156 66.339C338.7 66.271 339.176 66.2058 339.584 66.1435L339.142 66.4155C339.159 65.5088 338.983 64.8373 338.615 64.401C338.247 63.9647 337.606 63.7465 336.694 63.7465C336.065 63.7465 335.532 63.8882 335.096 64.1715C334.665 64.4548 334.362 64.9025 334.186 65.5145L332.971 65.1575C333.181 64.3358 333.603 63.6983 334.237 63.245C334.872 62.7917 335.697 62.565 336.711 62.565C337.55 62.565 338.261 62.7237 338.844 63.041C339.434 63.3527 339.85 63.806 340.094 64.401C340.207 64.6673 340.281 64.9648 340.315 65.2935C340.349 65.6222 340.366 65.9565 340.366 66.2965V72H339.252V69.6965L339.575 69.8325C339.264 70.6202 338.779 71.2208 338.122 71.6345C337.465 72.0482 336.677 72.255 335.759 72.255ZM335.903 71.1755C336.487 71.1755 336.997 71.0707 337.433 70.861C337.87 70.6513 338.221 70.3652 338.487 70.0025C338.754 69.6342 338.927 69.2205 339.006 68.7615C339.074 68.4668 339.111 68.1438 339.116 67.7925C339.122 67.4355 339.125 67.1692 339.125 66.9935L339.601 67.24C339.176 67.2967 338.714 67.3533 338.215 67.41C337.722 67.4667 337.235 67.5318 336.753 67.6055C336.277 67.6792 335.847 67.767 335.461 67.869C335.201 67.9427 334.949 68.0475 334.705 68.1835C334.461 68.3138 334.26 68.4895 334.101 68.7105C333.948 68.9315 333.872 69.2063 333.872 69.535C333.872 69.8013 333.937 70.0592 334.067 70.3085C334.203 70.5578 334.419 70.7647 334.713 70.929C335.014 71.0933 335.41 71.1755 335.903 71.1755ZM342.57 72V62.82H343.82V66.8065H348.996V62.82H350.246V72H348.996V68.005H343.82V72H342.57ZM352.614 72V62.82H353.864V66.8065H359.04V62.82H360.29V72H359.04V68.005H353.864V72H352.614ZM362.675 72L362.658 62.82H363.916V66.2795H365.514C365.78 66.2795 366.041 66.2852 366.296 66.2965C366.551 66.3078 366.781 66.3305 366.985 66.3645C367.438 66.4552 367.84 66.6082 368.192 66.8235C368.543 67.0388 368.821 67.3363 369.025 67.716C369.229 68.09 369.331 68.5632 369.331 69.1355C369.331 69.9232 369.127 70.5437 368.719 70.997C368.311 71.4503 367.798 71.745 367.18 71.881C366.948 71.932 366.696 71.966 366.424 71.983C366.152 71.9943 365.885 72 365.625 72H362.675ZM363.916 70.929H365.574C365.761 70.929 365.973 70.9233 366.211 70.912C366.449 70.9007 366.659 70.8695 366.84 70.8185C367.146 70.7335 367.421 70.5635 367.665 70.3085C367.914 70.0478 368.039 69.6568 368.039 69.1355C368.039 68.6198 367.92 68.2317 367.682 67.971C367.444 67.7047 367.126 67.529 366.73 67.444C366.548 67.4043 366.356 67.3788 366.152 67.3675C365.953 67.3562 365.761 67.3505 365.574 67.3505H363.916V70.929ZM370.427 72V62.82H371.677V72H370.427ZM373.035 72L376.622 67.359L373.112 62.82H374.608L377.353 66.3985L380.073 62.82H381.569L378.059 67.359L381.654 72H380.15L377.353 68.3195L374.54 72H373.035ZM386.415 72L386.423 62.82H387.681V67.24L391.778 62.82H393.444L389.143 67.41L394.005 72H392.186L387.681 67.58V72H386.415ZM398.524 72.255C397.612 72.255 396.833 72.0482 396.187 71.6345C395.541 71.2208 395.045 70.6485 394.699 69.9175C394.354 69.1865 394.181 68.3478 394.181 67.4015C394.181 66.4382 394.357 65.5938 394.708 64.8685C395.059 64.1432 395.558 63.5793 396.204 63.177C396.856 62.769 397.629 62.565 398.524 62.565C399.442 62.565 400.224 62.7718 400.87 63.1855C401.522 63.5935 402.018 64.163 402.358 64.894C402.704 65.6193 402.876 66.4552 402.876 67.4015C402.876 68.3648 402.704 69.212 402.358 69.943C402.012 70.6683 401.514 71.235 400.862 71.643C400.21 72.051 399.431 72.255 398.524 72.255ZM398.524 71.0565C399.544 71.0565 400.304 70.7193 400.802 70.045C401.301 69.365 401.55 68.4838 401.55 67.4015C401.55 66.2908 401.298 65.4068 400.794 64.7495C400.295 64.0922 399.539 63.7635 398.524 63.7635C397.839 63.7635 397.272 63.9193 396.824 64.231C396.382 64.537 396.051 64.9648 395.83 65.5145C395.615 66.0585 395.507 66.6875 395.507 67.4015C395.507 68.5065 395.762 69.3933 396.272 70.062C396.782 70.725 397.533 71.0565 398.524 71.0565ZM404.072 74.04V70.929C404.593 70.929 404.967 70.7618 405.194 70.4275C405.42 70.0875 405.604 69.5463 405.746 68.804C405.842 68.3223 405.922 67.8038 405.984 67.2485C406.046 66.6932 406.1 66.0585 406.146 65.3445C406.191 64.6248 406.233 63.7833 406.273 62.82H412.342V70.929H413.226V74.04H412.019V72H405.27V74.04H404.072ZM406.188 70.929H411.101V63.891H407.429C407.412 64.3217 407.387 64.7778 407.353 65.2595C407.324 65.7412 407.287 66.2228 407.242 66.7045C407.202 67.1862 407.154 67.6395 407.098 68.0645C407.047 68.4838 406.984 68.8522 406.911 69.1695C406.826 69.5775 406.732 69.926 406.63 70.215C406.534 70.504 406.386 70.742 406.188 70.929ZM418.762 72.255C417.849 72.255 417.07 72.0482 416.424 71.6345C415.778 71.2208 415.282 70.6485 414.937 69.9175C414.591 69.1865 414.418 68.3478 414.418 67.4015C414.418 66.4382 414.594 65.5938 414.945 64.8685C415.297 64.1432 415.795 63.5793 416.441 63.177C417.093 62.769 417.866 62.565 418.762 62.565C419.68 62.565 420.462 62.7718 421.108 63.1855C421.759 63.5935 422.255 64.163 422.595 64.894C422.941 65.6193 423.114 66.4552 423.114 67.4015C423.114 68.3648 422.941 69.212 422.595 69.943C422.25 70.6683 421.751 71.235 421.099 71.643C420.448 72.051 419.668 72.255 418.762 72.255ZM418.762 71.0565C419.782 71.0565 420.541 70.7193 421.04 70.045C421.538 69.365 421.788 68.4838 421.788 67.4015C421.788 66.2908 421.536 65.4068 421.031 64.7495C420.533 64.0922 419.776 63.7635 418.762 63.7635C418.076 63.7635 417.509 63.9193 417.062 64.231C416.62 64.537 416.288 64.9648 416.067 65.5145C415.852 66.0585 415.744 66.6875 415.744 67.4015C415.744 68.5065 415.999 69.3933 416.509 70.062C417.019 70.725 417.77 71.0565 418.762 71.0565ZM424.98 72V62.82H428.763C428.955 62.82 429.188 62.8313 429.46 62.854C429.737 62.8767 429.995 62.9192 430.233 62.9815C430.749 63.1175 431.163 63.3952 431.474 63.8145C431.792 64.2338 431.95 64.7382 431.95 65.3275C431.95 65.6562 431.899 65.9508 431.797 66.2115C431.701 66.4665 431.562 66.6875 431.381 66.8745C431.296 66.9708 431.202 67.0558 431.1 67.1295C430.998 67.1975 430.899 67.2542 430.803 67.2995C430.984 67.3335 431.18 67.4128 431.389 67.5375C431.718 67.7302 431.967 67.9908 432.137 68.3195C432.307 68.6425 432.392 69.0363 432.392 69.501C432.392 70.13 432.242 70.6428 431.942 71.0395C431.641 71.4362 431.239 71.7082 430.735 71.8555C430.508 71.9178 430.262 71.9575 429.995 71.9745C429.735 71.9915 429.488 72 429.256 72H424.98ZM426.238 70.9375H429.196C429.315 70.9375 429.465 70.929 429.647 70.912C429.828 70.8893 429.99 70.861 430.131 70.827C430.466 70.742 430.709 70.572 430.862 70.317C431.021 70.0563 431.1 69.773 431.1 69.467C431.1 69.0647 430.981 68.736 430.743 68.481C430.511 68.2203 430.199 68.0617 429.808 68.005C429.678 67.9767 429.542 67.9597 429.4 67.954C429.259 67.9483 429.131 67.9455 429.018 67.9455H426.238V70.9375ZM426.238 66.8745H428.805C428.953 66.8745 429.117 66.866 429.298 66.849C429.485 66.8263 429.647 66.7895 429.783 66.7385C430.077 66.6365 430.293 66.4608 430.429 66.2115C430.57 65.9622 430.641 65.6902 430.641 65.3955C430.641 65.0725 430.565 64.7892 430.412 64.5455C430.264 64.3018 430.041 64.1318 429.74 64.0355C429.536 63.9618 429.315 63.9193 429.077 63.908C428.845 63.8967 428.698 63.891 428.635 63.891H426.238V66.8745ZM437.481 72V62.82H438.731V66.8065H443.907V62.82H445.157V72H443.907V68.005H438.731V72H437.481ZM450.16 72.255C449.469 72.255 448.888 72.1303 448.418 71.881C447.953 71.6317 447.605 71.3002 447.372 70.8865C447.14 70.4728 447.024 70.0223 447.024 69.535C447.024 69.0363 447.123 68.6113 447.321 68.26C447.525 67.903 447.8 67.6112 448.146 67.3845C448.497 67.1578 448.902 66.985 449.361 66.866C449.826 66.7527 450.339 66.6535 450.9 66.5685C451.466 66.4778 452.019 66.4013 452.557 66.339C453.101 66.271 453.577 66.2058 453.985 66.1435L453.543 66.4155C453.56 65.5088 453.385 64.8373 453.016 64.401C452.648 63.9647 452.008 63.7465 451.095 63.7465C450.466 63.7465 449.934 63.8882 449.497 64.1715C449.067 64.4548 448.763 64.9025 448.588 65.5145L447.372 65.1575C447.582 64.3358 448.004 63.6983 448.639 63.245C449.273 62.7917 450.098 62.565 451.112 62.565C451.951 62.565 452.662 62.7237 453.246 63.041C453.835 63.3527 454.252 63.806 454.495 64.401C454.609 64.6673 454.682 64.9648 454.716 65.2935C454.75 65.6222 454.767 65.9565 454.767 66.2965V72H453.654V69.6965L453.977 69.8325C453.665 70.6202 453.181 71.2208 452.523 71.6345C451.866 72.0482 451.078 72.255 450.16 72.255ZM450.305 71.1755C450.888 71.1755 451.398 71.0707 451.835 70.861C452.271 70.6513 452.622 70.3652 452.889 70.0025C453.155 69.6342 453.328 69.2205 453.407 68.7615C453.475 68.4668 453.512 68.1438 453.518 67.7925C453.523 67.4355 453.526 67.1692 453.526 66.9935L454.002 67.24C453.577 67.2967 453.115 67.3533 452.617 67.41C452.124 67.4667 451.636 67.5318 451.155 67.6055C450.679 67.6792 450.248 67.767 449.863 67.869C449.602 67.9427 449.35 68.0475 449.106 68.1835C448.863 68.3138 448.661 68.4895 448.503 68.7105C448.35 68.9315 448.273 69.2063 448.273 69.535C448.273 69.8013 448.338 70.0592 448.469 70.3085C448.605 70.5578 448.82 70.7647 449.115 70.929C449.415 71.0933 449.812 71.1755 450.305 71.1755ZM212.182 91V81.82H219.483V91H218.234V83.0185H213.431V91H212.182ZM225.753 91.255C224.858 91.255 224.082 91.0567 223.424 90.66C222.773 90.2633 222.265 89.7052 221.903 88.9855C221.54 88.2658 221.359 87.4215 221.359 86.4525C221.359 85.4495 221.537 84.5825 221.894 83.8515C222.251 83.1205 222.753 82.5567 223.399 82.16C224.05 81.7633 224.818 81.565 225.702 81.565C226.609 81.565 227.382 81.7747 228.023 82.194C228.663 82.6077 229.148 83.2027 229.476 83.979C229.805 84.7553 229.955 85.6818 229.927 86.7585H228.652V86.3165C228.629 85.1265 228.371 84.2283 227.878 83.622C227.391 83.0157 226.677 82.7125 225.736 82.7125C224.75 82.7125 223.994 83.0327 223.467 83.673C222.945 84.3133 222.685 85.2257 222.685 86.41C222.685 87.566 222.945 88.4642 223.467 89.1045C223.994 89.7392 224.739 90.0565 225.702 90.0565C226.36 90.0565 226.932 89.9063 227.419 89.606C227.912 89.3 228.3 88.8608 228.584 88.2885L229.748 88.739C229.386 89.538 228.85 90.1585 228.142 90.6005C227.439 91.0368 226.643 91.255 225.753 91.255ZM222.243 86.7585V85.713H229.255V86.7585H222.243ZM237.432 91V87.583C237.126 87.736 236.749 87.8692 236.301 87.9825C235.853 88.0958 235.372 88.1525 234.856 88.1525C233.927 88.1525 233.173 87.9457 232.595 87.532C232.017 87.1183 231.64 86.5205 231.465 85.7385C231.408 85.5062 231.368 85.2597 231.346 84.999C231.329 84.7383 231.317 84.5032 231.312 84.2935C231.306 84.0838 231.303 83.9337 231.303 83.843V81.82H232.561V83.843C232.561 84.03 232.567 84.2425 232.578 84.4805C232.589 84.7185 232.615 84.9508 232.655 85.1775C232.768 85.7952 233.023 86.2627 233.42 86.58C233.822 86.8973 234.386 87.056 235.111 87.056C235.564 87.056 235.992 86.9993 236.395 86.886C236.803 86.767 237.148 86.6083 237.432 86.41V81.82H238.681V91H237.432ZM243.687 91.255C242.995 91.255 242.414 91.1303 241.944 90.881C241.479 90.6317 241.131 90.3002 240.899 89.8865C240.666 89.4728 240.55 89.0223 240.55 88.535C240.55 88.0363 240.649 87.6113 240.848 87.26C241.052 86.903 241.326 86.6112 241.672 86.3845C242.023 86.1578 242.429 85.985 242.888 85.866C243.352 85.7527 243.865 85.6535 244.426 85.5685C244.993 85.4778 245.545 85.4013 246.084 85.339C246.628 85.271 247.104 85.2058 247.512 85.1435L247.07 85.4155C247.087 84.5088 246.911 83.8373 246.543 83.401C246.174 82.9647 245.534 82.7465 244.622 82.7465C243.993 82.7465 243.46 82.8882 243.024 83.1715C242.593 83.4548 242.29 83.9025 242.114 84.5145L240.899 84.1575C241.108 83.3358 241.53 82.6983 242.165 82.245C242.8 81.7917 243.624 81.565 244.639 81.565C245.477 81.565 246.188 81.7237 246.772 82.041C247.361 82.3527 247.778 82.806 248.022 83.401C248.135 83.6673 248.209 83.9648 248.243 84.2935C248.277 84.6222 248.294 84.9565 248.294 85.2965V91H247.18V88.6965L247.503 88.8325C247.191 89.6202 246.707 90.2208 246.05 90.6345C245.392 91.0482 244.605 91.255 243.687 91.255ZM243.831 90.1755C244.415 90.1755 244.925 90.0707 245.361 89.861C245.797 89.6513 246.149 89.3652 246.415 89.0025C246.681 88.6342 246.854 88.2205 246.934 87.7615C247.002 87.4668 247.038 87.1438 247.044 86.7925C247.05 86.4355 247.053 86.1692 247.053 85.9935L247.529 86.24C247.104 86.2967 246.642 86.3533 246.143 86.41C245.65 86.4667 245.163 86.5318 244.681 86.6055C244.205 86.6792 243.774 86.767 243.389 86.869C243.128 86.9427 242.876 87.0475 242.633 87.1835C242.389 87.3138 242.188 87.4895 242.029 87.7105C241.876 87.9315 241.8 88.2063 241.8 88.535C241.8 88.8013 241.865 89.0592 241.995 89.3085C242.131 89.5578 242.346 89.7647 242.641 89.929C242.941 90.0933 243.338 90.1755 243.831 90.1755ZM252.997 91V82.976H249.741V81.82H257.502V82.976H254.246V91H252.997ZM259.131 91L259.114 81.82H260.372V85.2795H262.523C262.789 85.2795 263.05 85.2852 263.305 85.2965C263.565 85.3078 263.795 85.3305 263.993 85.3645C264.446 85.4495 264.849 85.5997 265.2 85.815C265.557 86.0303 265.835 86.3278 266.033 86.7075C266.237 87.0872 266.339 87.5632 266.339 88.1355C266.339 88.9232 266.135 89.5437 265.727 89.997C265.325 90.4503 264.815 90.745 264.197 90.881C263.965 90.932 263.713 90.966 263.441 90.983C263.169 90.9943 262.899 91 262.633 91H259.131ZM260.372 89.929H262.582C262.775 89.929 262.99 89.9233 263.228 89.912C263.466 89.9007 263.676 89.8695 263.857 89.8185C264.157 89.7335 264.429 89.5635 264.673 89.3085C264.922 89.0478 265.047 88.6568 265.047 88.1355C265.047 87.6198 264.928 87.2317 264.69 86.971C264.452 86.7047 264.135 86.529 263.738 86.444C263.562 86.4043 263.373 86.3788 263.169 86.3675C262.965 86.3562 262.769 86.3505 262.582 86.3505H260.372V89.929Z" fill="#6B7DA1"/>
</g>
<circle opacity="0.5" cx="78" cy="78" r="78" fill="url(#paint0_linear_49_44)"/>
<circle opacity="0.4" cx="78" cy="78" r="64" fill="url(#paint1_linear_49_44)"/>
<circle cx="78" cy="78" r="48" fill="url(#paint2_linear_49_44)"/>
<path d="M66.98 91.54C65.384 91.54 63.944 91.168 62.66 90.424C61.388 89.68 60.38 88.672 59.636 87.4C58.892 86.116 58.52 84.676 58.52 83.08V73C58.52 71.404 58.892 69.97 59.636 68.698C60.38 67.414 61.388 66.4 62.66 65.656C63.944 64.912 65.384 64.54 66.98 64.54C68.576 64.54 70.01 64.912 71.282 65.656C72.566 66.4 73.58 67.414 74.324 68.698C75.068 69.97 75.44 71.404 75.44 73V83.08C75.44 84.676 75.068 86.116 74.324 87.4C73.58 88.672 72.566 89.68 71.282 90.424C70.01 91.168 68.576 91.54 66.98 91.54ZM66.98 88.984C68.048 88.984 69.02 88.726 69.896 88.21C70.772 87.682 71.468 86.98 71.984 86.104C72.5 85.228 72.758 84.262 72.758 83.206V72.874C72.758 71.806 72.5 70.834 71.984 69.958C71.468 69.082 70.772 68.386 69.896 67.87C69.02 67.342 68.048 67.078 66.98 67.078C65.912 67.078 64.94 67.342 64.064 67.87C63.188 68.386 62.492 69.082 61.976 69.958C61.46 70.834 61.202 71.806 61.202 72.874V83.206C61.202 84.262 61.46 85.228 61.976 86.104C62.492 86.98 63.188 87.682 64.064 88.21C64.94 88.726 65.912 88.984 66.98 88.984ZM79.7727 90.982L79.7907 88.57L91.5087 77.986C92.5167 77.074 93.1827 76.21 93.5067 75.394C93.8427 74.566 94.0107 73.702 94.0107 72.802C94.0107 71.734 93.7587 70.768 93.2547 69.904C92.7507 69.04 92.0727 68.356 91.2207 67.852C90.3687 67.336 89.4147 67.078 88.3587 67.078C87.2547 67.078 86.2707 67.342 85.4067 67.87C84.5427 68.398 83.8587 69.094 83.3547 69.958C82.8627 70.822 82.6227 71.764 82.6347 72.784H79.9347C79.9347 71.212 80.3067 69.802 81.0507 68.554C81.7947 67.306 82.8027 66.328 84.0747 65.62C85.3467 64.9 86.7867 64.54 88.3947 64.54C89.9667 64.54 91.3767 64.912 92.6247 65.656C93.8847 66.388 94.8747 67.384 95.5947 68.644C96.3267 69.892 96.6927 71.284 96.6927 72.82C96.6927 73.9 96.5607 74.854 96.2967 75.682C96.0447 76.498 95.6427 77.26 95.0907 77.968C94.5507 78.664 93.8607 79.384 93.0207 80.128L82.6167 89.524L82.2027 88.444H96.6927V90.982H79.7727Z" fill="white"/>
<defs>
<filter id="filter0_d_49_44" x="71" y="8" width="490" height="140" filterUnits="userSpaceOnUse" color-interpolation-filters="sRGB">
<feFlood flood-opacity="0" result="BackgroundImageFix"/>
<feColorMatrix in="SourceAlpha" type="matrix" values="0 0 0 0 0 0 0 0 0 0 0 0 0 0 0 0 0 0 127 0" result="hardAlpha"/>
<feOffset dx="3"/>
<feGaussianBlur stdDeviation="5"/>
<feComposite in2="hardAlpha" operator="out"/>
<feColorMatrix type="matrix" values="0 0 0 0 0.420833 0 0 0 0 0.420833 0 0 0 0 0.420833 0 0 0 0.25 0"/>
<feBlend mode="normal" in2="BackgroundImageFix" result="effect1_dropShadow_49_44"/>
<feBlend mode="normal" in="SourceGraphic" in2="effect1_dropShadow_49_44" result="shape"/>
</filter>
<linearGradient id="paint0_linear_49_44" x1="156" y1="77.7374" x2="9.78543e-07" y2="77.7374" gradientUnits="userSpaceOnUse">
<stop stop-color="#267ABE"/>
<stop offset="1" stop-color="#195697"/>
</linearGradient>
<linearGradient id="paint1_linear_49_44" x1="142" y1="77.7845" x2="14" y2="77.7845" gradientUnits="userSpaceOnUse">
<stop stop-color="#267ABE"/>
<stop offset="1" stop-color="#195697"/>
</linearGradient>
<linearGradient id="paint2_linear_49_44" x1="126" y1="77.8384" x2="30" y2="77.8384" gradientUnits="userSpaceOnUse">
<stop stop-color="#267ABE"/>
<stop offset="1" stop-color="#195697"/>
</linearGradient>
</defs>
</svg>
