<svg width="1163" height="162" viewBox="0 0 1163 162" fill="none" xmlns="http://www.w3.org/2000/svg">
<g filter="url(#filter0_d_49_65)">
<rect x="81" y="21" width="470" height="120" rx="16" fill="white"/>
<path d="M220.146 78.255C218.927 78.255 217.899 77.9858 217.06 77.4475C216.221 76.9035 215.587 76.1527 215.156 75.195C214.725 74.2373 214.51 73.1323 214.51 71.88C214.51 70.6277 214.725 69.5227 215.156 68.565C215.587 67.6073 216.221 66.8593 217.06 66.321C217.899 65.777 218.927 65.505 220.146 65.505C221.37 65.505 222.398 65.777 223.231 66.321C224.07 66.8593 224.704 67.6073 225.135 68.565C225.571 69.5227 225.79 70.6277 225.79 71.88C225.79 73.1323 225.571 74.2373 225.135 75.195C224.704 76.1527 224.07 76.9035 223.231 77.4475C222.398 77.9858 221.37 78.255 220.146 78.255ZM220.146 77.0565C221.103 77.0565 221.902 76.8383 222.542 76.402C223.183 75.9657 223.662 75.3593 223.979 74.583C224.302 73.801 224.464 72.9 224.464 71.88C224.464 70.86 224.302 69.9618 223.979 69.1855C223.662 68.4092 223.183 67.8028 222.542 67.3665C221.902 66.9302 221.103 66.7092 220.146 66.7035C219.188 66.7035 218.392 66.9217 217.757 67.358C217.122 67.7943 216.644 68.4035 216.321 69.1855C216.003 69.9618 215.842 70.86 215.836 71.88C215.83 72.9 215.986 73.7982 216.304 74.5745C216.627 75.3452 217.108 75.9515 217.749 76.3935C218.389 76.8298 219.188 77.0508 220.146 77.0565ZM229.982 78V69.976H226.727V68.82H234.487V69.976H231.232V78H229.982ZM236.099 78V68.82H243.401V78H242.151V70.0185H237.349V78H236.099ZM249.909 78.255C249.065 78.255 248.351 78.0425 247.767 77.6175C247.184 77.1868 246.742 76.606 246.441 75.875C246.141 75.1383 245.991 74.3138 245.991 73.4015C245.991 72.4722 246.141 71.6448 246.441 70.9195C246.747 70.1885 247.195 69.6133 247.784 69.194C248.374 68.7747 249.099 68.565 249.96 68.565C250.799 68.565 251.519 68.7775 252.119 69.2025C252.72 69.6275 253.179 70.2055 253.496 70.9365C253.819 71.6675 253.981 72.4892 253.981 73.4015C253.981 74.3195 253.819 75.144 253.496 75.875C253.173 76.606 252.709 77.1868 252.102 77.6175C251.496 78.0425 250.765 78.255 249.909 78.255ZM245.778 82.08V68.82H246.9V75.7305H247.036V82.08H245.778ZM249.782 77.0905C250.422 77.0905 250.955 76.929 251.38 76.606C251.805 76.283 252.122 75.8438 252.332 75.2885C252.547 74.7275 252.655 74.0985 252.655 73.4015C252.655 72.7102 252.55 72.0868 252.34 71.5315C252.131 70.9762 251.81 70.537 251.38 70.214C250.955 69.891 250.414 69.7295 249.756 69.7295C249.116 69.7295 248.583 69.8853 248.158 70.197C247.739 70.5087 247.424 70.9422 247.215 71.4975C247.005 72.0472 246.9 72.6818 246.9 73.4015C246.9 74.1098 247.005 74.7445 247.215 75.3055C247.424 75.8608 247.742 76.2972 248.167 76.6145C248.592 76.9318 249.13 77.0905 249.782 77.0905ZM258.474 78.255C257.782 78.255 257.202 78.1303 256.731 77.881C256.267 77.6317 255.918 77.3002 255.686 76.8865C255.453 76.4728 255.337 76.0223 255.337 75.535C255.337 75.0363 255.436 74.6113 255.635 74.26C255.839 73.903 256.114 73.6112 256.459 73.3845C256.811 73.1578 257.216 72.985 257.675 72.866C258.139 72.7527 258.652 72.6535 259.213 72.5685C259.78 72.4778 260.332 72.4013 260.871 72.339C261.415 72.271 261.891 72.2058 262.299 72.1435L261.857 72.4155C261.874 71.5088 261.698 70.8373 261.33 70.401C260.961 69.9647 260.321 69.7465 259.409 69.7465C258.78 69.7465 258.247 69.8882 257.811 70.1715C257.38 70.4548 257.077 70.9025 256.901 71.5145L255.686 71.1575C255.895 70.3358 256.318 69.6983 256.952 69.245C257.587 68.7917 258.411 68.565 259.426 68.565C260.264 68.565 260.976 68.7237 261.559 69.041C262.149 69.3527 262.565 69.806 262.809 70.401C262.922 70.6673 262.996 70.9648 263.03 71.2935C263.064 71.6222 263.081 71.9565 263.081 72.2965V78H261.967V75.6965L262.29 75.8325C261.979 76.6202 261.494 77.2208 260.837 77.6345C260.179 78.0482 259.392 78.255 258.474 78.255ZM258.618 77.1755C259.202 77.1755 259.712 77.0707 260.148 76.861C260.585 76.6513 260.936 76.3652 261.202 76.0025C261.469 75.6342 261.641 75.2205 261.721 74.7615C261.789 74.4668 261.826 74.1438 261.831 73.7925C261.837 73.4355 261.84 73.1692 261.84 72.9935L262.316 73.24C261.891 73.2967 261.429 73.3533 260.93 73.41C260.437 73.4667 259.95 73.5318 259.468 73.6055C258.992 73.6792 258.562 73.767 258.176 73.869C257.916 73.9427 257.663 74.0475 257.42 74.1835C257.176 74.3138 256.975 74.4895 256.816 74.7105C256.663 74.9315 256.587 75.2063 256.587 75.535C256.587 75.8013 256.652 76.0592 256.782 76.3085C256.918 76.5578 257.134 76.7647 257.428 76.929C257.729 77.0933 258.125 77.1755 258.618 77.1755ZM265.285 78V68.82H269.068C269.26 68.82 269.493 68.8313 269.765 68.854C270.042 68.8767 270.3 68.9192 270.538 68.9815C271.054 69.1175 271.467 69.3952 271.779 69.8145C272.096 70.2338 272.255 70.7382 272.255 71.3275C272.255 71.6562 272.204 71.9508 272.102 72.2115C272.006 72.4665 271.867 72.6875 271.686 72.8745C271.601 72.9708 271.507 73.0558 271.405 73.1295C271.303 73.1975 271.204 73.2542 271.108 73.2995C271.289 73.3335 271.484 73.4128 271.694 73.5375C272.023 73.7302 272.272 73.9908 272.442 74.3195C272.612 74.6425 272.697 75.0363 272.697 75.501C272.697 76.13 272.547 76.6428 272.247 77.0395C271.946 77.4362 271.544 77.7082 271.04 77.8555C270.813 77.9178 270.566 77.9575 270.3 77.9745C270.039 77.9915 269.793 78 269.561 78H265.285ZM266.543 76.9375H269.501C269.62 76.9375 269.77 76.929 269.952 76.912C270.133 76.8893 270.294 76.861 270.436 76.827C270.77 76.742 271.014 76.572 271.167 76.317C271.326 76.0563 271.405 75.773 271.405 75.467C271.405 75.0647 271.286 74.736 271.048 74.481C270.816 74.2203 270.504 74.0617 270.113 74.005C269.983 73.9767 269.847 73.9597 269.705 73.954C269.563 73.9483 269.436 73.9455 269.323 73.9455H266.543V76.9375ZM266.543 72.8745H269.11C269.257 72.8745 269.422 72.866 269.603 72.849C269.79 72.8263 269.952 72.7895 270.088 72.7385C270.382 72.6365 270.598 72.4608 270.734 72.2115C270.875 71.9622 270.946 71.6902 270.946 71.3955C270.946 71.0725 270.87 70.7892 270.717 70.5455C270.569 70.3018 270.345 70.1318 270.045 70.0355C269.841 69.9618 269.62 69.9193 269.382 69.908C269.15 69.8967 269.002 69.891 268.94 69.891H266.543V72.8745ZM274.383 78L274.391 68.82H275.649V73.24L279.746 68.82H281.412L277.111 73.41L281.973 78H280.154L275.649 73.58V78H274.383ZM285.451 78.255C284.76 78.255 284.179 78.1303 283.709 77.881C283.244 77.6317 282.896 77.3002 282.663 76.8865C282.431 76.4728 282.315 76.0223 282.315 75.535C282.315 75.0363 282.414 74.6113 282.612 74.26C282.816 73.903 283.091 73.6112 283.437 73.3845C283.788 73.1578 284.193 72.985 284.652 72.866C285.117 72.7527 285.63 72.6535 286.191 72.5685C286.757 72.4778 287.31 72.4013 287.848 72.339C288.392 72.271 288.868 72.2058 289.276 72.1435L288.834 72.4155C288.851 71.5088 288.676 70.8373 288.307 70.401C287.939 69.9647 287.299 69.7465 286.386 69.7465C285.757 69.7465 285.225 69.8882 284.788 70.1715C284.358 70.4548 284.054 70.9025 283.879 71.5145L282.663 71.1575C282.873 70.3358 283.295 69.6983 283.93 69.245C284.564 68.7917 285.389 68.565 286.403 68.565C287.242 68.565 287.953 68.7237 288.537 69.041C289.126 69.3527 289.543 69.806 289.786 70.401C289.9 70.6673 289.973 70.9648 290.007 71.2935C290.041 71.6222 290.058 71.9565 290.058 72.2965V78H288.945V75.6965L289.268 75.8325C288.956 76.6202 288.472 77.2208 287.814 77.6345C287.157 78.0482 286.369 78.255 285.451 78.255ZM285.596 77.1755C286.179 77.1755 286.689 77.0707 287.126 76.861C287.562 76.6513 287.913 76.3652 288.18 76.0025C288.446 75.6342 288.619 75.2205 288.698 74.7615C288.766 74.4668 288.803 74.1438 288.809 73.7925C288.814 73.4355 288.817 73.1692 288.817 72.9935L289.293 73.24C288.868 73.2967 288.406 73.3533 287.908 73.41C287.415 73.4667 286.927 73.5318 286.446 73.6055C285.97 73.6792 285.539 73.767 285.154 73.869C284.893 73.9427 284.641 74.0475 284.397 74.1835C284.154 74.3138 283.952 74.4895 283.794 74.7105C283.641 74.9315 283.564 75.2063 283.564 75.535C283.564 75.8013 283.629 76.0592 283.76 76.3085C283.896 76.5578 284.111 76.7647 284.406 76.929C284.706 77.0933 285.103 77.1755 285.596 77.1755ZM299.508 78.255C298.596 78.255 297.816 78.0482 297.17 77.6345C296.524 77.2208 296.029 76.6485 295.683 75.9175C295.337 75.1865 295.164 74.3478 295.164 73.4015C295.164 72.4382 295.34 71.5938 295.691 70.8685C296.043 70.1432 296.541 69.5793 297.187 69.177C297.839 68.769 298.613 68.565 299.508 68.565C300.426 68.565 301.208 68.7718 301.854 69.1855C302.506 69.5935 303.001 70.163 303.341 70.894C303.687 71.6193 303.86 72.4552 303.86 73.4015C303.86 74.3648 303.687 75.212 303.341 75.943C302.996 76.6683 302.497 77.235 301.845 77.643C301.194 78.051 300.415 78.255 299.508 78.255ZM299.508 77.0565C300.528 77.0565 301.287 76.7193 301.786 76.045C302.285 75.365 302.534 74.4838 302.534 73.4015C302.534 72.2908 302.282 71.4068 301.777 70.7495C301.279 70.0922 300.522 69.7635 299.508 69.7635C298.822 69.7635 298.256 69.9193 297.808 70.231C297.366 70.537 297.034 70.9648 296.813 71.5145C296.598 72.0585 296.49 72.6875 296.49 73.4015C296.49 74.5065 296.745 75.3933 297.255 76.062C297.765 76.725 298.516 77.0565 299.508 77.0565ZM307.993 78V69.976H304.738V68.82H312.498V69.976H309.243V78H307.993ZM319.737 78V74.583C319.431 74.736 319.054 74.8692 318.607 74.9825C318.159 75.0958 317.677 75.1525 317.162 75.1525C316.232 75.1525 315.479 74.9457 314.901 74.532C314.323 74.1183 313.946 73.5205 313.77 72.7385C313.714 72.5062 313.674 72.2597 313.651 71.999C313.634 71.7383 313.623 71.5032 313.617 71.2935C313.612 71.0838 313.609 70.9337 313.609 70.843V68.82H314.867V70.843C314.867 71.03 314.872 71.2425 314.884 71.4805C314.895 71.7185 314.921 71.9508 314.96 72.1775C315.074 72.7952 315.329 73.2627 315.725 73.58C316.128 73.8973 316.691 74.056 317.417 74.056C317.87 74.056 318.298 73.9993 318.7 73.886C319.108 73.767 319.454 73.6083 319.737 73.41V68.82H320.987V78H319.737ZM327.25 78.255C326.355 78.255 325.579 78.0567 324.921 77.66C324.27 77.2633 323.762 76.7052 323.4 75.9855C323.037 75.2658 322.856 74.4215 322.856 73.4525C322.856 72.4495 323.034 71.5825 323.391 70.8515C323.748 70.1205 324.25 69.5567 324.896 69.16C325.547 68.7633 326.315 68.565 327.199 68.565C328.106 68.565 328.879 68.7747 329.52 69.194C330.16 69.6077 330.645 70.2027 330.973 70.979C331.302 71.7553 331.452 72.6818 331.424 73.7585H330.149V73.3165C330.126 72.1265 329.868 71.2283 329.375 70.622C328.888 70.0157 328.174 69.7125 327.233 69.7125C326.247 69.7125 325.491 70.0327 324.964 70.673C324.442 71.3133 324.182 72.2257 324.182 73.41C324.182 74.566 324.442 75.4642 324.964 76.1045C325.491 76.7392 326.236 77.0565 327.199 77.0565C327.857 77.0565 328.429 76.9063 328.916 76.606C329.409 76.3 329.797 75.8608 330.081 75.2885L331.245 75.739C330.883 76.538 330.347 77.1585 329.639 77.6005C328.936 78.0368 328.14 78.255 327.25 78.255ZM323.74 73.7585V72.713H330.752V73.7585H323.74ZM335.684 78V69.976H332.429V68.82H340.189V69.976H336.934V78H335.684ZM344.105 78.255C343.413 78.255 342.832 78.1303 342.362 77.881C341.897 77.6317 341.549 77.3002 341.317 76.8865C341.084 76.4728 340.968 76.0223 340.968 75.535C340.968 75.0363 341.067 74.6113 341.266 74.26C341.47 73.903 341.744 73.6112 342.09 73.3845C342.441 73.1578 342.847 72.985 343.306 72.866C343.77 72.7527 344.283 72.6535 344.844 72.5685C345.411 72.4778 345.963 72.4013 346.502 72.339C347.046 72.271 347.522 72.2058 347.93 72.1435L347.488 72.4155C347.505 71.5088 347.329 70.8373 346.961 70.401C346.592 69.9647 345.952 69.7465 345.04 69.7465C344.411 69.7465 343.878 69.8882 343.442 70.1715C343.011 70.4548 342.708 70.9025 342.532 71.5145L341.317 71.1575C341.526 70.3358 341.948 69.6983 342.583 69.245C343.218 68.7917 344.042 68.565 345.057 68.565C345.895 68.565 346.606 68.7237 347.19 69.041C347.779 69.3527 348.196 69.806 348.44 70.401C348.553 70.6673 348.627 70.9648 348.661 71.2935C348.695 71.6222 348.712 71.9565 348.712 72.2965V78H347.598V75.6965L347.921 75.8325C347.609 76.6202 347.125 77.2208 346.468 77.6345C345.81 78.0482 345.023 78.255 344.105 78.255ZM344.249 77.1755C344.833 77.1755 345.343 77.0707 345.779 76.861C346.215 76.6513 346.567 76.3652 346.833 76.0025C347.099 75.6342 347.272 75.2205 347.352 74.7615C347.42 74.4668 347.456 74.1438 347.462 73.7925C347.468 73.4355 347.471 73.1692 347.471 72.9935L347.947 73.24C347.522 73.2967 347.06 73.3533 346.561 73.41C346.068 73.4667 345.581 73.5318 345.099 73.6055C344.623 73.6792 344.192 73.767 343.807 73.869C343.546 73.9427 343.294 74.0475 343.051 74.1835C342.807 74.3138 342.606 74.4895 342.447 74.7105C342.294 74.9315 342.218 75.2063 342.218 75.535C342.218 75.8013 342.283 76.0592 342.413 76.3085C342.549 76.5578 342.764 76.7647 343.059 76.929C343.359 77.0933 343.756 77.1755 344.249 77.1755ZM358.161 78.255C357.249 78.255 356.47 78.0482 355.824 77.6345C355.178 77.2208 354.682 76.6485 354.336 75.9175C353.991 75.1865 353.818 74.3478 353.818 73.4015C353.818 72.4382 353.993 71.5938 354.345 70.8685C354.696 70.1432 355.195 69.5793 355.841 69.177C356.492 68.769 357.266 68.565 358.161 68.565C359.079 68.565 359.861 68.7718 360.507 69.1855C361.159 69.5935 361.655 70.163 361.995 70.894C362.34 71.6193 362.513 72.4552 362.513 73.4015C362.513 74.3648 362.34 75.212 361.995 75.943C361.649 76.6683 361.15 77.235 360.499 77.643C359.847 78.051 359.068 78.255 358.161 78.255ZM358.161 77.0565C359.181 77.0565 359.941 76.7193 360.439 76.045C360.938 75.365 361.187 74.4838 361.187 73.4015C361.187 72.2908 360.935 71.4068 360.431 70.7495C359.932 70.0922 359.176 69.7635 358.161 69.7635C357.476 69.7635 356.909 69.9193 356.461 70.231C356.019 70.537 355.688 70.9648 355.467 71.5145C355.251 72.0585 355.144 72.6875 355.144 73.4015C355.144 74.5065 355.399 75.3933 355.909 76.062C356.419 76.725 357.17 77.0565 358.161 77.0565ZM367.783 78V68.82H375.085V78H373.835V70.0185H369.033V78H367.783ZM381.593 78.255C380.748 78.255 380.034 78.0425 379.451 77.6175C378.867 77.1868 378.425 76.606 378.125 75.875C377.824 75.1383 377.674 74.3138 377.674 73.4015C377.674 72.4722 377.824 71.6448 378.125 70.9195C378.431 70.1885 378.878 69.6133 379.468 69.194C380.057 68.7747 380.782 68.565 381.644 68.565C382.482 68.565 383.202 68.7775 383.803 69.2025C384.403 69.6275 384.862 70.2055 385.18 70.9365C385.503 71.6675 385.664 72.4892 385.664 73.4015C385.664 74.3195 385.503 75.144 385.18 75.875C384.857 76.606 384.392 77.1868 383.786 77.6175C383.179 78.0425 382.448 78.255 381.593 78.255ZM377.462 82.08V68.82H378.584V75.7305H378.72V82.08H377.462ZM381.465 77.0905C382.106 77.0905 382.638 76.929 383.063 76.606C383.488 76.283 383.806 75.8438 384.015 75.2885C384.231 74.7275 384.338 74.0985 384.338 73.4015C384.338 72.7102 384.233 72.0868 384.024 71.5315C383.814 70.9762 383.494 70.537 383.063 70.214C382.638 69.891 382.097 69.7295 381.44 69.7295C380.799 69.7295 380.267 69.8853 379.842 70.197C379.422 70.5087 379.108 70.9422 378.898 71.4975C378.689 72.0472 378.584 72.6818 378.584 73.4015C378.584 74.1098 378.689 74.7445 378.898 75.3055C379.108 75.8608 379.425 76.2972 379.85 76.6145C380.275 76.9318 380.814 77.0905 381.465 77.0905ZM391.364 78.255C390.452 78.255 389.673 78.0482 389.027 77.6345C388.381 77.2208 387.885 76.6485 387.539 75.9175C387.194 75.1865 387.021 74.3478 387.021 73.4015C387.021 72.4382 387.196 71.5938 387.548 70.8685C387.899 70.1432 388.398 69.5793 389.044 69.177C389.695 68.769 390.469 68.565 391.364 68.565C392.282 68.565 393.064 68.7718 393.71 69.1855C394.362 69.5935 394.858 70.163 395.198 70.894C395.543 71.6193 395.716 72.4552 395.716 73.4015C395.716 74.3648 395.543 75.212 395.198 75.943C394.852 76.6683 394.353 77.235 393.702 77.643C393.05 78.051 392.271 78.255 391.364 78.255ZM391.364 77.0565C392.384 77.0565 393.144 76.7193 393.642 76.045C394.141 75.365 394.39 74.4838 394.39 73.4015C394.39 72.2908 394.138 71.4068 393.634 70.7495C393.135 70.0922 392.379 69.7635 391.364 69.7635C390.679 69.7635 390.112 69.9193 389.664 70.231C389.222 70.537 388.891 70.9648 388.67 71.5145C388.454 72.0585 388.347 72.6875 388.347 73.4015C388.347 74.5065 388.602 75.3933 389.112 76.062C389.622 76.725 390.373 77.0565 391.364 77.0565ZM404.884 68.82V78H403.669V70.8515L398.637 78H397.583V68.82H398.798V75.909L403.839 68.82H404.884ZM410.577 78.255C409.653 78.255 408.845 78.0538 408.154 77.6515C407.468 77.2435 406.927 76.6797 406.531 75.96L407.534 75.3225C407.868 75.8892 408.284 76.3198 408.783 76.6145C409.282 76.9092 409.854 77.0565 410.5 77.0565C411.174 77.0565 411.716 76.9007 412.124 76.589C412.532 76.2773 412.736 75.8495 412.736 75.3055C412.736 74.9315 412.648 74.634 412.472 74.413C412.302 74.192 412.041 74.0333 411.69 73.937C411.344 73.8407 410.911 73.7925 410.39 73.7925H409.302V72.7215H410.373C411.007 72.7215 411.517 72.6082 411.903 72.3815C412.294 72.1492 412.489 71.7865 412.489 71.2935C412.489 70.7722 412.294 70.3868 411.903 70.1375C411.517 69.8825 411.055 69.755 410.517 69.755C409.973 69.755 409.457 69.8683 408.97 70.095C408.488 70.316 408.083 70.6022 407.755 70.9535L406.956 70.112C407.415 69.6077 407.95 69.2252 408.562 68.9645C409.18 68.6982 409.863 68.565 410.611 68.565C411.2 68.565 411.733 68.6698 412.209 68.8795C412.69 69.0835 413.07 69.3838 413.348 69.7805C413.631 70.1772 413.773 70.6532 413.773 71.2085C413.773 71.7298 413.645 72.1803 413.39 72.56C413.141 72.9397 412.787 73.2542 412.328 73.5035L412.26 73.036C412.656 73.1097 412.985 73.2683 413.246 73.512C413.506 73.7557 413.699 74.0475 413.824 74.3875C413.948 74.7275 414.011 75.0732 414.011 75.4245C414.011 76.0082 413.858 76.5125 413.552 76.9375C413.251 77.3568 412.84 77.6827 412.319 77.915C411.803 78.1417 411.223 78.255 410.577 78.255ZM419.72 78.255C418.807 78.255 418.028 78.0482 417.382 77.6345C416.736 77.2208 416.24 76.6485 415.895 75.9175C415.549 75.1865 415.376 74.3478 415.376 73.4015C415.376 72.4382 415.552 71.5938 415.903 70.8685C416.255 70.1432 416.753 69.5793 417.399 69.177C418.051 68.769 418.824 68.565 419.72 68.565C420.638 68.565 421.42 68.7718 422.066 69.1855C422.717 69.5935 423.213 70.163 423.553 70.894C423.899 71.6193 424.072 72.4552 424.072 73.4015C424.072 74.3648 423.899 75.212 423.553 75.943C423.208 76.6683 422.709 77.235 422.057 77.643C421.406 78.051 420.626 78.255 419.72 78.255ZM419.72 77.0565C420.74 77.0565 421.499 76.7193 421.998 76.045C422.496 75.365 422.746 74.4838 422.746 73.4015C422.746 72.2908 422.494 71.4068 421.989 70.7495C421.491 70.0922 420.734 69.7635 419.72 69.7635C419.034 69.7635 418.467 69.9193 418.02 70.231C417.578 70.537 417.246 70.9648 417.025 71.5145C416.81 72.0585 416.702 72.6875 416.702 73.4015C416.702 74.5065 416.957 75.3933 417.467 76.062C417.977 76.725 418.728 77.0565 419.72 77.0565ZM425.938 78V68.82H429.721C429.914 68.82 430.146 68.8313 430.418 68.854C430.696 68.8767 430.953 68.9192 431.191 68.9815C431.707 69.1175 432.121 69.3952 432.432 69.8145C432.75 70.2338 432.908 70.7382 432.908 71.3275C432.908 71.6562 432.857 71.9508 432.755 72.2115C432.659 72.4665 432.52 72.6875 432.339 72.8745C432.254 72.9708 432.16 73.0558 432.058 73.1295C431.956 73.1975 431.857 73.2542 431.761 73.2995C431.942 73.3335 432.138 73.4128 432.347 73.5375C432.676 73.7302 432.925 73.9908 433.095 74.3195C433.265 74.6425 433.35 75.0363 433.35 75.501C433.35 76.13 433.2 76.6428 432.9 77.0395C432.6 77.4362 432.197 77.7082 431.693 77.8555C431.466 77.9178 431.22 77.9575 430.953 77.9745C430.693 77.9915 430.446 78 430.214 78H425.938ZM427.196 76.9375H430.154C430.273 76.9375 430.424 76.929 430.605 76.912C430.786 76.8893 430.948 76.861 431.089 76.827C431.424 76.742 431.667 76.572 431.82 76.317C431.979 76.0563 432.058 75.773 432.058 75.467C432.058 75.0647 431.939 74.736 431.701 74.481C431.469 74.2203 431.157 74.0617 430.766 74.005C430.636 73.9767 430.5 73.9597 430.358 73.954C430.217 73.9483 430.089 73.9455 429.976 73.9455H427.196V76.9375ZM427.196 72.8745H429.763C429.911 72.8745 430.075 72.866 430.256 72.849C430.443 72.8263 430.605 72.7895 430.741 72.7385C431.036 72.6365 431.251 72.4608 431.387 72.2115C431.529 71.9622 431.599 71.6902 431.599 71.3955C431.599 71.0725 431.523 70.7892 431.37 70.5455C431.223 70.3018 430.999 70.1318 430.698 70.0355C430.494 69.9618 430.273 69.9193 430.035 69.908C429.803 69.8967 429.656 69.891 429.593 69.891H427.196V72.8745ZM434.364 80.04V76.929C434.886 76.929 435.26 76.7618 435.486 76.4275C435.713 76.0875 435.897 75.5463 436.039 74.804C436.135 74.3223 436.215 73.8038 436.277 73.2485C436.339 72.6932 436.393 72.0585 436.438 71.3445C436.484 70.6248 436.526 69.7833 436.566 68.82H442.635V76.929H443.519V80.04H442.312V78H435.563V80.04H434.364ZM436.481 76.929H441.394V69.891H437.722C437.705 70.3217 437.679 70.7778 437.645 71.2595C437.617 71.7412 437.58 72.2228 437.535 72.7045C437.495 73.1862 437.447 73.6395 437.39 74.0645C437.339 74.4838 437.277 74.8522 437.203 75.1695C437.118 75.5775 437.025 75.926 436.923 76.215C436.827 76.504 436.679 76.742 436.481 76.929ZM449.029 78.255C448.106 78.255 447.324 78.0482 446.683 77.6345C446.043 77.2208 445.556 76.6513 445.221 75.926C444.893 75.195 444.723 74.3563 444.711 73.41C444.723 72.4467 444.898 71.6023 445.238 70.877C445.578 70.146 446.068 69.5793 446.709 69.177C447.349 68.769 448.125 68.565 449.038 68.565C449.967 68.565 450.775 68.7917 451.46 69.245C452.152 69.6983 452.625 70.3188 452.88 71.1065L451.656 71.4975C451.44 70.9478 451.098 70.5228 450.627 70.2225C450.163 69.9165 449.63 69.7635 449.029 69.7635C448.355 69.7635 447.797 69.9193 447.355 70.231C446.913 70.537 446.584 70.9648 446.369 71.5145C446.153 72.0642 446.043 72.696 446.037 73.41C446.049 74.5093 446.304 75.3933 446.802 76.062C447.301 76.725 448.043 77.0565 449.029 77.0565C449.653 77.0565 450.182 76.9148 450.619 76.6315C451.061 76.3425 451.395 75.9232 451.622 75.3735L452.88 75.7475C452.54 76.5635 452.041 77.1868 451.384 77.6175C450.726 78.0425 449.942 78.255 449.029 78.255ZM456.892 78V69.976H453.637V68.82H461.397V69.976H458.142V78H456.892ZM463.01 78V68.82H466.792C466.985 68.82 467.217 68.8313 467.489 68.854C467.767 68.8767 468.025 68.9192 468.263 68.9815C468.778 69.1175 469.192 69.3952 469.504 69.8145C469.821 70.2338 469.98 70.7382 469.98 71.3275C469.98 71.6562 469.929 71.9508 469.827 72.2115C469.73 72.4665 469.591 72.6875 469.41 72.8745C469.325 72.9708 469.232 73.0558 469.13 73.1295C469.028 73.1975 468.928 73.2542 468.832 73.2995C469.013 73.3335 469.209 73.4128 469.419 73.5375C469.747 73.7302 469.997 73.9908 470.167 74.3195C470.337 74.6425 470.422 75.0363 470.422 75.501C470.422 76.13 470.271 76.6428 469.971 77.0395C469.671 77.4362 469.268 77.7082 468.764 77.8555C468.537 77.9178 468.291 77.9575 468.025 77.9745C467.764 77.9915 467.517 78 467.285 78H463.01ZM464.268 76.9375H467.226C467.345 76.9375 467.495 76.929 467.676 76.912C467.857 76.8893 468.019 76.861 468.161 76.827C468.495 76.742 468.739 76.572 468.892 76.317C469.05 76.0563 469.13 75.773 469.13 75.467C469.13 75.0647 469.011 74.736 468.773 74.481C468.54 74.2203 468.229 74.0617 467.838 74.005C467.707 73.9767 467.571 73.9597 467.43 73.954C467.288 73.9483 467.16 73.9455 467.047 73.9455H464.268V76.9375ZM464.268 72.8745H466.835C466.982 72.8745 467.146 72.866 467.328 72.849C467.515 72.8263 467.676 72.7895 467.812 72.7385C468.107 72.6365 468.322 72.4608 468.458 72.2115C468.6 71.9622 468.671 71.6902 468.671 71.3955C468.671 71.0725 468.594 70.7892 468.441 70.5455C468.294 70.3018 468.07 70.1318 467.77 70.0355C467.566 69.9618 467.345 69.9193 467.107 69.908C466.874 69.8967 466.727 69.891 466.665 69.891H464.268V72.8745ZM476 78.255C475.105 78.255 474.329 78.0567 473.671 77.66C473.02 77.2633 472.512 76.7052 472.15 75.9855C471.787 75.2658 471.606 74.4215 471.606 73.4525C471.606 72.4495 471.784 71.5825 472.141 70.8515C472.498 70.1205 473 69.5567 473.646 69.16C474.297 68.7633 475.065 68.565 475.949 68.565C476.856 68.565 477.629 68.7747 478.27 69.194C478.91 69.6077 479.395 70.2027 479.723 70.979C480.052 71.7553 480.202 72.6818 480.174 73.7585H478.899V73.3165C478.876 72.1265 478.618 71.2283 478.125 70.622C477.638 70.0157 476.924 69.7125 475.983 69.7125C474.997 69.7125 474.241 70.0327 473.714 70.673C473.192 71.3133 472.932 72.2257 472.932 73.41C472.932 74.566 473.192 75.4642 473.714 76.1045C474.241 76.7392 474.986 77.0565 475.949 77.0565C476.607 77.0565 477.179 76.9063 477.666 76.606C478.159 76.3 478.547 75.8608 478.831 75.2885L479.995 75.739C479.633 76.538 479.097 77.1585 478.389 77.6005C477.686 78.0368 476.89 78.255 476 78.255ZM472.49 73.7585V72.713H479.502V73.7585H472.49ZM219.024 97.255C218.111 97.255 217.332 97.0482 216.686 96.6345C216.04 96.2208 215.544 95.6485 215.199 94.9175C214.853 94.1865 214.68 93.3478 214.68 92.4015C214.68 91.4382 214.856 90.5938 215.207 89.8685C215.558 89.1432 216.057 88.5793 216.703 88.177C217.355 87.769 218.128 87.565 219.024 87.565C219.942 87.565 220.724 87.7718 221.37 88.1855C222.021 88.5935 222.517 89.163 222.857 89.894C223.203 90.6193 223.376 91.4552 223.376 92.4015C223.376 93.3648 223.203 94.212 222.857 94.943C222.511 95.6683 222.013 96.235 221.361 96.643C220.709 97.051 219.93 97.255 219.024 97.255ZM219.024 96.0565C220.044 96.0565 220.803 95.7193 221.302 95.045C221.8 94.365 222.05 93.4838 222.05 92.4015C222.05 91.2908 221.797 90.4068 221.293 89.7495C220.794 89.0922 220.038 88.7635 219.024 88.7635C218.338 88.7635 217.771 88.9193 217.324 89.231C216.882 89.537 216.55 89.9648 216.329 90.5145C216.114 91.0585 216.006 91.6875 216.006 92.4015C216.006 93.5065 216.261 94.3933 216.771 95.062C217.281 95.725 218.032 96.0565 219.024 96.0565ZM225.242 97V87.82H232.544V97H231.294V89.0185H226.492V97H225.242ZM238.814 97.255C237.918 97.255 237.142 97.0567 236.485 96.66C235.833 96.2633 235.326 95.7052 234.963 94.9855C234.601 94.2658 234.419 93.4215 234.419 92.4525C234.419 91.4495 234.598 90.5825 234.955 89.8515C235.312 89.1205 235.813 88.5567 236.459 88.16C237.111 87.7633 237.879 87.565 238.763 87.565C239.669 87.565 240.443 87.7747 241.083 88.194C241.724 88.6077 242.208 89.2027 242.537 89.979C242.865 90.7553 243.016 91.6818 242.987 92.7585H241.712V92.3165C241.69 91.1265 241.432 90.2283 240.939 89.622C240.451 89.0157 239.737 88.7125 238.797 88.7125C237.811 88.7125 237.054 89.0327 236.527 89.673C236.006 90.3133 235.745 91.2257 235.745 92.41C235.745 93.566 236.006 94.4642 236.527 95.1045C237.054 95.7392 237.799 96.0565 238.763 96.0565C239.42 96.0565 239.992 95.9063 240.48 95.606C240.973 95.3 241.361 94.8608 241.644 94.2885L242.809 94.739C242.446 95.538 241.911 96.1585 241.202 96.6005C240.5 97.0368 239.703 97.255 238.814 97.255ZM235.303 92.7585V91.713H242.316V92.7585H235.303ZM248.996 97.255C248.152 97.255 247.438 97.0425 246.854 96.6175C246.27 96.1868 245.828 95.606 245.528 94.875C245.228 94.1383 245.078 93.3138 245.078 92.4015C245.078 91.4722 245.228 90.6448 245.528 89.9195C245.834 89.1885 246.282 88.6133 246.871 88.194C247.46 87.7747 248.186 87.565 249.047 87.565C249.886 87.565 250.605 87.7775 251.206 88.2025C251.807 88.6275 252.266 89.2055 252.583 89.9365C252.906 90.6675 253.068 91.4892 253.068 92.4015C253.068 93.3195 252.906 94.144 252.583 94.875C252.26 95.606 251.795 96.1868 251.189 96.6175C250.583 97.0425 249.852 97.255 248.996 97.255ZM244.865 101.08V87.82H245.987V94.7305H246.123V101.08H244.865ZM248.869 96.0905C249.509 96.0905 250.042 95.929 250.467 95.606C250.892 95.283 251.209 94.8438 251.419 94.2885C251.634 93.7275 251.742 93.0985 251.742 92.4015C251.742 91.7102 251.637 91.0868 251.427 90.5315C251.217 89.9762 250.897 89.537 250.467 89.214C250.042 88.891 249.5 88.7295 248.843 88.7295C248.203 88.7295 247.67 88.8853 247.245 89.197C246.826 89.5087 246.511 89.9422 246.302 90.4975C246.092 91.0472 245.987 91.6818 245.987 92.4015C245.987 93.1098 246.092 93.7445 246.302 94.3055C246.511 94.8608 246.829 95.2972 247.254 95.6145C247.679 95.9318 248.217 96.0905 248.869 96.0905ZM257.561 97.255C256.869 97.255 256.288 97.1303 255.818 96.881C255.353 96.6317 255.005 96.3002 254.773 95.8865C254.54 95.4728 254.424 95.0223 254.424 94.535C254.424 94.0363 254.523 93.6113 254.722 93.26C254.926 92.903 255.2 92.6112 255.546 92.3845C255.897 92.1578 256.303 91.985 256.762 91.866C257.226 91.7527 257.739 91.6535 258.3 91.5685C258.867 91.4778 259.419 91.4013 259.958 91.339C260.502 91.271 260.978 91.2058 261.386 91.1435L260.944 91.4155C260.961 90.5088 260.785 89.8373 260.417 89.401C260.048 88.9647 259.408 88.7465 258.496 88.7465C257.867 88.7465 257.334 88.8882 256.898 89.1715C256.467 89.4548 256.164 89.9025 255.988 90.5145L254.773 90.1575C254.982 89.3358 255.404 88.6983 256.039 88.245C256.674 87.7917 257.498 87.565 258.513 87.565C259.351 87.565 260.062 87.7237 260.646 88.041C261.235 88.3527 261.652 88.806 261.896 89.401C262.009 89.6673 262.083 89.9648 262.117 90.2935C262.151 90.6222 262.168 90.9565 262.168 91.2965V97H261.054V94.6965L261.377 94.8325C261.065 95.6202 260.581 96.2208 259.924 96.6345C259.266 97.0482 258.479 97.255 257.561 97.255ZM257.705 96.1755C258.289 96.1755 258.799 96.0707 259.235 95.861C259.671 95.6513 260.023 95.3652 260.289 95.0025C260.555 94.6342 260.728 94.2205 260.808 93.7615C260.876 93.4668 260.912 93.1438 260.918 92.7925C260.924 92.4355 260.927 92.1692 260.927 91.9935L261.403 92.24C260.978 92.2967 260.516 92.3533 260.017 92.41C259.524 92.4667 259.037 92.5318 258.555 92.6055C258.079 92.6792 257.648 92.767 257.263 92.869C257.002 92.9427 256.75 93.0475 256.507 93.1835C256.263 93.3138 256.062 93.4895 255.903 93.7105C255.75 93.9315 255.674 94.2063 255.674 94.535C255.674 94.8013 255.739 95.0592 255.869 95.3085C256.005 95.5578 256.22 95.7647 256.515 95.929C256.815 96.0933 257.212 96.1755 257.705 96.1755ZM266.871 97V88.976H263.615V87.82H271.376V88.976H268.12V97H266.871ZM276.664 97.255C275.752 97.255 274.973 97.0482 274.327 96.6345C273.681 96.2208 273.185 95.6485 272.839 94.9175C272.493 94.1865 272.321 93.3478 272.321 92.4015C272.321 91.4382 272.496 90.5938 272.848 89.8685C273.199 89.1432 273.698 88.5793 274.344 88.177C274.995 87.769 275.769 87.565 276.664 87.565C277.582 87.565 278.364 87.7718 279.01 88.1855C279.662 88.5935 280.158 89.163 280.498 89.894C280.843 90.6193 281.016 91.4552 281.016 92.4015C281.016 93.3648 280.843 94.212 280.498 94.943C280.152 95.6683 279.653 96.235 279.002 96.643C278.35 97.051 277.571 97.255 276.664 97.255ZM276.664 96.0565C277.684 96.0565 278.443 95.7193 278.942 95.045C279.441 94.365 279.69 93.4838 279.69 92.4015C279.69 91.2908 279.438 90.4068 278.934 89.7495C278.435 89.0922 277.678 88.7635 276.664 88.7635C275.978 88.7635 275.412 88.9193 274.964 89.231C274.522 89.537 274.191 89.9648 273.97 90.5145C273.754 91.0585 273.647 91.6875 273.647 92.4015C273.647 93.5065 273.902 94.3933 274.412 95.062C274.922 95.725 275.672 96.0565 276.664 96.0565ZM287.014 97.255C286.169 97.255 285.455 97.0425 284.872 96.6175C284.288 96.1868 283.846 95.606 283.546 94.875C283.245 94.1383 283.095 93.3138 283.095 92.4015C283.095 91.4722 283.245 90.6448 283.546 89.9195C283.852 89.1885 284.299 88.6133 284.889 88.194C285.478 87.7747 286.203 87.565 287.065 87.565C287.903 87.565 288.623 87.7775 289.224 88.2025C289.824 88.6275 290.283 89.2055 290.601 89.9365C290.924 90.6675 291.085 91.4892 291.085 92.4015C291.085 93.3195 290.924 94.144 290.601 94.875C290.278 95.606 289.813 96.1868 289.207 96.6175C288.6 97.0425 287.869 97.255 287.014 97.255ZM282.883 101.08V87.82H284.005V94.7305H284.141V101.08H282.883ZM286.886 96.0905C287.527 96.0905 288.059 95.929 288.484 95.606C288.909 95.283 289.227 94.8438 289.436 94.2885C289.652 93.7275 289.759 93.0985 289.759 92.4015C289.759 91.7102 289.654 91.0868 289.445 90.5315C289.235 89.9762 288.915 89.537 288.484 89.214C288.059 88.891 287.518 88.7295 286.861 88.7295C286.22 88.7295 285.688 88.8853 285.263 89.197C284.843 89.5087 284.529 89.9422 284.319 90.4975C284.11 91.0472 284.005 91.6818 284.005 92.4015C284.005 93.1098 284.11 93.7445 284.319 94.3055C284.529 94.8608 284.846 95.2972 285.271 95.6145C285.696 95.9318 286.235 96.0905 286.886 96.0905ZM293.929 101.08L295.705 96.2605L295.731 97.6885L291.71 87.82H293.036L296.334 96.0735H295.79L298.833 87.82H300.108L295.178 101.08H293.929ZM311.647 97V85.9585H307.371V84.76H317.172V85.9585H312.896V97H311.647ZM318.535 97V84.76H326.185V85.9585H319.784V90.1915H325.165V91.39H319.784V95.8015H326.185V97H318.535ZM328.23 97V84.76H329.48V90.54L335.064 84.76H336.662L330.959 90.6675L337.13 97H335.498L329.48 90.88V97H328.23ZM338.324 97V84.76H339.573V95.8015H344.214V84.76H345.464V95.8015H350.113V84.76H351.354V97H338.324ZM353.73 97V84.76H361.38V85.9585H354.98V90.1915H360.36V91.39H354.98V95.8015H361.38V97H353.73ZM363.425 97V84.76H368.151C368.27 84.76 368.404 84.7657 368.551 84.777C368.704 84.7827 368.857 84.7997 369.01 84.828C369.65 84.9243 370.191 85.1482 370.633 85.4995C371.081 85.8452 371.418 86.2815 371.645 86.8085C371.877 87.3355 371.993 87.9192 371.993 88.5595C371.993 89.1942 371.877 89.775 371.645 90.302C371.413 90.829 371.073 91.2682 370.625 91.6195C370.183 91.9652 369.645 92.1862 369.01 92.2825C368.857 92.3052 368.704 92.3222 368.551 92.3335C368.404 92.3448 368.27 92.3505 368.151 92.3505H364.675V97H363.425ZM364.675 91.1605H368.117C368.219 91.1605 368.338 91.1548 368.474 91.1435C368.61 91.1322 368.744 91.1123 368.874 91.084C369.293 90.9933 369.636 90.8205 369.902 90.5655C370.174 90.3105 370.376 90.0073 370.506 89.656C370.642 89.3047 370.71 88.9392 370.71 88.5595C370.71 88.1798 370.642 87.8143 370.506 87.463C370.376 87.106 370.174 86.8 369.902 86.545C369.636 86.29 369.293 86.1172 368.874 86.0265C368.744 85.9982 368.61 85.9812 368.474 85.9755C368.338 85.9642 368.219 85.9585 368.117 85.9585H364.675V91.1605Z" fill="#6B7DA1"/>
</g>
<g filter="url(#filter1_d_49_65)">
<rect x="590" y="21" width="560" height="120" rx="16" fill="url(#paint0_linear_49_65)"/>
<path d="M791.19 87V74.76H801.11V87H799.061V76.681H793.239V87H791.19ZM807.546 87.255C806.628 87.255 805.826 87.0482 805.141 86.6345C804.455 86.2208 803.922 85.6513 803.543 84.926C803.169 84.195 802.982 83.3563 802.982 82.41C802.982 81.4467 803.174 80.6023 803.56 79.877C803.945 79.1517 804.481 78.585 805.166 78.177C805.852 77.769 806.645 77.565 807.546 77.565C808.47 77.565 809.275 77.7718 809.96 78.1855C810.646 78.5992 811.179 79.1715 811.558 79.9025C811.938 80.6278 812.128 81.4637 812.128 82.41C812.128 83.362 811.935 84.2035 811.55 84.9345C811.17 85.6598 810.637 86.2293 809.952 86.643C809.266 87.051 808.464 87.255 807.546 87.255ZM807.546 85.334C808.362 85.334 808.969 85.062 809.365 84.518C809.762 83.974 809.96 83.2713 809.96 82.41C809.96 81.5203 809.759 80.812 809.357 80.285C808.954 79.7523 808.351 79.486 807.546 79.486C806.997 79.486 806.543 79.6107 806.186 79.86C805.835 80.1037 805.574 80.4465 805.404 80.8885C805.234 81.3248 805.149 81.832 805.149 82.41C805.149 83.2997 805.35 84.0108 805.753 84.5435C806.161 85.0705 806.759 85.334 807.546 85.334ZM813.321 89.04V85.3935C813.819 85.3935 814.173 85.2235 814.383 84.8835C814.593 84.5435 814.76 83.9542 814.885 83.1155C814.964 82.6168 815.029 82.0898 815.08 81.5345C815.131 80.9792 815.174 80.3927 815.208 79.775C815.247 79.1573 815.281 78.5057 815.31 77.82H822.144V85.3935H823.07V89.04H821.132V87H815.25V89.04H813.321ZM816.066 85.3935H820.104V79.4265H817.103C817.086 79.7665 817.066 80.115 817.044 80.472C817.021 80.8233 816.995 81.1747 816.967 81.526C816.939 81.8773 816.908 82.2145 816.874 82.5375C816.845 82.8548 816.811 83.1495 816.772 83.4215C816.709 83.8975 816.633 84.2885 816.542 84.5945C816.451 84.9005 816.293 85.1668 816.066 85.3935ZM829.186 87.255C828.291 87.255 827.54 87.0425 826.934 86.6175C826.328 86.1925 825.871 85.6145 825.565 84.8835C825.259 84.1468 825.106 83.3223 825.106 82.41C825.106 81.4863 825.259 80.659 825.565 79.928C825.871 79.197 826.319 78.6218 826.908 78.2025C827.503 77.7775 828.237 77.565 829.11 77.565C829.977 77.565 830.728 77.7775 831.362 78.2025C832.003 78.6218 832.499 79.197 832.85 79.928C833.201 80.6533 833.377 81.4807 833.377 82.41C833.377 83.328 833.204 84.1525 832.858 84.8835C832.513 85.6145 832.025 86.1925 831.396 86.6175C830.767 87.0425 830.031 87.255 829.186 87.255ZM824.758 91.08V77.82H826.568V84.263H826.823V91.08H824.758ZM828.872 85.419C829.405 85.419 829.844 85.2858 830.189 85.0195C830.535 84.7532 830.79 84.3933 830.954 83.94C831.124 83.481 831.209 82.971 831.209 82.41C831.209 81.8547 831.124 81.3503 830.954 80.897C830.784 80.438 830.521 80.0753 830.164 79.809C829.807 79.537 829.354 79.401 828.804 79.401C828.283 79.401 827.858 79.5285 827.529 79.7835C827.2 80.0328 826.957 80.3842 826.798 80.8375C826.645 81.2852 826.568 81.8093 826.568 82.41C826.568 83.005 826.645 83.5292 826.798 83.9825C826.957 84.4358 827.203 84.79 827.537 85.045C827.877 85.2943 828.322 85.419 828.872 85.419ZM839.305 87.255C838.387 87.255 837.585 87.0482 836.9 86.6345C836.214 86.2208 835.681 85.6513 835.302 84.926C834.928 84.195 834.741 83.3563 834.741 82.41C834.741 81.4467 834.933 80.6023 835.319 79.877C835.704 79.1517 836.239 78.585 836.925 78.177C837.611 77.769 838.404 77.565 839.305 77.565C840.229 77.565 841.033 77.7718 841.719 78.1855C842.405 78.5992 842.937 79.1715 843.317 79.9025C843.697 80.6278 843.887 81.4637 843.887 82.41C843.887 83.362 843.694 84.2035 843.309 84.9345C842.929 85.6598 842.396 86.2293 841.711 86.643C841.025 87.051 840.223 87.255 839.305 87.255ZM839.305 85.334C840.121 85.334 840.727 85.062 841.124 84.518C841.521 83.974 841.719 83.2713 841.719 82.41C841.719 81.5203 841.518 80.812 841.116 80.285C840.713 79.7523 840.11 79.486 839.305 79.486C838.755 79.486 838.302 79.6107 837.945 79.86C837.594 80.1037 837.333 80.4465 837.163 80.8885C836.993 81.3248 836.908 81.832 836.908 82.41C836.908 83.2997 837.109 84.0108 837.512 84.5435C837.92 85.0705 838.517 85.334 839.305 85.334ZM849.576 87.272C848.703 87.2607 847.961 87.0652 847.349 86.6855C846.737 86.3058 846.258 85.7703 845.912 85.079C845.567 84.3877 845.357 83.5717 845.283 82.631C845.249 82.1493 845.247 81.611 845.275 81.016C845.303 80.421 845.366 79.8402 845.462 79.2735C845.558 78.7068 845.691 78.2252 845.861 77.8285C846.037 77.4318 846.267 77.0663 846.55 76.732C846.833 76.392 847.139 76.1087 847.468 75.882C847.842 75.6213 848.247 75.4202 848.683 75.2785C849.125 75.1368 849.587 75.0292 850.069 74.9555C850.551 74.8762 851.046 74.8053 851.556 74.743C852.066 74.6807 852.571 74.6013 853.069 74.505L853.256 76.3155C852.939 76.3948 852.571 76.4572 852.151 76.5025C851.738 76.5422 851.307 76.5875 850.859 76.6385C850.417 76.6895 849.995 76.7632 849.593 76.8595C849.191 76.9558 848.842 77.0975 848.547 77.2845C848.139 77.5338 847.828 77.8908 847.612 78.3555C847.397 78.8202 847.27 79.3103 847.23 79.826C847.581 79.3047 848.018 78.9392 848.539 78.7295C849.066 78.5142 849.599 78.4065 850.137 78.4065C850.953 78.4065 851.653 78.5992 852.236 78.9845C852.826 79.3698 853.276 79.894 853.588 80.557C853.905 81.2143 854.064 81.9482 854.064 82.7585C854.064 83.6652 853.874 84.4585 853.494 85.1385C853.115 85.8185 852.588 86.3455 851.913 86.7195C851.239 87.0935 850.46 87.2777 849.576 87.272ZM849.678 85.351C850.415 85.351 850.97 85.1243 851.344 84.671C851.724 84.212 851.913 83.6028 851.913 82.8435C851.913 82.0672 851.718 81.4552 851.327 81.0075C850.942 80.5598 850.392 80.336 849.678 80.336C848.953 80.336 848.4 80.5598 848.02 81.0075C847.641 81.4552 847.451 82.0672 847.451 82.8435C847.451 83.6368 847.644 84.2545 848.029 84.6965C848.414 85.1328 848.964 85.351 849.678 85.351ZM855.919 87V77.82H857.968V81.441H862.09V77.82H864.139V87H862.09V83.362H857.968V87H855.919ZM870.685 87.255C869.755 87.255 868.939 87.0538 868.237 86.6515C867.534 86.2492 866.984 85.691 866.588 84.977C866.197 84.263 866.001 83.4413 866.001 82.512C866.001 81.509 866.194 80.6392 866.579 79.9025C866.965 79.1602 867.5 78.585 868.186 78.177C868.871 77.769 869.665 77.565 870.566 77.565C871.518 77.565 872.325 77.7888 872.988 78.2365C873.657 78.6785 874.153 79.3047 874.476 80.115C874.799 80.9253 874.921 81.8802 874.841 82.9795H872.81V82.2315C872.804 81.2342 872.628 80.506 872.283 80.047C871.937 79.588 871.393 79.3585 870.651 79.3585C869.812 79.3585 869.189 79.6192 868.781 80.1405C868.373 80.6562 868.169 81.4127 868.169 82.41C868.169 83.3393 868.373 84.059 868.781 84.569C869.189 85.079 869.784 85.334 870.566 85.334C871.07 85.334 871.504 85.2235 871.866 85.0025C872.235 84.7758 872.518 84.45 872.716 84.025L874.739 84.637C874.388 85.4643 873.844 86.1075 873.107 86.5665C872.376 87.0255 871.569 87.255 870.685 87.255ZM867.523 82.9795V81.4325H873.838V82.9795H867.523ZM880.911 87.255C879.982 87.255 879.166 87.0538 878.463 86.6515C877.761 86.2492 877.211 85.691 876.814 84.977C876.423 84.263 876.228 83.4413 876.228 82.512C876.228 81.509 876.421 80.6392 876.806 79.9025C877.191 79.1602 877.727 78.585 878.412 78.177C879.098 77.769 879.891 77.565 880.792 77.565C881.744 77.565 882.552 77.7888 883.215 78.2365C883.884 78.6785 884.379 79.3047 884.702 80.115C885.025 80.9253 885.147 81.8802 885.068 82.9795H883.036V82.2315C883.031 81.2342 882.855 80.506 882.509 80.047C882.164 79.588 881.62 79.3585 880.877 79.3585C880.039 79.3585 879.415 79.6192 879.007 80.1405C878.599 80.6562 878.395 81.4127 878.395 82.41C878.395 83.3393 878.599 84.059 879.007 84.569C879.415 85.079 880.01 85.334 880.792 85.334C881.297 85.334 881.73 85.2235 882.093 85.0025C882.461 84.7758 882.745 84.45 882.943 84.025L884.966 84.637C884.615 85.4643 884.071 86.1075 883.334 86.5665C882.603 87.0255 881.795 87.255 880.911 87.255ZM877.749 82.9795V81.4325H884.065V82.9795H877.749Z" fill="white"/>
<path d="M912 82C911.448 82 911 82.4477 911 83C911 83.5523 911.448 84 912 84L912 82ZM949.707 83.7071C950.098 83.3166 950.098 82.6834 949.707 82.2929L943.343 75.9289C942.953 75.5384 942.319 75.5384 941.929 75.9289C941.538 76.3195 941.538 76.9526 941.929 77.3431L947.586 83L941.929 88.6569C941.538 89.0474 941.538 89.6805 941.929 90.0711C942.319 90.4616 942.953 90.4616 943.343 90.0711L949.707 83.7071ZM912 84L949 84L949 82L912 82L912 84Z" fill="white"/>
</g>
<circle opacity="0.5" cx="81" cy="81" r="81" fill="url(#paint1_linear_49_65)"/>
<circle opacity="0.4" cx="81" cy="81" r="67" fill="url(#paint2_linear_49_65)"/>
<circle cx="80.5" cy="80.5" r="49.5" fill="url(#paint3_linear_49_65)"/>
<path d="M69.98 97.54C68.384 97.54 66.944 97.168 65.66 96.424C64.388 95.68 63.38 94.672 62.636 93.4C61.892 92.116 61.52 90.676 61.52 89.08V79C61.52 77.404 61.892 75.97 62.636 74.698C63.38 73.414 64.388 72.4 65.66 71.656C66.944 70.912 68.384 70.54 69.98 70.54C71.576 70.54 73.01 70.912 74.282 71.656C75.566 72.4 76.58 73.414 77.324 74.698C78.068 75.97 78.44 77.404 78.44 79V89.08C78.44 90.676 78.068 92.116 77.324 93.4C76.58 94.672 75.566 95.68 74.282 96.424C73.01 97.168 71.576 97.54 69.98 97.54ZM69.98 94.984C71.048 94.984 72.02 94.726 72.896 94.21C73.772 93.682 74.468 92.98 74.984 92.104C75.5 91.228 75.758 90.262 75.758 89.206V78.874C75.758 77.806 75.5 76.834 74.984 75.958C74.468 75.082 73.772 74.386 72.896 73.87C72.02 73.342 71.048 73.078 69.98 73.078C68.912 73.078 67.94 73.342 67.064 73.87C66.188 74.386 65.492 75.082 64.976 75.958C64.46 76.834 64.202 77.806 64.202 78.874V89.206C64.202 90.262 64.46 91.228 64.976 92.104C65.492 92.98 66.188 93.682 67.064 94.21C67.94 94.726 68.912 94.984 69.98 94.984ZM91.1427 97.54C89.7987 97.54 88.5567 97.264 87.4167 96.712C86.2767 96.16 85.3047 95.398 84.5007 94.426C83.6967 93.454 83.1207 92.338 82.7727 91.078L85.3107 90.394C85.5387 91.33 85.9527 92.14 86.5527 92.824C87.1527 93.496 87.8547 94.018 88.6587 94.39C89.4747 94.762 90.3267 94.948 91.2147 94.948C92.3667 94.948 93.3987 94.672 94.3107 94.12C95.2347 93.556 95.9667 92.812 96.5067 91.888C97.0467 90.964 97.3167 89.95 97.3167 88.846C97.3167 87.706 97.0347 86.68 96.4707 85.768C95.9067 84.844 95.1627 84.112 94.2387 83.572C93.3147 83.032 92.3067 82.762 91.2147 82.762C89.9907 82.762 88.9347 83.032 88.0467 83.572C87.1587 84.1 86.4507 84.766 85.9227 85.57L83.5107 84.562L84.3027 71.08H98.1447V73.618H85.4727L86.7867 72.376L86.0847 83.878L85.4187 82.996C86.1627 82.144 87.0627 81.478 88.1187 80.998C89.1747 80.518 90.2847 80.278 91.4487 80.278C93.0447 80.278 94.4847 80.662 95.7687 81.43C97.0527 82.186 98.0727 83.212 98.8287 84.508C99.5847 85.804 99.9627 87.25 99.9627 88.846C99.9627 90.43 99.5607 91.882 98.7567 93.202C97.9527 94.51 96.8847 95.56 95.5527 96.352C94.2207 97.144 92.7507 97.54 91.1427 97.54Z" fill="white"/>
<defs>
<filter id="filter0_d_49_65" x="74" y="11" width="490" height="140" filterUnits="userSpaceOnUse" color-interpolation-filters="sRGB">
<feFlood flood-opacity="0" result="BackgroundImageFix"/>
<feColorMatrix in="SourceAlpha" type="matrix" values="0 0 0 0 0 0 0 0 0 0 0 0 0 0 0 0 0 0 127 0" result="hardAlpha"/>
<feOffset dx="3"/>
<feGaussianBlur stdDeviation="5"/>
<feComposite in2="hardAlpha" operator="out"/>
<feColorMatrix type="matrix" values="0 0 0 0 0.420833 0 0 0 0 0.420833 0 0 0 0 0.420833 0 0 0 0.25 0"/>
<feBlend mode="normal" in2="BackgroundImageFix" result="effect1_dropShadow_49_65"/>
<feBlend mode="normal" in="SourceGraphic" in2="effect1_dropShadow_49_65" result="shape"/>
</filter>
<filter id="filter1_d_49_65" x="583" y="11" width="580" height="140" filterUnits="userSpaceOnUse" color-interpolation-filters="sRGB">
<feFlood flood-opacity="0" result="BackgroundImageFix"/>
<feColorMatrix in="SourceAlpha" type="matrix" values="0 0 0 0 0 0 0 0 0 0 0 0 0 0 0 0 0 0 127 0" result="hardAlpha"/>
<feOffset dx="3"/>
<feGaussianBlur stdDeviation="5"/>
<feComposite in2="hardAlpha" operator="out"/>
<feColorMatrix type="matrix" values="0 0 0 0 0.420833 0 0 0 0 0.420833 0 0 0 0 0.420833 0 0 0 0.25 0"/>
<feBlend mode="normal" in2="BackgroundImageFix" result="effect1_dropShadow_49_65"/>
<feBlend mode="normal" in="SourceGraphic" in2="effect1_dropShadow_49_65" result="shape"/>
</filter>
<linearGradient id="paint0_linear_49_65" x1="1150" y1="80.798" x2="590" y2="80.798" gradientUnits="userSpaceOnUse">
<stop stop-color="#267ABE"/>
<stop offset="1" stop-color="#195697"/>
</linearGradient>
<linearGradient id="paint1_linear_49_65" x1="162" y1="80.7273" x2="1.01618e-06" y2="80.7273" gradientUnits="userSpaceOnUse">
<stop stop-color="#267ABE"/>
<stop offset="1" stop-color="#195697"/>
</linearGradient>
<linearGradient id="paint2_linear_49_65" x1="148" y1="80.7744" x2="14" y2="80.7744" gradientUnits="userSpaceOnUse">
<stop stop-color="#267ABE"/>
<stop offset="1" stop-color="#195697"/>
</linearGradient>
<linearGradient id="paint3_linear_49_65" x1="130" y1="80.3333" x2="31" y2="80.3333" gradientUnits="userSpaceOnUse">
<stop stop-color="#267ABE"/>
<stop offset="1" stop-color="#195697"/>
</linearGradient>
</defs>
</svg>
