<svg width="54" height="54" viewBox="0 0 54 54" fill="none" xmlns="http://www.w3.org/2000/svg">
<path d="M52.7273 17.2816L27.4747 0.145903C27.1883 -0.048687 26.812 -0.0485815 26.5253 0.145903L1.27269 17.2816C1.04077 17.439 0.901863 17.701 0.901863 17.9813V53.1546C0.901863 53.6215 1.28039 54.0001 1.74741 54.0001H52.2526C52.7196 54.0001 53.0981 53.6216 53.0981 53.1546V17.9813C53.0981 17.701 52.9594 17.439 52.7273 17.2816ZM20.7432 52.309H11.6117V43.1776H13.5282V47.7433C13.5282 48.2102 13.9067 48.5888 14.3737 48.5888H17.9813C18.4482 48.5888 18.8268 48.2103 18.8268 47.7433V43.1776H20.7433V52.309H20.7432ZM9.80796 21.6452V19.7287H44.1922V21.6452H9.80796ZM15.2192 46.8978V43.1776H17.1357V46.8978H15.2192ZM20.7432 41.4865H17.9812H14.3736H11.6116V32.355H13.5281V36.9207C13.5281 37.3876 13.9066 37.7663 14.3736 37.7663H17.9812C18.4481 37.7663 18.8267 37.3878 18.8267 36.9207V32.355H20.7432V41.4865ZM15.2192 36.0752V32.355H17.1357V36.0752H15.2192ZM31.5658 52.309H22.4343V43.1776H24.3507V47.7433C24.3507 48.2102 24.7293 48.5888 25.1963 48.5888H28.8038C29.2709 48.5888 29.6494 48.2103 29.6494 47.7433V43.1776H31.5659V52.309H31.5658ZM26.0417 46.8978V43.1776H27.9582V46.8978H26.0417ZM51.4072 52.309H44.0794V34.215C44.0794 33.7481 43.701 33.3695 43.2339 33.3695C42.7668 33.3695 42.3883 33.748 42.3883 34.215V52.3089H33.2568V42.332C33.2568 41.8651 32.8784 41.4865 32.4113 41.4865H22.4343V31.5095C22.4343 31.0425 22.0557 30.6639 21.5887 30.6639H11.6117V23.3362H42.3883V30.6076C42.3883 31.0745 42.7667 31.4531 43.2339 31.4531C43.7009 31.4531 44.0794 31.0746 44.0794 30.6076V23.3362H45.0377C45.5047 23.3362 45.8832 22.9576 45.8832 22.4906V18.8832C45.8832 18.4163 45.5048 18.0376 45.0377 18.0376H8.96242C8.49551 18.0376 8.11688 18.4161 8.11688 18.8832V22.4907C8.11688 22.9576 8.4954 23.3363 8.96242 23.3363H9.92071V52.3092H2.59295V18.4293L27 1.86736L51.4071 18.4293V52.309H51.4072Z" fill="#002368"/>
</svg>
