<svg width="69" height="77" viewBox="0 0 69 77" fill="none" xmlns="http://www.w3.org/2000/svg">
<path d="M64.2646 57.0061H60.6886V43.6897C60.6886 41.083 58.5678 38.9624 55.961 38.9624H46.35C41.95 31.7851 34.0325 26.9863 25.0145 26.9863C24.6453 26.9863 24.2783 26.9959 23.9132 27.0118L23.6318 26.2215H33.2861C35.893 26.2215 38.0135 24.1007 38.0135 21.4941C38.0135 18.8873 35.8929 16.7666 33.2861 16.7666H20.2665L15.4171 3.14239C14.5434 0.686957 11.8341 -0.600089 9.37834 0.273983C6.92261 1.14806 5.63556 3.8572 6.50964 6.31308L14.6665 29.2298C6.02733 33.1728 0.00793457 41.8929 0.00793457 51.9931C0.00793457 65.782 11.2259 77.0001 25.0149 77.0001C38.804 77.0001 50.0219 65.7822 50.0219 51.9931C50.0219 50.779 49.9332 49.5855 49.7652 48.4171H51.2339V61.7335C51.2339 64.3404 53.3548 66.461 55.9613 66.461H64.2647C66.8716 66.461 68.9923 64.3402 68.9923 61.7335C68.9921 59.1269 66.8714 57.0061 64.2646 57.0061ZM9.4003 5.28426C9.0935 4.42207 9.54528 3.47084 10.4073 3.1642C11.2698 2.8574 12.2209 3.30917 12.5275 4.17121L17.7396 18.8149C17.9571 19.4261 18.5358 19.8344 19.1847 19.8344H33.2866C34.2017 19.8344 34.9463 20.579 34.9463 21.4943C34.9463 22.4094 34.2017 23.154 33.2866 23.154H21.458C20.9595 23.154 20.4922 23.3963 20.2047 23.8035C19.9173 24.2108 19.8457 24.7325 20.0129 25.2022L20.7765 27.3474C19.6685 27.5373 18.585 27.7994 17.5316 28.1304L9.4003 5.28426ZM25.0148 73.9323C12.9173 73.9323 3.07561 64.0903 3.07561 51.9931C3.07561 39.896 12.9175 30.0541 25.0148 30.0541C37.1121 30.0541 46.954 39.8958 46.954 51.9931C46.954 64.0904 37.1122 73.9323 25.0148 73.9323ZM64.2646 63.3934H55.9612C55.0461 63.3934 54.3015 62.6488 54.3015 61.7335V46.8833C54.3015 46.0361 53.6148 45.3495 52.7676 45.3495H49.1243C48.8095 44.2084 48.4156 43.0999 47.949 42.03H55.9612C56.8765 42.03 57.621 42.7746 57.621 43.6897V58.54C57.621 59.3871 58.3077 60.0738 59.1549 60.0738H64.2647C65.18 60.0738 65.9246 60.8184 65.9246 61.7335C65.9244 62.6488 65.1798 63.3934 64.2646 63.3934Z" fill="url(#paint0_linear_51_2290)"/>
<defs>
<linearGradient id="paint0_linear_51_2290" x1="68.9923" y1="38.3704" x2="0.007935" y2="38.3704" gradientUnits="userSpaceOnUse">
<stop stop-color="#267ABE"/>
<stop offset="1" stop-color="#195697"/>
</linearGradient>
</defs>
</svg>
