<svg width="78" height="46" viewBox="0 0 78 46" fill="none" xmlns="http://www.w3.org/2000/svg">
<path d="M62.7344 15.1058C61.8241 15.1058 60.9321 15.1862 60.0652 15.3398L58.1921 8.88381L56.7229 3.61312H62.7344C64.4595 3.61312 65.2319 4.62907 65.2319 5.63576C65.2319 6.20792 64.9813 6.74612 64.5263 7.15091C63.9047 7.70405 62.938 7.99656 61.7308 7.99656V11.2466C64.2782 11.2466 65.832 10.3395 66.6869 9.57866C67.8277 8.56336 68.4819 7.12621 68.4819 5.63559C68.4819 4.23777 67.933 2.93111 66.9362 1.95611C65.8707 0.913831 64.4176 0.362793 62.7344 0.362793H52.443L54.4872 7.69642H30.0345L29.2103 5.48642H34.6261V2.23642H21.5377V5.48642H25.7416L27.098 9.12349L22.1552 16.7509C20.0843 15.6991 17.7432 15.1053 15.2657 15.1053C6.84824 15.1058 0 21.9538 0 30.3712C0 38.7885 6.84824 45.6368 15.2656 45.6368C23.134 45.6368 29.6304 39.6524 30.4444 31.9962H32.4733C33.1432 33.8757 34.9399 35.2251 37.0466 35.2251C39.723 35.2251 41.9003 33.0477 41.9003 30.3712C41.9003 29.4503 41.6424 28.5884 41.1952 27.8541L55.8537 12.4871L56.9447 16.2473C51.3901 18.5327 47.469 24.0022 47.469 30.3713C47.469 38.7888 54.3171 45.6369 62.7344 45.6369C71.1518 45.6369 78 38.7887 78 30.3712C78 21.9537 71.1518 15.1058 62.7344 15.1058ZM52.8312 10.9467L38.6662 25.7963C38.1594 25.6164 37.6144 25.5175 37.0464 25.5175C36.925 25.5175 36.8049 25.5235 36.6857 25.5323L31.2463 10.9467H52.8312ZM28.5124 12.9171L33.709 26.8518C33.1601 27.3726 32.7322 28.0193 32.4732 28.7462H30.4444C30.0071 24.6327 27.9294 21.0024 24.8797 18.523L28.5124 12.9171ZM27.168 28.7462H18.2551L23.0987 21.2715C25.2687 23.1422 26.7639 25.7723 27.168 28.7462ZM15.2656 42.3869C8.64013 42.3869 3.25 36.9966 3.25 30.3712C3.25 23.7457 8.64013 18.3558 15.2656 18.3558C17.0917 18.3558 18.823 18.7671 20.3744 19.4991L12.2761 31.9962H27.1679C26.372 37.8554 21.3395 42.3869 15.2656 42.3869ZM37.0466 31.9751C36.1623 31.9751 35.4427 31.2555 35.4427 30.3712C35.4427 29.487 36.1623 28.7675 37.0466 28.7675C37.9307 28.7675 38.6503 29.487 38.6503 30.3712C38.6503 31.2557 37.9307 31.9751 37.0466 31.9751ZM62.7344 42.3869C56.1091 42.3869 50.719 36.9966 50.719 30.3713C50.719 25.4819 53.6564 21.2681 57.8576 19.3941L61.1739 30.8241L64.2951 29.9186L60.978 18.4856C61.5516 18.4011 62.1377 18.3559 62.7346 18.3559C69.36 18.3559 74.7502 23.7461 74.7502 30.3713C74.7502 36.9966 69.3599 42.3869 62.7344 42.3869Z" fill="url(#paint0_linear_51_2267)"/>
<defs>
<linearGradient id="paint0_linear_51_2267" x1="78" y1="22.9236" x2="4.89271e-07" y2="22.9236" gradientUnits="userSpaceOnUse">
<stop stop-color="#267ABE"/>
<stop offset="1" stop-color="#195697"/>
</linearGradient>
</defs>
</svg>
