<svg width="87" height="63" viewBox="0 0 87 63" fill="none" xmlns="http://www.w3.org/2000/svg">
<path d="M81.3805 5.76906C77.7569 2.14539 72.9388 0.149587 67.8141 0.149587C62.6894 0.149587 57.8713 2.14539 54.2476 5.76906L43.5 16.5165L32.7524 5.76889C29.1287 2.14521 24.3106 0.149414 19.1859 0.149414C14.0612 0.149414 9.24314 2.14521 5.61947 5.76889C1.9958 9.39256 0 14.2107 0 19.3355C0 24.4604 1.9958 29.2783 5.61947 32.902L29.2954 56.5779C29.4999 56.8025 29.7091 57.0226 29.9183 57.2315C33.5425 60.8555 38.3596 62.8507 43.4844 62.8507C43.4891 62.8507 43.4939 62.8507 43.4986 62.8507C43.4997 62.8507 43.5007 62.8507 43.5017 62.8507C43.5064 62.8507 43.5111 62.8507 43.5159 62.8507C48.6405 62.8507 53.458 60.8553 57.0821 57.2315C57.2928 57.0207 57.5016 56.8008 57.7047 56.5781L81.3807 32.9021C85.0042 29.2783 87 24.4602 87 19.3355C87 14.2108 85.0042 9.39273 81.3805 5.76906ZM24.5718 46.9523L21.4545 43.835L22.4176 42.8532C23.0878 42.1699 23.0774 41.0727 22.394 40.4023C21.7103 39.732 20.6133 39.7425 19.9431 40.4259L19.0033 41.3839L8.0702 30.4509C5.10129 27.4818 3.46614 23.5344 3.46614 19.3355C3.46614 15.1366 5.10129 11.1891 8.07038 8.21996C11.0395 5.2507 14.9869 3.61572 19.1859 3.61572C23.385 3.61572 27.3324 5.25087 30.3015 8.21996L41.0491 18.9676L29.9181 30.0986C25.3392 34.6773 23.5408 41.0039 24.5733 46.9544L24.5718 46.9523ZM78.9296 30.4511L67.9903 41.3902L55.5448 28.9447C54.8679 28.2681 53.7709 28.2681 53.0937 28.9447C52.417 29.6214 52.417 30.7188 53.0937 31.3958L65.5393 43.8413L55.2337 54.1468L54.6001 54.7804C54.2294 55.1511 53.8435 55.501 53.4438 55.8294C50.6456 58.1287 47.1689 59.3808 43.5 59.3844C39.3068 59.3803 35.3648 57.7453 32.3999 54.7804L31.7962 54.1767C26.1979 47.9637 26.4461 38.4724 32.3692 32.5495L56.6987 8.21996C59.6678 5.2507 63.6152 3.61572 67.8142 3.61572C72.0133 3.61572 75.9607 5.25087 78.9298 8.21996C81.8987 11.1891 83.5339 15.1365 83.5339 19.3355C83.5339 23.5346 81.8987 27.482 78.9296 30.4511Z" fill="url(#paint0_linear_51_2197)"/>
<defs>
<linearGradient id="paint0_linear_51_2197" x1="87" y1="31.3945" x2="5.45726e-07" y2="31.3945" gradientUnits="userSpaceOnUse">
<stop stop-color="#267ABE"/>
<stop offset="1" stop-color="#195697"/>
</linearGradient>
</defs>
</svg>
