<svg width="34" height="90" viewBox="0 0 34 90" fill="none" xmlns="http://www.w3.org/2000/svg">
<path d="M30.0164 26.5293L26.6697 20.381C25.4895 18.2127 24.8657 15.7616 24.8657 13.2929V7.96535V1.79279C24.8657 0.802617 24.0631 0 23.0729 0H10.9271C9.93693 0 9.13432 0.802617 9.13432 1.79279V7.96535V13.2928C9.13432 15.7614 8.51065 18.2125 7.33027 20.3808L3.98358 26.5291C1.75203 30.629 0.57254 35.2631 0.57254 39.9312V88.2072C0.57254 89.1974 1.37516 90 2.36533 90H31.6347C32.6248 90 33.4275 89.1974 33.4275 88.2072V39.9313C33.4275 35.2633 32.248 30.629 30.0164 26.5293ZM12.7199 3.58559H21.2799V6.17238H12.7199V3.58559ZM7.13305 28.2433L10.4797 22.095C11.9454 19.4022 12.7201 16.3586 12.7201 13.2928V9.75814H21.2801V13.2928C21.2801 16.3586 22.0548 19.4022 23.5204 22.095L26.8671 28.2433C28.7323 31.6702 29.7549 35.5254 29.8366 39.4239H4.16358C4.24531 35.5254 5.26766 31.6702 7.13305 28.2433ZM29.8419 86.4144H4.15813V71.4827H29.8419V86.4144ZM29.8419 67.8969H4.15813V43.0096H29.8419V67.8969Z" fill="url(#paint0_linear_51_2159)"/>
<defs>
<linearGradient id="paint0_linear_51_2159" x1="33.4275" y1="44.8485" x2="0.57254" y2="44.8485" gradientUnits="userSpaceOnUse">
<stop stop-color="#267ABE"/>
<stop offset="1" stop-color="#195697"/>
</linearGradient>
</defs>
</svg>
