<svg width="50" height="70" viewBox="0 0 50 70" fill="none" xmlns="http://www.w3.org/2000/svg">
<path d="M47.2735 17.6741H37.3741V11.3106C37.3741 10.1439 36.4246 9.18913 35.2526 9.18913H27.1196V4.24288H34.896C36.0703 4.24288 37.0175 3.29649 37.0175 2.1222C37.0182 0.955482 36.0711 0 34.8968 0H25.0201C25.0117 0 25.0087 0 24.9989 0C24.9913 0 24.9883 0 24.9784 0H15.0979C13.9327 0 12.9765 0.955482 12.9765 2.1222C12.9765 3.29573 13.9327 4.24288 15.0979 4.24288H22.8789V9.18913H14.7451C13.5746 9.18913 12.6237 10.1439 12.6237 11.3106V17.6741H2.72727C1.56054 17.6741 0.606567 18.6296 0.606567 19.7948V67.8786C0.606567 69.0551 1.5613 70 2.72727 70H47.2735C48.4402 70 49.395 69.0551 49.395 67.8786V19.7948C49.3942 18.6289 48.4402 17.6741 47.2735 17.6741ZM14.7451 21.917C15.9149 21.917 16.8658 20.9699 16.8658 19.7948V13.4313H33.1311V19.7948C33.1311 20.9699 34.0798 21.917 35.2526 21.917H45.1513V37.4697H4.84798V21.917H14.7451ZM4.84798 65.7571V41.7111H45.1513V65.7571H4.84798ZM20.2865 52.3175C20.2865 54.2724 18.7041 55.8555 16.7568 55.8555C14.8012 55.8555 13.2195 54.2724 13.2195 52.3175C13.2195 50.3702 14.8012 48.7894 16.7568 48.7894C18.7041 48.7894 20.2865 50.3702 20.2865 52.3175ZM30.8908 50.9093C30.8908 52.0775 29.9414 53.0307 28.7694 53.0307C27.6004 53.0307 26.6494 52.0775 26.6494 50.9093C26.6494 49.732 27.6004 48.7894 28.7694 48.7894C29.9414 48.7894 30.8908 49.732 30.8908 50.9093ZM41.1483 50.1961C41.1483 51.9526 39.7234 53.3775 37.9669 53.3775C36.2119 53.3775 34.7847 51.9526 34.7847 50.1961C34.7847 48.4396 36.2119 47.0139 37.9669 47.0139C39.7234 47.0139 41.1483 48.4396 41.1483 50.1961ZM38.6726 61.1584C38.6726 62.9149 37.2446 64.3398 35.4904 64.3398C33.7331 64.3398 32.3089 62.9149 32.3089 61.1584C32.3089 59.4019 33.7331 57.977 35.4904 57.977C37.2446 57.977 38.6726 59.4019 38.6726 61.1584Z" fill="url(#paint0_linear_51_2245)"/>
<defs>
<linearGradient id="paint0_linear_51_2245" x1="49.395" y1="34.8822" x2="0.606568" y2="34.8822" gradientUnits="userSpaceOnUse">
<stop stop-color="#267ABE"/>
<stop offset="1" stop-color="#195697"/>
</linearGradient>
</defs>
</svg>
