<svg width="72" height="76" viewBox="0 0 72 76" fill="none" xmlns="http://www.w3.org/2000/svg">
<path d="M40.4446 69.1467C37.1064 71.4353 30.0404 72.8442 22.598 72.7615C10.7516 72.6165 3.238 69.0011 3.26608 66.5763L3.35186 59.7698C7.49442 62.6063 15.1125 64.1385 22.701 64.2269C22.7072 64.2269 22.7134 64.2269 22.7202 64.2269C23.6051 64.2269 24.3319 63.5182 24.3413 62.6287L24.5851 42.6489C24.5882 42.2185 24.427 41.8072 24.1245 41.5031C23.8234 41.1896 23.4153 41.0185 22.9833 41.0128C11.142 40.8704 3.62793 37.255 3.65652 34.827L3.74699 27.5334C7.89111 30.3699 15.5092 31.9068 23.0977 31.9941C23.3508 31.9972 23.5994 31.9972 23.8463 31.9972C29.3676 31.9972 34.5578 31.2512 38.5418 29.8714C40.2403 29.2776 41.5317 28.6319 42.5513 27.9685L42.374 42.3458C42.3641 43.2447 43.0826 43.9794 43.9758 43.9887C43.982 43.9887 43.9883 43.9887 43.9945 43.9887C44.8778 43.9887 45.6062 43.2765 45.6156 42.3869L45.8526 23.082C45.875 21.2015 44.6938 18.5661 39.3601 16.3976L39.4709 7.02229C39.5275 2.54595 31.4712 0.10502 23.4839 0.005199L22.9698 0C15.478 0 7.39304 2.07856 7.33585 6.62768L7.222 15.9952C2.96558 17.6126 0.599513 19.9018 0.5626 22.5247L0.413908 34.7777C0.413908 34.7808 0.413908 34.7808 0.413908 34.7839L0.0245034 66.5316C-0.0467228 72.5593 11.3027 75.8575 22.5554 75.9969C22.8024 76 23.0441 76 23.2916 76C31.2601 76 38.4888 74.4107 42.2747 71.8117C43.0161 71.3048 43.2022 70.2988 42.6932 69.5574C42.192 68.8295 41.1824 68.6465 40.4446 69.1467ZM21.3238 44.2133L21.1194 60.9536C10.2135 60.5132 3.37994 57.1198 3.40905 54.8058L3.59414 39.7874C7.44191 42.4212 14.2848 43.9404 21.3238 44.2133ZM10.4449 17.4484C10.4864 17.2472 10.4864 17.0496 10.4511 16.839L10.5223 10.9351C13.5882 12.6606 18.4607 13.5912 23.3165 13.6531L23.8292 13.6598C28.3674 13.6598 33.1161 12.8904 36.1742 11.2792L36.0858 18.3894C36.0733 19.4599 31.7171 21.9127 23.2141 21.8119C19.5369 21.7672 16.1149 21.2166 13.5663 20.2621C11.2746 19.4073 10.4277 18.4642 10.4308 18.0717L10.4449 17.4484ZM22.9698 3.24677L23.4434 3.24989C31.9068 3.35283 36.2423 5.91386 36.2282 6.98433C36.2158 8.00854 31.9817 10.4141 23.8328 10.4141L23.3592 10.411C14.8988 10.3101 10.5634 7.74859 10.5774 6.67551C10.5904 5.65079 14.8198 3.24677 22.9698 3.24677ZM7.45127 19.3995C7.94518 20.6801 9.2704 22.1223 12.434 23.3045C15.3226 24.3838 19.1345 25.0072 23.1741 25.055C23.3436 25.055 23.511 25.0581 23.6773 25.0581C30.6466 25.0581 37.5452 23.2666 39.0076 19.7713C41.6253 20.9904 42.6137 22.2548 42.6038 23.0529C42.5939 23.9726 41.2427 25.5094 37.4703 26.8154C33.6511 28.1385 28.5129 28.8222 23.1283 28.7603C11.2835 28.6148 3.76986 25.0015 3.79794 22.5824C3.81405 21.7755 4.83202 20.5506 7.45127 19.3995ZM70.054 41.2878C70.6778 41.9273 70.6654 42.9531 70.0254 43.5801C69.7093 43.8868 69.3001 44.0423 68.892 44.0423C68.4709 44.0423 68.0498 43.878 67.7331 43.5546L60.0438 35.6703L39.3305 55.882L47.0198 63.7647C47.6437 64.4042 47.6312 65.4299 46.9912 66.0564C46.6751 66.3668 46.266 66.5186 45.8578 66.5186C45.4367 66.5186 45.0125 66.3543 44.699 66.0283L27.0619 47.9483C26.4349 47.3093 26.4489 46.283 27.0905 45.6566C27.7331 45.0363 28.7573 45.0488 29.3822 45.6883L37.072 53.571L57.7869 33.3578L50.0976 25.4813C49.4706 24.8387 49.4862 23.8145 50.1262 23.1891C50.7688 22.5673 51.7946 22.5767 52.4179 23.2177L70.054 41.2878ZM39.7833 67.3702L25.5994 52.8364C24.974 52.1969 24.987 51.168 25.628 50.5441C26.2706 49.9239 27.2948 49.9333 27.9202 50.5764L42.1047 65.1071C42.7312 65.7497 42.7156 66.7785 42.0761 67.3988C41.7595 67.7092 41.3508 67.861 40.9422 67.861C40.5273 67.861 40.1062 67.6962 39.7833 67.3702ZM71.4853 38.6967C71.1712 39.0055 70.7631 39.1573 70.355 39.1573C69.9308 39.1573 69.5096 38.9956 69.193 38.6712L55.0107 24.139C54.3873 23.4964 54.3998 22.4722 55.0424 21.8467C55.6819 21.2249 56.7107 21.2374 57.3346 21.8753L71.517 36.4075C72.1372 37.047 72.131 38.0681 71.4853 38.6967ZM28.8805 57.933L34.7611 63.9607C35.3865 64.6002 35.3735 65.6259 34.7309 66.2529C34.4174 66.5602 34.0072 66.712 33.5991 66.712C33.178 66.712 32.7569 66.5503 32.4392 66.2274L26.5586 60.1997C25.9332 59.5608 25.9462 58.5345 26.5888 57.9075C27.2262 57.281 28.2535 57.294 28.8805 57.933ZM62.3522 25.2708C61.7283 24.6313 61.7408 23.604 62.3839 22.9822C63.0234 22.3583 64.0491 22.3692 64.6756 23.0108L70.5578 29.0369C71.1811 29.6795 71.1686 30.7068 70.5255 31.3286C70.212 31.6406 69.8003 31.7924 69.3921 31.7924C68.971 31.7924 68.5499 31.6307 68.2333 31.3032L62.3522 25.2708Z" fill="url(#paint0_linear_51_2155)"/>
<defs>
<linearGradient id="paint0_linear_51_2155" x1="71.976" y1="37.8721" x2="0.0241704" y2="37.8721" gradientUnits="userSpaceOnUse">
<stop stop-color="#267ABE"/>
<stop offset="1" stop-color="#195697"/>
</linearGradient>
</defs>
</svg>
